<?xml version="1.0" standalone="no"?>
<!DOCTYPE svg PUBLIC "-//W3C//DTD SVG 1.1//EN" "http://www.w3.org/Graphics/SVG/1.1/DTD/svg11.dtd" >
<svg xmlns="http://www.w3.org/2000/svg" xmlns:xlink="http://www.w3.org/1999/xlink" version="1.1">
<metadata>
Created by FontForge 20170924 at Sun Mar 29 16:06:34 2015
 By www-data
Copyright: saiaungmurng2014
</metadata>
<defs>
<font id="JasmineUnicode" horiz-adv-x="0" >
  <font-face 
    font-family="Jasmine Unicode"
    font-weight="400"
    font-stretch="normal"
    units-per-em="1000"
    panose-1="2 0 5 3 0 0 0 2 0 3"
    ascent="800"
    descent="-200"
    x-height="513"
    cap-height="761"
    bbox="-1157 -563 2374 1126"
    underline-thickness="50"
    underline-position="-430"
    unicode-range="U+0020-AA7B"
  />
<missing-glyph horiz-adv-x="318" 
 />
    <glyph glyph-name=".notdef" horiz-adv-x="318" 
 />
    <glyph glyph-name="space" unicode=" " horiz-adv-x="318" 
 />
    <glyph glyph-name="exclam" unicode="!" horiz-adv-x="382" 
d="M201 201h-21l-49 455q-4 30 -4 44q0 35 19 56.5t46 21.5q26 0 44 -21.5t18 -62.5q0 -13 -2 -38zM190 108q26 0 44 -17.5t18 -43.5t-18 -44.5t-44 -18.5t-44.5 18.5t-18.5 44.5t18.5 43.5t44.5 17.5z" />
    <glyph glyph-name="quotedbl" unicode="&#x22;" horiz-adv-x="468" 
d="M322 451l-30 164l-13 68q-1 14 -1 28q0 35 16 51t41 16t41 -16t16 -43q0 -49 -11 -104l-32 -164h-27zM117 451l-31 166q-13 68 -13 94q0 35 15 51t40 16q24 0 41 -16.5t17 -42.5q0 -24 -15 -103l-30 -165h-24z" />
    <glyph glyph-name="numbersign" unicode="#" horiz-adv-x="574" 
d="M64 -16l51 255h-95v47h105l39 192h-144v45h154l52 255h46l-51 -255h189l55 255h46l-53 -255h95v-45h-103l-40 -192h143v-47h-152l-52 -255h-46l52 255h-191l-53 -255h-47zM172 286h191l40 192h-191z" />
    <glyph glyph-name="dollar" unicode="$" horiz-adv-x="536" 
d="M468 840v-305h-19q-12 62 -35.5 98.5t-68 66t-93.5 29.5q-55 0 -90.5 -40.5t-35.5 -90.5q0 -39 23 -71q32 -46 155 -125q99 -64 135 -98t56 -80.5t20 -96.5q0 -97 -63 -167.5t-162 -70.5q-30 0 -57 6q-16 4 -67.5 23.5t-64.5 19.5q-14 0 -21.5 -9.5t-12.5 -91.5h-18v328
h18q15 -89 38 -127.5t70 -68.5t105 -30q65 0 103.5 41.5t38.5 97.5q0 31 -14.5 63t-44.5 60q-21 18 -112.5 79t-130 97.5t-58.5 80.5t-20 96q0 92 58.5 158t150.5 66q56 0 100 -22q37 -18 52 -25q19 -2 25.5 5t20.5 104h19zM293 -333h-51v1338h51v-1338z" />
    <glyph glyph-name="percent" unicode="%" horiz-adv-x="810" 
d="M683 781l-526 -806h-49l524 806h51zM52 562q0 77 23.5 134t62.5 85q30 21 62 21q53 0 95 -54q52 -65 52 -179q0 -80 -23 -135.5t-58.5 -81t-67.5 -25.5q-67 0 -109 79q-37 64 -37 156zM123 545q14 -94 45 -150q26 -47 63 -41q20 2 36.5 21t21.5 60q6 58 -8 163
q-12 78 -36 126q-16 37 -38 49q-15 11 -36 8q-23 -3 -36 -26q-21 -32 -21 -93t9 -117zM454 229q0 77 23.5 133.5t62.5 84.5q30 22 63 22q52 0 95 -54q51 -66 51 -180q0 -79 -23 -134.5t-58.5 -81t-67.5 -25.5q-65 0 -109 77q-37 66 -37 158zM525 211q14 -94 45 -149
q27 -47 65 -41q18 2 34.5 21t21.5 59q7 59 -8 164q-12 78 -35 126q-17 36 -39 49q-15 11 -36 7q-22 -2 -36 -25q-20 -33 -20 -93.5t8 -117.5z" />
    <glyph glyph-name="ampersand" unicode="&#x26;" horiz-adv-x="893" 
d="M586 489h236v-20q-50 -4 -73 -21.5t-72.5 -106.5t-111.5 -168q51 -57 90 -80.5t79 -23.5q38 0 65 21t39 62l20 -15q-20 -80 -66 -117t-107 -37q-46 0 -93.5 24.5t-104.5 84.5q-69 -62 -125 -85.5t-120 -23.5q-92 0 -146.5 49t-54.5 117t49 136t183 140q-26 59 -35.5 96.5
t-9.5 71.5q0 96 70 146q56 39 126 39q66 0 108 -39.5t42 -97.5q0 -60 -40 -104.5t-144 -97.5q72 -128 149 -232q99 117 99 199q0 25 -18 46q-11 15 -34 17v20zM371 476q70 32 104.5 74.5t34.5 94.5q0 40 -25 66.5t-63 26.5q-48 0 -73 -34t-25 -67q0 -28 10 -62t37 -99z
M458 124q-74 101 -102.5 148t-62.5 115q-68 -38 -102 -84.5t-34 -101.5q0 -60 38.5 -105t105.5 -45q34 0 67 13.5t90 59.5z" />
    <glyph glyph-name="quotesingle" unicode="'" horiz-adv-x="206" 
d="M88 451l-31 166q-13 69 -13 94q0 35 14.5 51t39.5 16t42 -16.5t17 -42.5q0 -21 -15 -103l-30 -165h-24z" />
    <glyph glyph-name="parenleft" unicode="(" horiz-adv-x="382" 
d="M357 -225v-21q-85 43 -143 100q-80 81 -123.5 191.5t-43.5 230.5q0 173 85.5 317t224.5 205v-23q-70 -38 -114.5 -105t-66 -168t-21.5 -213q0 -119 18 -216q15 -79 36 -125.5t56 -90t92 -82.5z" />
    <glyph glyph-name="parenright" unicode=")" horiz-adv-x="382" 
d="M25 775v23q85 -42 143 -99q79 -82 123 -192t44 -230q0 -175 -85.5 -318t-224.5 -205v21q69 39 114 105t66 167.5t21 212.5q0 119 -18 218q-14 77 -35 123.5t-56 90t-92 83.5z" />
    <glyph glyph-name="asterisk" unicode="*" horiz-adv-x="574" 
d="M275 586q-2 38 -15 77q-19 56 -19 76q0 29 13.5 44t34.5 15q17 0 29.5 -15t12.5 -43q0 -25 -15 -70.5t-18 -83.5q31 20 57 47q38 45 56 55.5t38 10.5q18 0 31 -13t13 -30q0 -21 -19 -37t-93 -32q-42 -10 -71 -22q29 -14 71 -22q68 -13 88.5 -31.5t20.5 -40.5
q0 -17 -12.5 -29t-28.5 -12q-18 0 -38 11.5t-56 52.5q-22 28 -57 52q1 -32 14 -70q19 -67 19 -91q0 -22 -13 -37.5t-28 -15.5q-21 0 -38 16q-11 12 -11 38q0 27 12.5 65t16 52t5.5 43q-32 -22 -57 -49q-41 -46 -63 -59q-13 -8 -29 -8q-20 0 -33 12.5t-13 28.5
q0 14 11.5 29.5t34.5 26.5q15 5 69 17q34 7 68 21q-30 16 -73 24q-69 14 -85 26q-25 18 -25 45q0 15 12.5 27.5t29.5 12.5q19 0 39.5 -11.5t51.5 -47t62 -55.5z" />
    <glyph glyph-name="plus" unicode="+" horiz-adv-x="647" 
d="M299 79v281h-279v46h279v278h45v-278h281v-46h-281v-281h-45z" />
    <glyph glyph-name="comma" unicode="," horiz-adv-x="287" 
d="M60 -192v25q58 20 89.5 59.5t31.5 84.5q0 12 -4 18q-4 5 -9 5t-26 -11q-11 -5 -22 -5q-27 0 -43.5 16.5t-16.5 45.5q0 27 21.5 47t51.5 20q36 0 65.5 -32.5t29.5 -86.5q0 -57 -40.5 -107t-127.5 -79z" />
    <glyph glyph-name="uni00AD" unicode="-" horiz-adv-x="382" 
d="M46 300h289v-84h-289v84z" />
    <glyph glyph-name="period" unicode="." horiz-adv-x="287" 
d="M142 109q26 0 44 -18t18 -44t-18 -44.5t-44 -18.5q-25 0 -43.5 18.5t-18.5 44.5t18.5 44t43.5 18z" />
    <glyph glyph-name="slash" unicode="/" horiz-adv-x="318" 
d="M322 798l-276 -814h-45l276 814h45z" />
    <glyph glyph-name="zero" unicode="0" horiz-adv-x="574" 
d="M41 376q0 130 39 224t105 140q50 37 104 37q88 0 158 -90q86 -110 86 -300q0 -132 -38 -224.5t-97 -134.5t-114 -42q-110 0 -182 129q-61 108 -61 261zM160 347q22 -156 74 -248q45 -78 107 -69q31 5 59 36t35 97q13 99 -13 274q-19 128 -58 210q-29 61 -64 83
q-26 16 -59 11q-38 -6 -62 -43q-33 -53 -33 -154t14 -197z" />
    <glyph glyph-name="one" unicode="1" horiz-adv-x="348" 
d="M26 676l185 91h18l2 -727q0 -64 5.5 -79.5t22 -24.5t68.5 -9v-21h-286v21q54 0 69.5 8.5t22 22t6.5 82.5l-2 495q0 82 -6 106q-4 19 -14.5 27t-23.5 8q-21 0 -59 -17z" />
    <glyph glyph-name="two" unicode="2" horiz-adv-x="574" 
d="M527 146l-54 -146h-449v21q198 180 279 295t81 209q0 73 -44.5 119.5t-106.5 46.5q-56 0 -100 -33t-66 -96h-21q14 103 72 159t145 56q93 0 154.5 -60t61.5 -140q0 -58 -26 -116q-42 -91 -134 -192q-141 -153 -175 -184h199q60 0 84.5 4.5t44 18t34.5 38.5h21z" />
    <glyph glyph-name="three" unicode="3" horiz-adv-x="485" 
d="M33 609q34 77 83 119t123 42q92 0 142 -59q36 -46 36 -95q0 -84 -104 -172q70 -28 105.5 -79t35.5 -120q0 -99 -62 -172q-83 -94 -238 -94q-77 0 -104.5 19t-27.5 42q0 16 13 28.5t32 12.5q14 0 28 -5q10 -3 44 -20.5t46 -20.5q21 -6 45 -6q56 0 98.5 44t42.5 105
q0 44 -19 87q-15 30 -33 46q-24 24 -66 42t-85 18h-19v16q45 6 90 32.5t65 63t20 82.5q0 57 -36 92.5t-90 35.5q-87 0 -146 -93z" />
    <glyph glyph-name="four" unicode="4" horiz-adv-x="574" 
d="M339 281v378l-267 -378h267zM359 775h56l5 -5v-493l93 -1q14 5 18 19l4 11q6 16 9 35l15 2v-200h-14q-3 28 -9 38q-8 12 -16 14h-100v-187v-65q1 -43 31 -52q16 -8 63 -10v-18h-283v15q50 5 62 9q33 13 33 51v70v187h-312l-4 5v62q0 11 112 171l225 330z" />
    <glyph glyph-name="five" unicode="5" horiz-adv-x="487" 
d="M464 756l-44 -95h-229l-50 -102q149 -22 236 -111q74 -75 74 -179q0 -60 -24 -111t-61 -87t-83 -58q-64 -32 -132 -32q-69 0 -100 24t-31 51q0 17 12.5 29t33.5 12q14 0 24.5 -5t37.5 -23q43 -29 85 -29q67 0 116.5 49.5t49.5 121.5q0 68 -44.5 128t-122.5 92
q-61 25 -167 30l146 295h273z" />
    <glyph glyph-name="six" unicode="6" horiz-adv-x="574" 
d="M552 879v-20q-74 -8 -153.5 -70t-121.5 -122t-62.5 -112.5t-39.5 -129.5q80 56 162 56q78 0 135 -63t57 -162q0 -95 -58 -175q-69 -95 -184 -95q-78 0 -132 52q-107 101 -107 261q0 102 41 194t116.5 189t165 147t148.5 50h33zM165 384q-10 -76 -10 -122
q0 -54 19.5 -117.5t60.5 -99.5q28 -26 68 -26q50 0 88.5 46t38.5 130q0 96 -38.5 166t-108.5 70q-21 0 -45.5 -8.5t-72.5 -38.5z" />
    <glyph glyph-name="seven" unicode="7" horiz-adv-x="511" 
d="M84 756h408v-21l-311 -930h-63l285 860h-209q-63 0 -91 -16q-47 -25 -76 -79l-16 6z" />
    <glyph glyph-name="eight" unicode="8" horiz-adv-x="518" 
d="M189 383q-90 74 -116.5 119t-26.5 93q0 75 57.5 128.5t151.5 53.5q93 0 149 -50t56 -114q0 -43 -30.5 -87.5t-126.5 -103.5q99 -77 132 -121q42 -57 42 -120q0 -81 -61.5 -138t-160.5 -57q-108 0 -169 68q-48 55 -48 119q0 51 34 100.5t117 109.5zM277 444q68 59 86 95
t18 80q0 58 -33.5 91.5t-91.5 33.5q-56 0 -92.5 -33t-36.5 -78q0 -28 15 -57.5t43 -56.5zM215 362q-46 -39 -68.5 -85.5t-22.5 -100.5q0 -73 39.5 -116t101.5 -43q60 0 96.5 34t36.5 84q0 40 -22 72q-39 58 -161 155z" />
    <glyph glyph-name="nine" unicode="9" horiz-adv-x="574" 
d="M8 -132v21q73 0 136 33.5t150 154t105 258.5q-88 -58 -160 -58q-79 0 -136.5 62t-57.5 164q0 100 57 178q69 96 181 96q93 0 160 -78q81 -96 81 -237q-13 -167 -94.5 -321.5t-192.5 -226.5q-90 -46 -197 -46h-32zM408 376q11 72 11 116q0 55 -19 118t-53 96.5t-77 33.5
q-51 0 -88 -44.5t-37 -133.5q0 -118 49 -185q37 -48 90 -48q27 0 62 12t62 35z" />
    <glyph glyph-name="colon" unicode=":" horiz-adv-x="318" 
d="M161 530q26 0 44 -18.5t18 -43.5q0 -27 -18 -44.5t-44 -17.5t-44 17.5t-18 44.5q0 25 18 43.5t44 18.5zM160 109q26 0 44.5 -18t18.5 -44t-18.5 -44.5t-44.5 -18.5q-25 0 -43.5 18.5t-18.5 44.5t18.5 44t43.5 18z" />
    <glyph glyph-name="uni037E" unicode=";" horiz-adv-x="318" 
d="M157 530q27 0 45 -18t18 -43q0 -26 -18 -44t-45 -18q-25 0 -43.5 18t-18.5 44q0 25 18.5 43t43.5 18zM79 -192v25q57 20 89 59.5t32 84.5q0 12 -5 18q-3 5 -8 5q-6 0 -27 -11q-10 -5 -21 -5q-28 0 -44 16.5t-16 45.5q0 27 21.5 47t51.5 20q36 0 65.5 -32.5t29.5 -86.5
q0 -57 -40.5 -107t-127.5 -79z" />
    <glyph glyph-name="less" unicode="&#x3c;" horiz-adv-x="647" 
d="M20 397l603 260v-48l-519 -226l519 -228v-50l-603 264v28z" />
    <glyph glyph-name="equal" unicode="=" horiz-adv-x="647" 
d="M20 495h606v-46h-606v46zM20 313h606v-46h-606v46z" />
    <glyph glyph-name="greater" unicode="&#x3e;" horiz-adv-x="647" 
d="M623 367l-603 -262v48l521 226l-521 228v50l603 -263v-27z" />
    <glyph glyph-name="question" unicode="?" horiz-adv-x="509" 
d="M253 179h-22q3 72 16.5 118t57.5 128q34 64 44 97.5t10 69.5q0 71 -38 113t-93 42q-49 0 -77.5 -23t-28.5 -51q0 -20 17.5 -50t17.5 -46q0 -21 -13 -34.5t-32 -13.5q-23 0 -42.5 23.5t-19.5 64.5q0 64 54.5 112.5t147.5 48.5q115 0 170 -67q41 -49 41 -110
q0 -40 -18.5 -83t-69.5 -102q-82 -92 -100 -130.5t-22 -106.5zM245 111q27 0 45.5 -19t18.5 -45q0 -25 -19 -43.5t-45 -18.5t-44 18.5t-18 43.5q0 26 18 45t44 19z" />
    <glyph glyph-name="at" unicode="@" horiz-adv-x="1057" 
d="M789 538l-65 -224q-37 -125 -44 -159t-7 -55q0 -17 12 -30t29 -13q41 0 98.5 41.5t98.5 133.5t41 192q0 95 -46 177t-130.5 125t-186.5 43q-130 0 -241 -68.5t-176 -198t-65 -267.5q0 -129 57 -235t160 -160t222 -54q148 0 267 79.5t185 231.5h32q-51 -154 -183.5 -249.5
t-302.5 -95.5q-133 0 -248 63t-178.5 179.5t-63.5 254.5q0 149 69.5 277t195 200t266.5 72q116 0 210 -48t142.5 -140.5t48.5 -195.5t-46 -204t-116.5 -147t-147.5 -46q-43 0 -65 20t-22 57q0 31 11 83q-83 -101 -133 -130.5t-88 -29.5q-40 0 -71 36t-31 94q0 82 53.5 183
t140.5 164q64 47 115 47q38 0 63.5 -19.5t33.5 -58.5l18 62zM591 492q-36 0 -72 -39q-52 -55 -90 -152q-28 -70 -28 -112q0 -32 17 -51t38 -19q27 0 57 21.5t62.5 66t47.5 88.5q26 78 26 126q0 33 -17 52t-41 19z" />
    <glyph glyph-name="A" unicode="A" horiz-adv-x="701" 
d="M486 152l-287 103l-45 -120q-16 -44 -16 -66q0 -18 14 -31.5t62 -16.5v-21h-206v21q40 8 53 22q25 27 55 109l46 111l-165 66l65 16l111 -37l172 470h17l227 -633q27 -76 49.5 -98.5t63.5 -25.5v-21h-258v21q39 2 53 14.5t14 32.5q0 24 -20 77zM476 191l-149 412
l-113 -306z" />
    <glyph glyph-name="B" unicode="B" horiz-adv-x="701" 
d="M525 389q80 -18 119 -54q57 -52 57 -127q0 -56 -37 -108t-100 -76t-193 -24h-365v21h29q48 0 69 30q14 20 14 84v492q0 70 -17 89q-21 24 -66 24h-29v21h220v-50q157 62 264 36q85 -20 130 -71.5t45 -118.5q0 -56 -36 -101t-104 -67zM227 419q22 -4 57 3.5t75 12.5
q63 2 110.5 20t61.5 41t14 66q0 67 -55 114t-151 21q-66 -24 -112 -35v-243zM227 55q66 -15 130 -15q103 0 156.5 45.5t53.5 113.5q0 44 -16 98.5t-76.5 78t-110.5 18.5q-57 -3 -89 -13.5t-48 -13.5v-312z" />
    <glyph glyph-name="C" unicode="C" horiz-adv-x="722" 
d="M719 -53q-51 -70 -130 -93q-100 -27 -212 -10q-128 29 -231 115q-107 104 -127 342q0 202 118.5 329t284.5 127q126 0 197 -58t85 -122q0 -36 -19.5 -60t-59.5 -24q-46 2 -73 38q-18 30 -13 60q3 39 -28 68q-62 35 -118 35q-93 0 -149 -69q-92 -109 -104 -282
q-12 -206 101 -335q117 -108 254 -106q129 -2 208 63z" />
    <glyph glyph-name="D" unicode="D" horiz-adv-x="717" 
d="M211 55q63 -16 106 -16q116 0 192 91.5t76 248.5q0 158 -76 249t-196 91q-45 0 -102 -46v-618zM701 384q-4 -160 -87 -267q-96 -115 -278 -117h-318v21h25q42 0 60 30q12 20 12 84v492q0 70 -14 89q-19 24 -58 24h-25v21h192v-50q137 62 231 36l68 -20q96 -48 142 -136
t50 -207z" />
    <glyph glyph-name="E" unicode="E" horiz-adv-x="701" 
d="M239 719v-300h167q66 0 87 19q29 27 33 91h21v-264h-21q-8 54 -16 70q-9 20 -33 31.5t-71 11.5h-167v-251q0 -51 4 -62t16 -17.5t42 -6.5h130q65 0 93.5 9.5t56.5 35.5q1 51 -32 113l56 -1l74 -198h-657v21h27q28 0 52 12q17 10 23.5 27.5t6.5 74.5v243h-80v39h80v248
q0 36 -14 54q-21 21 -68 21h-27v21h587l9 -167h-22q-13 60 -27 82.5t-42 34.5q-23 8 -80 8h-208z" />
    <glyph glyph-name="F" unicode="F" horiz-adv-x="622" 
d="M234 719v-298h139q48 0 70 20.5t30 83.5h20v-258h-20q-1 44 -12 65t-30.5 31t-57.5 10h-139v-432q0 -58 8 -76q5 -14 23 -25q25 -13 52 -13h27v-20h-326v20h26q47 0 69 28q14 18 13 86v434l-75 -2v52h75v230q1 29 -7 47q-6 15 -23 25q-24 13 -52 13h-26v21h567l6 -167
h-19q-15 53 -34 78t-48 36t-89 11h-167z" />
    <glyph glyph-name="G" unicode="G" horiz-adv-x="703" 
d="M489 -235q-65 -2 -132 70l12 8q28 -26 64 -32q44 -3 70 21q20 14 24 65v124q-60 -27 -138 -27q-178 0 -275 141q-74 106 -74 246q0 100 41 192q50 108 135 168q71 48 170 48q36 0 64.5 -6t82.5 -29q27 -13 36 -13t15.5 10t8.5 38h18l16 -240h-16q-26 90 -66 136
q-59 66 -150 66q-125 0 -190 -116q-54 -97 -54 -230q0 -110 36 -199.5t94.5 -131.5t109.5 -42q36 0 69.5 11t66.5 32v254q-3 23 -10.5 40.5t-19.5 25.5t-43 10h-25v22h263v-21h-11q-38 0 -60 -43v-490q-10 -54 -32 -73q-16 -21 -54 -30q-24 -5 -46 -5z" />
    <glyph glyph-name="H" unicode="H" horiz-adv-x="722" 
d="M206 408h308v217q0 59 -5 77q-6 15 -22 25q-21 13 -43 13h-25v21h284v-21h-24q-23 0 -44 -13q-16 -8 -21.5 -27t-4.5 -75v-217h80v-43h-80v-230l-1 -29q0 -29 6 -47q5 -14 20 -24q22 -14 45 -14h24v-21h-284v21h25q40 0 58 27q12 19 12 87v230h-308v-230q0 -58 8 -76
q5 -14 20 -24q21 -14 45 -14h24v-21h-284v21h23q42 0 60 27q12 19 12 87v230h-92v43h92v217q0 59 -8 77q-4 15 -19 25q-21 13 -45 13h-23v21h284v-21h-24q-24 0 -45 -13q-15 -8 -21.5 -27t-6.5 -75v-217z" />
    <glyph glyph-name="I" unicode="I" horiz-adv-x="382" 
d="M352 21v-21h-325v21h27q47 0 68 27q14 19 14 87v492q0 57 -8 75q-6 15 -22 25q-25 13 -52 13h-27v21h325v-21h-27q-47 0 -68 -27q-15 -19 -15 -86v-492q0 -58 8 -76q6 -14 23 -24q25 -14 52 -14h27z" />
    <glyph glyph-name="J" unicode="J" horiz-adv-x="424" 
d="M106 740v21h304v-21h-25q-44 0 -64 -27q-12 -19 -12 -86v-548q0 -85 -18 -138.5t-60.5 -93t-102.5 -39.5q-49 0 -77.5 26t-28.5 60q0 28 13 41q17 18 40 18q16 0 30 -12t34 -63q12 -30 30 -30q14 0 27 18.5t13 65.5v695q0 57 -8 75q-5 15 -22 25q-22 13 -46 13h-27z" />
    <glyph glyph-name="K" unicode="K" horiz-adv-x="798" 
d="M326 422l421 -449q43 -40 81.5 -45.5t126.5 28.5q-45 -58 -98.5 -72.5t-130.5 5.5q-69 33 -98 62l-406 430v-246q0 -58 9 -76q5 -14 21 -24q23 -14 49 -14h25v-21h-308v21h25q45 0 66 27q12 19 12 87v492q0 57 -8 76q-4 14 -20 24q-24 13 -50 13h-25v21h308v-21h-25
q-24 0 -49 -13q-16 -8 -23 -26t-7 -74v-234q12 12 74 72q159 152 192 204q13 22 13 39q0 13 -11 22.5t-37 9.5h-17v21h235v-21q-24 0 -43 -6.5t-85 -80.5q-10 -12 -108 -115z" />
    <glyph glyph-name="L" unicode="L" horiz-adv-x="662" 
d="M526 231h41l72 -230l-617 -1v21h28q47 0 67 31q11 18 11 83v492q0 71 -15 89q-20 24 -63 24h-28v21h335v-21q-60 1 -83 -11t-32 -30t-9 -85v-479q0 -46 9 -64q7 -11 20 -17t85 -6h54q84 0 118 12.5t34 48t-27 122.5z" />
    <glyph glyph-name="M" unicode="M" horiz-adv-x="798" 
d="M398 331l-192 304v-500q3 -74 14 -91q18 -25 43 -25h21v-19h-243v21h22q47 1 56 42v592q0 47 -17 67q-18 17 -42 18h-19v21h165l211 -340l235 340h175v-17h-21q-41 0 -57 -29q-10 -18 -10 -83v-680q0 -71 13 -87q16 -25 38 -32l37 7q-43 -53 -133 4q-42 43 -42 108v692
l-217 -313h-37z" />
    <glyph glyph-name="N" unicode="N" horiz-adv-x="768" 
d="M-3 761h207l415 -536v523q4 74 64 108q55 28 143 13v-21h-27q-48 0 -69 -29q-18 -20 -12 -81v-751h-20l-491 613v-468q0 -70 16 -87q21 -24 66 -24h26v-21h-308v23h27q48 0 68 20q16 19 16 97v529q-12 30 -24 42q-21 20 -48 24q-16 5 -49 5v21z" />
    <glyph glyph-name="O" unicode="O" horiz-adv-x="717" 
d="M360 781q105 0 223 -104q108 -132 108 -262q0 -145 -72 -264q-54 -90 -192 -137q-50 -14 -87 -14q-215 0 -317 245q-23 74 -23 149v12q0 175 127 287q52 36 97 34q61 54 136 54zM259 679v-11q0 -36 44 -55q28 14 43 14q27 0 32 -36q-2 -23 -25 -30l-29 -4q-67 4 -89 75
l-5 33v10q-36 -12 -65 -58q-48 -104 -48 -230q0 -196 106 -306q54 -41 110 -41q108 0 175 93q63 115 63 238v10q0 133 -60 249q-66 93 -168 93q-82 0 -82 -31z" />
    <glyph glyph-name="P" unicode="P" horiz-adv-x="619" 
d="M234 356v-396q0 -71 16 -89q22 -25 64 -25h30v-21h-326v21h29q48 0 68 32q12 17 12 82v667q0 71 -15 89q-22 24 -65 24h-29v21h279q102 0 161 -21t99 -71t40 -118q0 -94 -61.5 -152.5t-172.5 -58.5q-28 0 -60 4t-69 12zM234 389q30 -6 53 -9t40 -3q58 0 100 45.5
t42 116.5q0 50 -20 92t-57 63.5t-85 21.5q-27 0 -73 -11v-316z" />
    <glyph glyph-name="Q" unicode="Q" horiz-adv-x="712" 
d="M498 8q24 -64 52.5 -95.5t89.5 -37.5v-19q-55 4 -103 16.5t-77.5 27.5t-74.5 84q-176 3 -236 77q-61 54 -95.5 133t-34.5 189q0 170 100 282.5t243 112.5q136 0 234.5 -113t98.5 -284q0 -141 -70 -246.5t-127 -126.5zM356 735q-93 0 -150 -73q-71 -91 -71 -279
q0 -185 73 -285l49 -35l65 -23q76 -2 63 58l-6 33l-11 45l-26 30l-14 8l-26 8l-2 5q124 14 187 -154q92 116 92 292q0 137 -38 230q-29 73 -77 106.5t-108 33.5z" />
    <glyph glyph-name="R" unicode="R" horiz-adv-x="701" 
d="M530 0l-238 356q-27 -1 -43 -1h-15t-16 1v-221q0 -72 15 -89q19 -25 59 -25h27v-21h-300v21h27q44 0 63 31q10 18 10 83v492q0 71 -13 89q-20 24 -60 24h-27v21h199v-46q126 48 194 32.5t111 -66t43 -116.5q0 -70 -42.5 -121.5t-129.5 -73.5l242 -369q67 -96 122 -117
l44 -13q-134 -26 -232 82zM218 391h17h13q100 0 151 43t51 109q0 64 -33 108t-101 44q-46 -6 -98 -28v-276z" />
    <glyph glyph-name="S" unicode="S" horiz-adv-x="558" 
d="M498 840v-305h-20q-12 62 -35.5 98.5t-68 66t-93.5 29.5q-55 0 -90.5 -40.5t-35.5 -90.5q0 -39 23 -71q32 -46 155 -125q99 -64 135 -98t56 -80.5t20 -96.5q0 -97 -63 -167.5t-162 -70.5q-30 0 -57 6q-16 4 -67 23.5t-65 19.5t-21.5 -9.5t-12.5 -91.5h-18v328h18
q15 -89 38 -127.5t70.5 -68.5t104.5 -30q65 0 104 41.5t39 97.5q0 31 -15 63t-45 60q-21 18 -112.5 79t-130 97.5t-58.5 80.5t-20 96q0 92 58.5 158t150.5 66q56 0 100 -22q37 -18 52 -25q20 -2 26 5t20 104h20z" />
    <glyph glyph-name="T" unicode="T" horiz-adv-x="664" 
d="M649 779l1 -190h-22q-6 46 -17 65q-17 31 -46 46t-76 15h-107v-813q0 -56 16 -69q20 -22 54 -22h26v-25h-300v25h28q34 0 56 24q12 17 12 67v813h-92q-52 0 -76 -8q-28 -10 -49 -39t-24 -79h-22v190h22v-18h595v18h21z" />
    <glyph glyph-name="U" unicode="U" horiz-adv-x="665" 
d="M705 893v-20h-27q-40 0 -62 -38q-14 -32 -10 -81v-425q0 -114 -33 -182t-99 -107.5t-169 -39.5q-100 2 -147 37q-60 34 -85 101q-23 57 -25 127v408q-3 38 -21 51q-22 15 -41 16h-27v21h285v-21h-26q-43 0 -62 -18q-12 -20 -13 -49v-362q1 -44 8.5 -100.5t26.5 -88
t49.5 -53t83.5 -21.5q96 13 161 69q52 82 41 183v459q0 98 67 132q56 26 125 2z" />
    <glyph glyph-name="V" unicode="V" horiz-adv-x="725" 
d="M712 889q7 -58 -33 -154l-272 -743h-46l-250 656q-20 51 -28 61q-12 18 -30.5 28t-48.5 12v21h275v-21q-48 -4 -61.5 -17t-13.5 -33q0 -29 23 -88l170 -446l158 441q72 208 72 233q0 16 -14.5 31t-47.5 22q-4 0 -10 1v21q133 26 157 -25z" />
    <glyph glyph-name="W" unicode="W" horiz-adv-x="934" 
d="M936 887q11 -33 -26 -195l-212 -693h-47l-139 482l-160 -482l-38 1l-200 632q-23 70 -29 83q-8 22 -25.5 32t-47.5 10v21h249v-21h-11q-27 0 -40.5 -13t-13.5 -33q0 -19 22 -90l132 -427l116 354q46 46 99 0l110 -354l168 581q22 54 22 80q0 13 -7 24.5t-19 15.5
q-18 8 -49 8v21q141 22 146 -37z" />
    <glyph glyph-name="X" unicode="X" horiz-adv-x="758" 
d="M427 406l230 -401q59 -102 87.5 -128t71.5 -30v-20q-135 -8 -181 44q-43 56 -66 94l-199 352l-135 -196q-16 -24 -21 -35t-5 -23q0 -18 13 -29.5t51 -14.5v-20h-251v20q24 4 43 12q29 15 56 39.5t62 75.5l154 227l-129 220q-52 88 -88.5 116.5t-84.5 29.5v21h302v-21
q-38 -1 -52.5 -14.5t-14.5 -29.5q0 -20 23 -60l100 -174l118 171q20 30 24 41.5t4 23.5q0 11 -6 20q-6 12 -18 17t-46 5v21h271v-21q-27 -1 -43 -10q-28 -13 -53 -27.5t-66 -72.5z" />
    <glyph glyph-name="Y" unicode="Y" horiz-adv-x="704" 
d="M466 761l255 -1v-21h-11q-13 0 -37 -12.5t-43.5 -37t-54.5 -84.5l-363 -634q-27 -41 -63 -60q-54 -18 -120 24l-14 18l13 -6q49 -12 83 12q18 19 31 40l191 328l-206 304q-32 56 -43.5 70t-46.5 34q-9 5 -27 5v21h277v-21h-14q-23 0 -42 -12t-19 -37q0 -21 30 -72
l135 -212l124 216q30 50 30 77q0 15 -6 21t-19 12.5t-40 6.5v21z" />
    <glyph glyph-name="Z" unicode="Z" horiz-adv-x="701" 
d="M83 784q14 0 31 -19h541l6 -8l-244 -344q49 -40 73 -40q33 0 71 62h16v-3q0 -65 -87 -113l-40 -6h-11q-35 0 -76 26l-205 -292h315q131 0 169 123l16 27h7l7 -8v-211l-7 -7h-10l-37 30h-605l-7 7v13l276 388q-27 26 -64 26q-28 0 -60 -62h-3l-18 6q40 116 128 116h10
q22 0 61 -14v4l165 232h-252q-116 0 -135 -76q-15 -70 -21 -70h-10l-6 7v199z" />
    <glyph glyph-name="bracketleft" unicode="[" horiz-adv-x="382" 
d="M341 -227h-247v1005h247v-43h-163v-919h163v-43z" />
    <glyph glyph-name="backslash" unicode="\" horiz-adv-x="318" 
d="M46 798l274 -814h-44l-275 814h45z" />
    <glyph glyph-name="bracketright" unicode="]" horiz-adv-x="382" 
d="M41 778h247v-1007h-247v45h163v919h-163v43z" />
    <glyph glyph-name="asciicircum" unicode="^" horiz-adv-x="539" 
d="M279 777l236 -384h-51l-195 310l-198 -310h-53l243 384h18z" />
    <glyph glyph-name="underscore" unicode="_" horiz-adv-x="574" 
d="M586 -248h-595v47h595v-47z" />
    <glyph glyph-name="grave" unicode="`" horiz-adv-x="382" 
d="M65 781h125l60 -195h-19z" />
    <glyph glyph-name="a" unicode="a" horiz-adv-x="488" 
d="M297 79q-79 -60 -99 -71q-31 -14 -65 -14q-53 0 -87.5 37t-34.5 96q-5 59 28 108q30 43 84 74t174 70v20q0 44 -24 72.5t-72 28.5q-35 0 -56 -19q-20 -19 -20 -44l1 -32q0 -26 -13.5 -40t-35.5 -14q-20 0 -33 15t-13 40q0 48 49 88.5t139 40.5q68 0 112 -24
q33 -17 49 -55q10 -24 10 -97v-175q0 -73 2.5 -90t9.5 -23t15 -6q9 0 16 5q11 7 44 41v-32q-62 -84 -119 -84q-27 0 -43.5 19t-17.5 65zM297 116v229q-85 -34 -109 -48q-59 -42 -76 -77t-16 -68q9 -39 33 -65.5t56 -26.5q42 0 112 56z" />
    <glyph glyph-name="b" unicode="b" horiz-adv-x="517" 
d="M133 431q73 86 159 86q79 0 139.5 -59t60.5 -177q0 -136 -91 -220q-78 -72 -174 -72q-46 0 -92 16.5t-94 48.5v754q0 87 -4.5 107t-13 28t-22.5 8q-16 0 -39 -10l-8 20l154 63h25v-593zM133 394v-307q30 -28 61 -42.5t65 -14.5q52 0 97 56.5t45 162.5q0 99 -45 152.5
t-102 53.5q-31 0 -62 -16q-22 -10 -59 -45z" />
    <glyph glyph-name="c" unicode="c" horiz-adv-x="506" 
d="M495 145q-22 -116 -88.5 -178t-145.5 -62q-96 0 -166.5 84t-70.5 226q0 139 78.5 225.5t188.5 86.5q82 0 135 -46t53 -95q0 -25 -15 -40t-41 -15q-37 0 -54 25q-12 13 -14.5 51t-24.5 58q-22 19 -60 19q-59 0 -97 -47q-50 -64 -65 -156q-14 -134 39 -215.5t154 -95.5
q78 14 110 77q35 30 66 107z" />
    <glyph glyph-name="d" unicode="d" horiz-adv-x="560" 
d="M397 57q-38 -38 -73.5 -55.5t-76.5 -17.5q-86 0 -148.5 70.5t-62.5 180.5q0 111 67.5 196t176.5 85q67 0 117 -30v315q0 88 -4 108.5t-13 28t-23 7.5t-38 -10l-8 20l154 64h25v-888q-1 -64 17 -96q22 -19 66 -29v-22h-151h-25v73zM397 97v262q-4 38 -20.5 69t-44.5 47
t-55 16q-49 0 -87 -45q-51 -57 -51 -168q0 -113 49 -172.5t110 -59.5q51 0 99 51z" />
    <glyph glyph-name="e" unicode="e" horiz-adv-x="474" 
d="M87 235q8 -42 29 -100q70 -119 177 -108q51 0 87.5 27t61.5 95l18 -11q-12 -77 -68.5 -140t-142.5 -63q-116 10 -192 127q-48 89 -39 193q0 132 68 206t170 74q86 0 139.5 -46t53.5 -142zM89 287l247 72q-3 48 -12 68q-14 32 -41.5 50t-57.5 18q-47 0 -84 -36t-52 -172z
" />
    <glyph glyph-name="f" unicode="f" horiz-adv-x="341" 
d="M206 473v-592q-12 -60 -25 -81q-28 -29 -89 -29l-68 8v20h23q22 0 34.5 3t20 22t12.5 57v592h-112v46h112v259q0 73 24.5 124.5t75.5 82.5t113 31q60 0 110 -37q32 -24 32 -54q0 -16 -14.5 -30t-31.5 -14q-12 0 -27 9t-35.5 37.5t-37.5 40.5q-18 10 -39 10
q-27 0 -44.5 -13t-25.5 -41.5t-8 -142.5v-262h121v-46h-121z" />
    <glyph glyph-name="g" unicode="g" horiz-adv-x="532" 
d="M504 587h43v-28q-42 0 -43 -36v-504q0 -273 -284 -273h-13q-96 0 -111 61v12q1 42 43 44h16q26 0 87 -52q17 -13 31 -13q74 0 116 75q12 38 12 110v61q2 19 -10 12q-55 -43 -133 -43q-170 0 -231 190q-9 36 -9 74q0 126 113 224q62 40 130 40h3q83 0 137 -49v19
q24 72 103 76zM123 314q21 -258 157 -258h3q75 0 115 84v168q0 81 -78 171q-46 26 -71 26q-64 0 -97 -59q-29 -45 -29 -132z" />
    <glyph glyph-name="h" unicode="h" horiz-adv-x="480" 
d="M152 799v-376q62 68 99 87.5t73 19.5q44 0 75 -24.5t47 -75.5q10 -36 10 -131v-353q0 -48 9 -67q5 -14 18.5 -21t48.5 -7v-21q-81 -6 -130 22q-33 18 -38 94v353q0 84 -9 110t-28 39.5t-46 13.5q-28 0 -57.5 -15t-71.5 -58v-272q0 -52 6.5 -65.5t22 -22t55.5 -8.5v-21
h-255v21q34 0 54 10q10 6 17 22t7 64v464q0 89 -4 109.5t-12.5 27.5t-23.5 7q-12 0 -38 -9l-8 19l154 64h25z" />
    <glyph glyph-name="i" unicode="i" horiz-adv-x="287" 
d="M138 714q23 0 39.5 -16.5t16.5 -41.5q0 -23 -16.5 -40t-39.5 -17q-24 0 -40.5 17t-16.5 40q0 25 16.5 41.5t40.5 16.5zM205 530v-413q-2 -48 5 -64t21 -24t50 -8v-21h-249v21q38 0 50.5 7t20.5 24t8 65v267l-5 39q-5 18 -13 25t-23 7q-16 0 -38 -8v23l147 60h26z" />
    <glyph glyph-name="j" unicode="j" horiz-adv-x="226" 
d="M129 686q24 0 40.5 -16.5t16.5 -40.5t-16.5 -41t-40.5 -17t-41 17t-17 41t17 40.5t41 16.5zM216 529v-506q0 -132 -55.5 -196.5t-146.5 -64.5q-51 0 -75.5 19t-24.5 38q0 20 13.5 34t32.5 14q15 0 29 -7q10 -4 37.5 -28.5t46.5 -24.5q12 0 25 10t19.5 35t6.5 105v356
q0 85 -5 109q-4 18 -12.5 25.5t-23.5 7.5t-38 -9l-8 21l155 62h24z" />
    <glyph glyph-name="k" unicode="k" horiz-adv-x="535" 
d="M154 798v-512l131 120q42 38 48 48q5 7 5 14q0 11 -9.5 19t-30.5 10v17h224v-17q-46 -2 -77 -15t-67 -47l-132 -121l257 -347q56 -69 75 -88q27 -26 47 -34q14 -6 48 -6v-20l-100 -4q-78 37 -135 90l-284 381v-170q0 -51 7 -66t20 -22t57 -7v-21h-262v21q39 0 59 9
q12 5 18 18q8 20 8 65v468q0 89 -4 109.5t-13 27.5t-23 7q-12 0 -36 -9l-9 19l153 63h25z" />
    <glyph glyph-name="l" unicode="l" horiz-adv-x="193" 
d="M143 1022v-1143q0 -48 6.5 -64t16 -26.5t44.5 -25.5l14 -7q-168 -10 -174 123v928q0 86 -4 106t-13 27.5t-21 7.5q-15 0 -38 -9l-9 20l153 63h25z" />
    <glyph glyph-name="m" unicode="m" horiz-adv-x="826" 
d="M176 421q56 56 66 64q25 22 54.5 33.5t57.5 11.5q48 0 83.5 -27.5t60.5 -81.5q44 68 83.5 88.5t82.5 20.5q41 0 72.5 -20.5t49.5 -69.5q13 -32 13 -102v-357q-1 -78 95 -105l-5 -11q-78 -4 -137 30q-44 45 -46 94v349q0 63 -15 89q-23 36 -71 36q-29 0 -57 -16t-61 -66
v-264q0 -52 6 -65t22 -21.5t56 -8.5v-21h-260v21q42 0 58 9.5t22 30.5q4 9 4 55v221q0 63 -19 91q-39 36 -83 36q-30 0 -60 -17q-46 -24 -72 -55v-276q0 -50 7 -65t21 -22.5t56 -7.5v-21h-255v21q35 0 49.5 7.5t21.5 24t7 63.5v197q0 85 -5 109q-4 18 -12 25t-23 7
q-16 0 -38 -8l-8 21l155 62h24v-109z" />
    <glyph glyph-name="n" unicode="n" horiz-adv-x="549" 
d="M507 -52q-8 -83 87 -111l-4 -10q-78 -5 -137 29q-43 45 -47 95v387q-8 63 -26 91q-28 36 -72 36q-30 0 -60 -17q-46 -24 -72 -55v-276q0 -50 7 -65t21 -22.5t56 -7.5v-21h-255v21q35 0 49.5 7.5t21.5 24t7 63.5v197q0 85 -5 109q-4 18 -12 25t-23 7q-16 0 -38 -8l-8 21
l155 62h24v-109q56 56 66 64q25 22 54.5 33.5t57.5 11.5q48 0 92 -28q52 -32 61 -115v-439z" />
    <glyph glyph-name="o" unicode="o" horiz-adv-x="525" 
d="M272 522q99 0 156 -57q83 -100 83 -188q0 -96 -52 -176q-39 -60 -139 -92q-37 -9 -65 -9q-154 0 -229 165q-16 48 -16 98v8q0 116 91 192q38 24 82 22q34 37 89 37zM197 462v-8q0 -24 34 -38q19 9 30 9q19 0 24 -23q-2 -16 -19 -21l-21 -2q-49 2 -65 51l-3 23v6
q-26 -8 -48 -40q-34 -70 -34 -156q0 -134 77 -208q39 -28 79 -28q78 0 128 62q46 79 46 163v7q-4 101 -54 176q-49 50 -113 57q-59 0 -59 -21z" />
    <glyph glyph-name="p" unicode="p" horiz-adv-x="554" 
d="M-11 463l159 64h21v-120q40 68 80 95t84 27q78 0 130 -60q64 -75 64 -193q0 -133 -78 -221q-62 -71 -157 -71q-41 0 -73 13q-21 8 -50 33l4 -167q0 -52 6 -67t22 -23t58 -8v-21h-281v21h14q31 0 53 12q10 6 16.5 20t14.5 70v495q0 51 -4.5 64t-14.5 20t-26 7
q-14 0 -34 -8zM169 373v-192q0 -62 6 -81q6 -32 37.5 -56.5t76.5 -24.5q57 0 92 43q46 57 46 161q0 117 -52 182q-36 43 -86 43q-27 0 -54 -13q-19 -11 -66 -62z" />
    <glyph glyph-name="q" unicode="q" horiz-adv-x="508" 
d="M463 537v-669q0 -49 6 -63t20.5 -22t55.5 -8v-21h-258v21h10q31 0 48 9q10 5 17 21.5t7 62.5v229q-50 -60 -88 -82.5t-80 -22.5q-74 0 -132.5 67.5t-58.5 181.5q0 132 77.5 214t186.5 82q32 0 59 -9t48 -27q33 16 62 36h20zM369 132v241q0 43 -11 67.5t-38 41t-63 16.5
q-64 0 -108.5 -53.5t-44.5 -161.5q0 -104 46 -158t110 -54q33 0 59 14.5t50 46.5z" />
    <glyph glyph-name="r" unicode="r" horiz-adv-x="390" 
d="M176 529v-115q64 115 132 115q32 0 52 -18.5t20 -43.5q0 -22 -14.5 -37t-35.5 -15q-19 0 -44 19.5t-36 19.5q-10 0 -22 -11q-36 -28 -52 -76v-364q0 -42 10 -64q8 -15 27 -24.5t53 -9.5v-21h-264v21q40 0 59 11q14 9 21 27v418q1 44 -2.5 61t-13.5 25t-24 8q-18 0 -40 -9
l-5 21l155 62h24z" />
    <glyph glyph-name="s" unicode="s" horiz-adv-x="371" 
d="M315 559v-172h-18q-20 54 -53.5 84t-85.5 30q-39 0 -63 -21t-24 -47q0 -31 17 -52q17 -24 105 -108l105 -90q67 -53 67 -144q0 -70 -53 -113t-119 -43q-46 0 -108 17q-18 6 -30 6q-13 0 -19 -35h-18v178h18q15 -66 59 -99.5t100 -33.5q38 0 62.5 23t24.5 55
q0 38 -27.5 64.5t-85 82.5t-140.5 164q-25 30 -25 80q0 63 43.5 105.5t112.5 42.5q30 0 74 -12q29 -8 38 -8t14 4t11 42h18z" />
    <glyph glyph-name="t" unicode="t" horiz-adv-x="317" 
d="M176 986v-467h119v-46h-119v-564q0 -49 14.5 -66.5t36.5 -17.5q18 0 36 11.5t26 33.5h22q-19 -55 -55.5 -82.5t-74.5 -27.5q-25 0 -49.5 14.5t-36.5 40.5t-17 83v575h-80v46h80v300q33 29 49 62q20 30 49 105z" />
    <glyph glyph-name="u" unicode="u" horiz-adv-x="546" 
d="M501 622v-19q-40 -4 -39 -71v-330q0 -88 4.5 -108.5t13.5 -28.5t22 -8q17 0 39 11l8 -20l-154 -53h-26v98q-66 -71 -100 -84.5t-74 -13.5q-57 11 -86 45q-40 57 -41 145v229q-1 37 -9 51t-27 27l-30 1v21h109l46 -33v-311q-4 -63 24 -92q20 -21 60 -19q24 0 55 12.5
t73 55.5v400q14 80 132 95z" />
    <glyph glyph-name="v" unicode="v" horiz-adv-x="574" 
d="M8 514h241v-21h-14q-22 0 -34 -10t-12 -29t12 -47l120 -284l192 391q12 31 12 47q0 8 -4 14q-6 8 -16 11t-38 3v20q141 13 92 -88l-254 -537h-24l-183 435q-13 29 -24 42.5t-28 22.5q-11 5 -38 9v21z" />
    <glyph glyph-name="w" unicode="w" horiz-adv-x="798" 
d="M6 514h216v-21q-30 -2 -39.5 -10t-9.5 -24q0 -18 10 -43l95 -260l97 212q52 59 101 1l92 -213l145 363q11 32 11 49q0 10 -11 18.5t-43 10.5v20q151 8 111 -88l-206 -534h-23l-129 318l-150 -318h-21l-165 421q-16 41 -32 55.5t-49 21.5v21z" />
    <glyph glyph-name="x" unicode="x" horiz-adv-x="574" 
d="M14 514h230v-21q-12 0 -21 -7.5t-9 -20.5t19 -42q7 -9 20 -28l36 -58l42 58q40 56 40 70q0 12 -9.5 20t-30.5 8v21h174v-21q-28 -1 -48 -15q-27 -19 -76 -83l-70 -94l204 -296q47 -68 67 -82t53 -16v-20q-180 11 -229 118l-151 222l-82 -110q-38 -50 -38 -61
q0 -12 12.5 -23t37.5 -12v-21h-168v21q21 2 36 14q22 16 72 82l107 144l-97 141q-42 60 -64.5 75.5t-56.5 15.5v21z" />
    <glyph glyph-name="y" unicode="y" horiz-adv-x="517" 
d="M9 515h200v-20h-10q-20 0 -31 -8.5t-11 -21.5q-1 -22 4 -46l84 -306l149 325q8 17 8 35q0 8 -3 11q-4 5 -12 8t-28 3v20h156v-21q-18 -2 -27.5 -6.5t-21.5 -20.5q-3 -5 -15 -34l-263 -579q-24 -59 -73 -87t-86 -28q-27 0 -45 15.5t-18 34.5t12.5 30t36.5 11q14 0 41 -9
q19 -8 24 -8q14 0 30.5 14t34.5 52l54 138l-113 412q-7 14 -22 34q-13 15 -19 21q-12 5 -36 11v20z" />
    <glyph glyph-name="z" unicode="z" horiz-adv-x="508" 
d="M469 157v-157h-459v21l341 454h-133q-54 0 -88.5 -7t-46.5 -27q-15 -28 -17 -70h-22v142h437l-2 -20l-345 -455h155q58 0 95.5 9.5t50.5 33.5q9 19 15 76h19z" />
    <glyph glyph-name="braceleft" unicode="{" horiz-adv-x="382" 
d="M181 -193q-52 48 -52 180v206q-35 158 -127 177q91 47 127 183v206q0 130 52 180q42 39 164 55q-83 -50 -103 -96t-20 -131v-191q0 -92 -16 -132q-20 -50 -49 -69q28 -22 46.5 -68.5t18.5 -136.5v-191q0 -87 19.5 -131.5t123.5 -82.5q-142 3 -184 42z" />
    <glyph glyph-name="bar" unicode="|" horiz-adv-x="254" 
d="M177 -143h-103v1072h103v-1072z" />
    <glyph glyph-name="braceright" unicode="}" horiz-adv-x="382" 
d="M28 -235q99 38 117.5 81t18.5 130v189q0 88 17.5 134t44.5 68q-28 19 -46 68q-16 40 -16 130v189q0 84 -19 128.5t-98 95.5q117 -16 156 -54q50 -51 50 -179v-202q35 -134 121 -181q-87 -18 -121 -175v-202q0 -131 -50 -179q-39 -39 -175 -41z" />
    <glyph glyph-name="asciitilde" unicode="~" horiz-adv-x="689" 
d="M269 384q46 0 166 -62q43 -16 76 -16q58 0 127 78h7v-7q-93 -117 -183 -117q-43 0 -118 43q-53 21 -101 21h-3q-100 0 -132 -68q-16 -15 -32 -15h-6q-26 19 0 19q16 0 41 51q78 73 158 73zM230 314h13q58 0 148 -59l38 -2h10q74 0 142 44h4v-2q-48 -60 -172 -86l-32 -4
q-96 22 -112 47q-46 21 -86 23l-56 -10v5q40 44 103 44z" />
    <glyph glyph-name="cent" unicode="&#xa2;" horiz-adv-x="556" 
d="M262 138v405q-81 -12 -99 -111q-6 -38 -6 -86.5t6 -86.5q19 -107 99 -121zM322 139q74 16 85 100l89 -6q-13 -103 -102 -147q-31 -15 -72 -19v-82h-60v82q-103 9 -153 86q-44 70 -44 187q0 136 59 206q50 58 138 66v76h60v-76q109 -11 152 -98q13 -27 19 -58l-90 -7
q-7 44 -30 65.5t-51 27.5v-403z" />
    <glyph glyph-name="cent" unicode="&#xc7;" horiz-adv-x="556" 
d="M262 138v405q-81 -12 -99 -111q-6 -38 -6 -86.5t6 -86.5q19 -107 99 -121zM322 139q74 16 85 100l89 -6q-13 -103 -102 -147q-31 -15 -72 -19v-82h-60v82q-103 9 -153 86q-44 70 -44 187q0 136 59 206q50 58 138 66v76h60v-76q109 -11 152 -98q13 -27 19 -58l-90 -7
q-7 44 -30 65.5t-51 27.5v-403z" />
    <glyph glyph-name="sterling" unicode="&#xa3;" horiz-adv-x="556" 
d="M193 395h154v-72h-139q10 -22 10 -43q0 -43 -20.5 -90t-66.5 -97q38 11 70 11q41 0 91 -12q84 -20 114 -20q36 0 94 27l28 -80q-45 -19 -69.5 -25t-49.5 -6q-20 0 -41 4q-13 2 -63 17.5t-65 18.5q-23 4 -46 4q-35 0 -75 -12.5t-72 -33.5l-34 85q47 26 79.5 74t32.5 117
q0 30 -8 61h-96v72h75q-16 55 -20 80t-4 49q0 101 75 159q60 45 146 45q89 0 146 -48.5t71 -136.5l-88 -13q-7 58 -43.5 92t-87.5 34q-54 0 -90 -35t-36 -84q0 -55 28 -142z" />
    <glyph glyph-name="sterling" unicode="&#xc9;" horiz-adv-x="556" 
d="M193 395h154v-72h-139q10 -22 10 -43q0 -43 -20.5 -90t-66.5 -97q38 11 70 11q41 0 91 -12q84 -20 114 -20q36 0 94 27l28 -80q-45 -19 -69.5 -25t-49.5 -6q-20 0 -41 4q-13 2 -63 17.5t-65 18.5q-23 4 -46 4q-35 0 -75 -12.5t-72 -33.5l-34 85q47 26 79.5 74t32.5 117
q0 30 -8 61h-96v72h75q-16 55 -20 80t-4 49q0 101 75 159q60 45 146 45q89 0 146 -48.5t71 -136.5l-88 -13q-7 58 -43.5 92t-87.5 34q-54 0 -90 -35t-36 -84q0 -55 28 -142z" />
    <glyph glyph-name="yen" unicode="&#xa5;" horiz-adv-x="556" 
d="M233 0v159h-202v68h202v69h-202v73h166l-198 347h98l141 -252q24 -43 37 -75q12 26 40 79l134 248h105l-198 -347h166v-73h-201v-69h201v-68h-201v-159h-88z" />
    <glyph glyph-name="brokenbar" unicode="&#xa6;" horiz-adv-x="259" 
d="M89 345v380h81v-380h-81zM89 -212v380h81v-380h-81z" />
    <glyph glyph-name="copyright" unicode="&#xa9;" horiz-adv-x="736" 
d="M370 728q92 0 180.5 -47.5t138 -136t49.5 -185.5q0 -95 -48.5 -183t-136.5 -136.5t-183 -48.5q-96 0 -183.5 48.5t-136.5 136.5t-49 183q0 97 49.5 185.5t138 136t181.5 47.5zM370 667q-78 0 -151.5 -40t-115 -114t-41.5 -154q0 -79 41 -152t114 -114t153 -41
q79 0 152.5 41t114 114t40.5 152q0 80 -41.5 154t-115 114t-150.5 40zM488 300l60 -18q-15 -61 -62.5 -97.5t-115.5 -36.5q-86 0 -139.5 56t-53.5 154q0 65 24.5 112.5t69.5 71.5t103 24q65 0 108 -31t59 -84l-59 -14q-14 36 -42.5 55.5t-67.5 19.5q-56 0 -92.5 -40
t-36.5 -115t34.5 -113t89.5 -38q44 0 77 25t44 69z" />
    <glyph glyph-name="copyright" unicode="&#xe2;" horiz-adv-x="736" 
d="M370 728q92 0 180.5 -47.5t138 -136t49.5 -185.5q0 -95 -48.5 -183t-136.5 -136.5t-183 -48.5q-96 0 -183.5 48.5t-136.5 136.5t-49 183q0 97 49.5 185.5t138 136t181.5 47.5zM370 667q-78 0 -151.5 -40t-115 -114t-41.5 -154q0 -79 41 -152t114 -114t153 -41
q79 0 152.5 41t114 114t40.5 152q0 80 -41.5 154t-115 114t-150.5 40zM488 300l60 -18q-15 -61 -62.5 -97.5t-115.5 -36.5q-86 0 -139.5 56t-53.5 154q0 65 24.5 112.5t69.5 71.5t103 24q65 0 108 -31t59 -84l-59 -14q-14 36 -42.5 55.5t-67.5 19.5q-56 0 -92.5 -40
t-36.5 -115t34.5 -113t89.5 -38q44 0 77 25t44 69z" />
    <glyph glyph-name="guillemotleft" unicode="&#xab;" horiz-adv-x="556" 
d="M432 69l-165 178v31l165 181h82v-15l-165 -182l166 -179v-14h-83zM204 69l-164 178v31l164 181h82v-15l-164 -182l165 -179v-14h-83z" />
    <glyph glyph-name="guillemotleft" unicode="&#xe3;" horiz-adv-x="556" 
d="M432 69l-165 178v31l165 181h82v-15l-165 -182l166 -179v-14h-83zM204 69l-164 178v31l164 181h82v-15l-164 -182l165 -179v-14h-83z" />
    <glyph glyph-name="registered" unicode="&#xae;" horiz-adv-x="736" 
d="M370 728q92 0 180.5 -47.5t138 -136t49.5 -185.5q0 -95 -48.5 -183t-136.5 -136.5t-183 -48.5q-96 0 -183.5 48.5t-136.5 136.5t-49 183q0 97 49.5 185.5t138 136t181.5 47.5zM370 667q-78 0 -151.5 -40t-115 -114t-41.5 -154q0 -79 41 -152t114 -114t153 -41
q79 0 152.5 41t114 114t40.5 152q0 80 -41.5 154t-115 114t-150.5 40zM208 156v396h136q70 0 101.5 -11t50 -38t18.5 -58q0 -44 -31 -76t-83 -36q21 -9 34 -21q24 -23 59 -79l48 -77h-78l-35 62q-42 74 -67 93q-18 13 -51 13h-38v-168h-64zM272 379h78q55 0 75.5 16.5
t20.5 43.5q0 18 -10 32t-27 21t-64 7h-73v-120z" />
    <glyph glyph-name="registered" unicode="&#xe9;" horiz-adv-x="736" 
d="M370 728q92 0 180.5 -47.5t138 -136t49.5 -185.5q0 -95 -48.5 -183t-136.5 -136.5t-183 -48.5q-96 0 -183.5 48.5t-136.5 136.5t-49 183q0 97 49.5 185.5t138 136t181.5 47.5zM370 667q-78 0 -151.5 -40t-115 -114t-41.5 -154q0 -79 41 -152t114 -114t153 -41
q79 0 152.5 41t114 114t40.5 152q0 80 -41.5 154t-115 114t-150.5 40zM208 156v396h136q70 0 101.5 -11t50 -38t18.5 -58q0 -44 -31 -76t-83 -36q21 -9 34 -21q24 -23 59 -79l48 -77h-78l-35 62q-42 74 -67 93q-18 13 -51 13h-38v-168h-64zM272 379h78q55 0 75.5 16.5
t20.5 43.5q0 18 -10 32t-27 21t-64 7h-73v-120z" />
    <glyph glyph-name="degree" unicode="&#xb0;" horiz-adv-x="399" 
d="M339 559q0 -29 -11 -54.5t-30 -44t-44.5 -29.5t-54.5 -11t-54 11t-44.5 29.5t-30.5 44t-11 54.5t11 54.5t30.5 44.5t44.5 29.5t54 10.5t54.5 -10.5t44.5 -29.5t30 -44.5t11 -54.5zM286 559q0 18 -6.5 34t-18.5 28t-27.5 19t-34.5 7q-18 0 -34 -7t-27.5 -19t-18.5 -28
t-7 -34t7 -34t18.5 -28t27.5 -19t34 -7q19 0 34.5 7t27.5 19t18.5 28t6.5 34z" />
    <glyph glyph-name="degree" unicode="&#xea;" horiz-adv-x="399" 
d="M339 559q0 -29 -11 -54.5t-30 -44t-44.5 -29.5t-54.5 -11t-54 11t-44.5 29.5t-30.5 44t-11 54.5t11 54.5t30.5 44.5t44.5 29.5t54 10.5t54.5 -10.5t44.5 -29.5t30 -44.5t11 -54.5zM286 559q0 18 -6.5 34t-18.5 28t-27.5 19t-34.5 7q-18 0 -34 -7t-27.5 -19t-18.5 -28
t-7 -34t7 -34t18.5 -28t27.5 -19t34 -7q19 0 34.5 7t27.5 19t18.5 28t6.5 34z" />
    <glyph glyph-name="paragraph" unicode="&#xb6;" horiz-adv-x="537" 
d="M197 -199v511q-91 4 -144 58.5t-53 139.5q0 94 59 150t172 56h309v-85h-70v-830h-83v830h-109v-830h-81z" />
    <glyph glyph-name="paragraph" unicode="&#xf1;" horiz-adv-x="537" 
d="M197 -199v511q-91 4 -144 58.5t-53 139.5q0 94 59 150t172 56h309v-85h-70v-830h-83v830h-109v-830h-81z" />
    <glyph glyph-name="guillemotright" unicode="&#xbb;" horiz-adv-x="556" 
d="M350 69h-82v14l165 179l-164 182v15h81l165 -181v-31zM123 69h-83v14l165 179l-164 182v15h82l164 -181v-31z" />
    <glyph glyph-name="guillemotright" unicode="&#xf5;" horiz-adv-x="556" 
d="M350 69h-82v14l165 179l-164 182v15h81l165 -181v-31zM123 69h-83v14l165 179l-164 182v15h82l164 -181v-31z" />
    <glyph glyph-name="Odieresis" unicode="&#xd6;" horiz-adv-x="777" 
d="M48 349q0 178 95.5 279t247.5 101q99 0 178.5 -47.5t121.5 -132.5t42 -192q0 -109 -44 -195t-124.5 -130t-174.5 -44q-101 0 -180.5 48.5t-120.5 133t-41 179.5zM146 347q0 -129 69.5 -203.5t174.5 -74.5q107 0 176 75t69 213q0 88 -29.5 153t-86.5 101t-128 36
q-100 0 -172.5 -69t-72.5 -231zM252 760v100h91v-100h-91zM434 760v100h92v-100h-92z" />
    <glyph glyph-name="Odieresis" unicode="&#x2202;" horiz-adv-x="777" 
d="M48 349q0 178 95.5 279t247.5 101q99 0 178.5 -47.5t121.5 -132.5t42 -192q0 -109 -44 -195t-124.5 -130t-174.5 -44q-101 0 -180.5 48.5t-120.5 133t-41 179.5zM146 347q0 -129 69.5 -203.5t174.5 -74.5q107 0 176 75t69 213q0 88 -29.5 153t-86.5 101t-128 36
q-100 0 -172.5 -69t-72.5 -231zM252 760v100h91v-100h-91zM434 760v100h92v-100h-92z" />
    <glyph glyph-name="multiply" unicode="&#xd7;" horiz-adv-x="583" 
d="M69 161l173 173l-172 172l51 50l171 -172l171 171l51 -51l-171 -170l172 -172l-50 -51l-172 172l-174 -173z" />
    <glyph glyph-name="multiply" unicode="&#x2211;" horiz-adv-x="583" 
d="M69 161l173 173l-172 172l51 50l171 -172l171 171l51 -51l-171 -170l172 -172l-50 -51l-172 172l-174 -173z" />
    <glyph glyph-name="Udieresis" unicode="&#xba;" horiz-adv-x="722" 
d="M546 716h95v-414q0 -108 -24.5 -171.5t-88 -103t-167.5 -39.5q-100 0 -164 34.5t-91.5 100t-27.5 179.5v414h95v-413q0 -94 17 -138t59.5 -68t103.5 -24q104 0 148.5 47.5t44.5 182.5v413zM221 760v100h92v-100h-92zM403 760v100h92v-100h-92z" />
    <glyph glyph-name="Udieresis" unicode="&#xdc;" horiz-adv-x="722" 
d="M546 716h95v-414q0 -108 -24.5 -171.5t-88 -103t-167.5 -39.5q-100 0 -164 34.5t-91.5 100t-27.5 179.5v414h95v-413q0 -94 17 -138t59.5 -68t103.5 -24q104 0 148.5 47.5t44.5 182.5v413zM221 760v100h92v-100h-92zM403 760v100h92v-100h-92z" />
    <glyph glyph-name="odieresis" unicode="&#xf6;" horiz-adv-x="556" 
d="M33 259q0 144 80 214q67 57 163 57q107 0 175 -70t68 -193q0 -100 -30 -157.5t-87.5 -89.5t-125.5 -32q-109 0 -176 70t-67 201zM123 259q0 -99 43.5 -148.5t109.5 -49.5t109.5 49.5t43.5 151.5q0 96 -44 146t-109 50q-66 0 -109.5 -49.5t-43.5 -149.5zM139 620v100h92
v-100h-92zM321 620v100h92v-100h-92z" />
    <glyph glyph-name="divide" unicode="&#xf7;" horiz-adv-x="548" 
d="M233 468v89h82v-89h-82zM31 297v71h486v-71h-486zM233 109v89h82v-89h-82z" />
    <glyph glyph-name="divide" unicode="&#x25ca;" horiz-adv-x="548" 
d="M233 468v89h82v-89h-82zM31 297v71h486v-71h-486zM233 109v89h82v-89h-82z" />
    <glyph glyph-name="udieresis" unicode="&#xfc;" horiz-adv-x="556" 
d="M405 0v76q-61 -88 -165 -88q-46 0 -85.5 17.5t-59 44.5t-27.5 65q-5 26 -5 82v322h88v-288q0 -69 5 -93q9 -34 35.5 -54t66.5 -20q39 0 74 20t49.5 55t14.5 102v278h87v-519h-78zM136 620v100h92v-100h-92zM318 620v100h92v-100h-92z" />
    <glyph glyph-name="Amacron" unicode="&#xb7;" horiz-adv-x="666" 
d="M569 0l-79 201h-313l-79 -201h-97l281 688h106l276 -688h-95zM374 501q-8 20 -15 40t-12.5 36t-9 27t-3.5 14q-1 -3 -4.5 -14t-9.5 -27.5t-13 -36.5l-14 -40l-88 -226h257zM468 767h-268v62h268v-62z" />
    <glyph glyph-name="Amacron" unicode="&#x100;" horiz-adv-x="666" 
d="M569 0l-79 201h-313l-79 -201h-97l281 688h106l276 -688h-95zM374 501q-8 20 -15 40t-12.5 36t-9 27t-3.5 14q-1 -3 -4.5 -14t-9.5 -27.5t-13 -36.5l-14 -40l-88 -226h257zM468 767h-268v62h268v-62z" />
    <glyph glyph-name="amacron" unicode="&#x101;" horiz-adv-x="556" 
d="M202 -10q-80 0 -120 42t-40 115q0 53 20 86.5t52 52.5t73 26t83 8l119 2v29q0 33 -7 56t-21 37t-35.5 20.5t-50.5 6.5q-25 0 -45.5 -3.5t-35.5 -13t-24.5 -26t-12.5 -41.5l-92 9q5 31 19 57t39 45t63 29.5t91 10.5q100 0 150.5 -45.5t50.5 -132.5v-227q0 -39 10 -59
t39 -20q7 0 14.5 1t14.5 3v-55q-17 -4 -33.5 -6t-34.5 -2q-25 0 -43 6.5t-29 20t-17 33.5t-7 46h-3q-14 -25 -31 -45.5t-39.5 -35t-51 -22.5t-65.5 -8zM222 56q42 0 73.5 15.5t52 39.5t31 52t10.5 54v44l-97 -2q-32 -1 -61 -5t-51 -16t-35 -34t-13 -58q0 -43 23.5 -66.5
t66.5 -23.5zM406 604h-268v62h268v-62z" />
    <glyph glyph-name="Emacron" unicode="&#x112;" horiz-adv-x="666" 
d="M82 0v688h522v-76h-429v-221h400v-75h-400v-240h449v-76h-542zM478 767h-269v62h269v-62z" />
    <glyph glyph-name="Emacron" unicode="&#x201e;" horiz-adv-x="666" 
d="M82 0v688h522v-76h-429v-221h400v-75h-400v-240h449v-76h-542zM478 767h-269v62h269v-62z" />
    <glyph glyph-name="emacron" unicode="&#x113;" horiz-adv-x="556" 
d="M134 246q0 -42 8.5 -77t26.5 -60t46 -39t67 -14q57 0 91.5 23t46.5 58l77 -22q-8 -22 -23 -44t-40 -40t-62.5 -29.5t-89.5 -11.5q-117 0 -178.5 70t-61.5 208q0 74 18.5 125.5t51 83.5t75.5 46.5t91 14.5q67 0 111.5 -21.5t71.5 -59.5t38.5 -89t11.5 -111v-11h-377z
M420 313q-7 83 -42 121.5t-101 38.5q-22 0 -46 -7t-44.5 -25t-35 -49t-16.5 -79h285zM412 604h-268v62h268v-62z" />
    <glyph glyph-name="emacron" unicode="&#x2030;" horiz-adv-x="556" 
d="M134 246q0 -42 8.5 -77t26.5 -60t46 -39t67 -14q57 0 91.5 23t46.5 58l77 -22q-8 -22 -23 -44t-40 -40t-62.5 -29.5t-89.5 -11.5q-117 0 -178.5 70t-61.5 208q0 74 18.5 125.5t51 83.5t75.5 46.5t91 14.5q67 0 111.5 -21.5t71.5 -59.5t38.5 -89t11.5 -111v-11h-377z
M420 313q-7 83 -42 121.5t-101 38.5q-22 0 -46 -7t-44.5 -25t-35 -49t-16.5 -79h285zM412 604h-268v62h268v-62z" />
    <glyph glyph-name="florin" unicode="&#x192;" horiz-adv-x="556" 
d="M454 641q-8 2 -23 4.5t-30 2.5q-16 0 -27 -4.5t-19 -14.5t-14 -25.5t-10 -37.5l-13 -67h103l-12 -64h-104l-124 -647h-88l124 647h-74l13 64h74l14 74q6 29 15.5 54t27 43.5t44 29t66.5 10.5q15 0 35 -2.5t37 -7.5z" />
    <glyph glyph-name="tilde" unicode="&#x2dc;" horiz-adv-x="333" 
d="M240 586q-20 0 -40.5 9t-39.5 20t-36.5 20.5t-32.5 9.5q-27 0 -40 -15.5t-18 -43.5h-44q2 22 7 45.5t16 42.5t29 31t47 12q22 0 42.5 -9t39.5 -20t35.5 -20t31.5 -9q26 0 39.5 15.5t17.5 42.5h45q-2 -21 -7 -44.5t-15.5 -42.5t-28.5 -31.5t-48 -12.5z" />
    <glyph glyph-name="ka" unicode="&#x1000;" horiz-adv-x="882" 
d="M808 211q0 -87 -62.5 -149t-150.5 -62q-46 0 -80 23q-39 26 -39 69q0 39 41 39q12 0 35.5 -26.5t45.5 -26.5q52 0 91.5 40.5t39.5 92.5q0 57 -41 95t-97 38q-53 0 -95 -35t-42 -86v-24q-2 -4 -2 -16q-18 -121 -133 -168q-6 -2 -15 -2q-40 0 -40 41q0 25 26 35
q84 33 84 111v23q0 51 -42 86t-95 35q-56 0 -97.5 -38t-41.5 -95q0 -97 95 -126q27 -8 27 -36q0 -41 -38 -41q-6 0 -14 3q-67 22 -107.5 76t-40.5 124q0 92 62 152t155 60q112 0 177 -90q64 90 177 90q92 0 154.5 -60.5t62.5 -151.5z" />
    <glyph glyph-name="kha" unicode="&#x1001;" horiz-adv-x="571" 
d="M484 211q0 -92 -61.5 -151.5t-154.5 -59.5q-44 0 -84 16q-85 24 -85 109q0 46 33.5 79.5t80.5 33.5q48 0 81.5 -32.5t33.5 -80.5q0 -15 -7 -36q85 36 85 122q0 57 -41 95t-97 38q-36 0 -64 -18q-25 -7 -38 -24l-5 -7q-54 -67 -109 -67q-23 0 -52 8q0 2 31 26t35 29
q41 59 68 81q64 51 134 51q91 0 153.5 -60.5t62.5 -151.5zM248 125q0 34 -35 34q-36 0 -36 -34q0 -18 31 -33h5q35 0 35 33z" />
    <glyph glyph-name="ga" unicode="&#x1002;" horiz-adv-x="536" 
d="M454 211q0 -159 -128 -190q-10 -3 -17 -3q-31 0 -31 43q0 30 30 37q68 13 68 113q0 57 -41.5 95t-97.5 38t-97.5 -38t-41.5 -95q0 -90 86 -123q27 -10 27 -36q0 -41 -38 -41q-7 0 -15 3q-64 22 -101 76t-37 121q0 91 62.5 151.5t154.5 60.5q93 0 155 -60t62 -152z" />
    <glyph glyph-name="gha" unicode="&#x1003;" horiz-adv-x="960" 
d="M858 211q0 -90 -62.5 -150.5t-154.5 -60.5q-111 0 -177 89q-65 -89 -176 -89q-94 0 -155.5 59.5t-61.5 151.5q0 75 38 113q27 11 37 29q4 4 6 11q0 1 1 4v5q0 35 -55 54q-40 14 -82 14q-36 0 -66 -9q6 12 14 18q49 37 107 37t107 -34q53 -37 53 -94q0 -40 -35 -68
q-47 -30 -47 -80q0 -56 41 -94.5t98 -38.5q53 0 94.5 35t41.5 87v19q0 62 -56 100q-17 13 -17 32q0 42 38 42q11 0 24 -9q72 -51 88 -136q0 -170 140 -170q57 0 98 38.5t41 94.5q0 52 -39.5 92.5t-92.5 40.5q-22 0 -45.5 -25.5t-34.5 -25.5q-42 0 -42 38q0 42 40 68
q34 24 80 24q87 0 149.5 -62t62.5 -150z" />
    <glyph glyph-name="nga" unicode="&#x1004;" horiz-adv-x="501" 
d="M433 132q0 -11 -5 -21q-61 -111 -191 -111q-93 0 -155 59.5t-62 151.5q0 91 62.5 151.5t154.5 60.5q112 0 170 -80q19 -26 19 -60q0 -65 -48 -65q-39 0 -39 41q0 13 9 24q-4 30 -44 48q-31 13 -67 13q-56 0 -97.5 -38t-41.5 -95q0 -56 41.5 -94.5t97.5 -38.5q84 0 122 71
q11 21 33 21q41 0 41 -38z" />
    <glyph glyph-name="ca" unicode="&#x1005;" horiz-adv-x="534" 
d="M454 211q0 -90 -62.5 -150.5t-154.5 -60.5q-93 0 -155 59.5t-62 151.5q0 91 62.5 151.5t154.5 60.5q93 0 155 -60t62 -152zM376 211q0 57 -41.5 95t-97.5 38q-43 0 -78 -23q39 -8 64.5 -39t25.5 -71q0 -38 -26 -69.5t-64 -40.5q38 -23 78 -23q56 0 97.5 38.5t41.5 94.5z
M169 211q0 35 -35 35q-36 0 -36 -35q0 -33 36 -33q35 0 35 33z" />
    <glyph glyph-name="cha" unicode="&#x1006;" horiz-adv-x="938" 
d="M848 211q0 -90 -62.5 -150.5t-154.5 -60.5q-112 0 -177 89q-66 -89 -177 -89q-44 0 -84 16q-37 10 -61 40t-24 69q0 48 33 80.5t81 32.5t81.5 -32.5t33.5 -80.5q0 -15 -7 -36q76 30 84 109v28q-5 51 -45 84.5t-92 33.5q-37 0 -63 -18q-18 -5 -77 -68q-29 -30 -76 -30
q-23 0 -52 8q-4 8 66 55q40 58 69 81q63 51 133 51q111 0 177 -88q64 89 177 89q92 0 154.5 -60.5t62.5 -152.5zM768 211q0 58 -40 95.5t-97 37.5q-53 0 -91.5 -32.5t-45.5 -85.5v-28q5 -51 45 -85t92 -34q56 0 96.5 38t40.5 94zM258 125q0 34 -36 34t-36 -34q0 -18 32 -33
q40 0 40 33z" />
    <glyph glyph-name="ja" unicode="&#x1007;" horiz-adv-x="541" 
d="M513 49q1 -41 -39 -41q-37 0 -40 39q-1 27 -19 49q-8 -3 -9 -3q-28 -19 -63 -19q-49 0 -82.5 32.5t-33.5 80.5q0 46 33 77.5t81 34.5q-41 45 -104 45q-56 0 -97.5 -38t-41.5 -95q0 -47 30 -83t75 -45q30 -7 30 -38q0 -20 -14 -32.5t-35 -6.5q-73 19 -118.5 74.5
t-45.5 130.5q0 91 62.5 151.5t154.5 60.5q93 0 155 -60t62 -152q2 -20 2 -24q0 -17 -1 -21q56 -48 58 -117zM374 200q-11 19 -31 19q-36 0 -36 -32q0 -34 36 -34q13 0 24 9q0 4 3 8q4 15 4 30z" />
    <glyph glyph-name="jha" unicode="&#x1008;" horiz-adv-x="640" 
d="M433 214q0 -89 -60.5 -147t-149.5 -58q-90 0 -149.5 57.5t-59.5 146.5t60.5 147t148.5 58q90 0 150 -57.5t60 -146.5zM357 214q0 54 -39.5 90.5t-94.5 36.5q-41 0 -75 -22q38 -7 62.5 -36.5t24.5 -68.5q0 -37 -25 -67.5t-62 -38.5q34 -22 75 -22q55 0 94.5 37t39.5 91z
M158 214q0 32 -34 32q-35 0 -35 -32q0 -33 35 -33q34 0 34 33zM564 -349q0 -47 -33.5 -81t-80.5 -34h-51q-103 0 -161 50q-62 53 -62 155q0 81 43 158q47 82 118 111q17 7 31 1q-108 -102 -108 -230q0 -72 33 -117q38 -51 106 -51h51q37 0 37 38v737q0 38 38 38q39 0 39 -38
v-737z" />
    <glyph glyph-name="nya" unicode="&#x1009;" horiz-adv-x="513" 
d="M944 -166q-39 -103 -156 -203q-147 -126 -299 -126h-351q-49 0 -83 35t-34 84v498q-1 4 -1 10q0 38 41 38q22 0 33 -21q39 -71 122 -71q57 0 98 38.5t41 94.5q0 57 -41 95t-98 38q-35 0 -67 -13q-40 -18 -44 -48q8 -10 8 -24q0 -41 -38 -41q-22 0 -36 22q-12 18 -12 41
q0 35 19 62q57 80 170 80q87 0 149.5 -57t67.5 -143l1 -24q3 -44 -40 -111q-70 -88 -178 -88q-60 0 -117 33v-409q0 -41 39 -41h325q263 0 481 251z" />
    <glyph glyph-name="nnya" unicode="&#x100a;" horiz-adv-x="877" 
d="M955 -167q-40 -103 -157 -204q-146 -126 -298 -126h-352q-51 0 -84.5 34.5t-33.5 85.5v499q-1 10 0 19q11 29 42 29q21 0 32 -21q39 -71 123 -71q56 0 96 38.5t40 94.5q0 58 -39.5 95.5t-96.5 37.5q-35 0 -68 -15q-39 -18 -44 -46q8 -10 8 -24q0 -41 -39 -41
q-22 0 -35 18.5t-13 42.5q0 35 21 64q57 80 170 80q91 0 153.5 -59.5t62.5 -150.5v-7q0 -55 41 -91.5t98 -36.5q56 0 96.5 38.5t40.5 94.5q0 58 -39.5 95.5t-97.5 37.5q-37 0 -43 -20q-8 -29 -36 -29q-41 0 -41 38q0 43 40 68q35 22 80 22q91 0 153 -60t62 -152t-62 -151.5
t-153 -59.5q-114 0 -179 89q-64 -89 -176 -89q-68 0 -117 33v-410q0 -40 38 -40h325q265 0 482 250z" />
    <glyph glyph-name="tta" unicode="&#x100b;" horiz-adv-x="603" 
d="M798 -318q0 -53 -136 -116q-124 -57 -189 -57q-177 0 -177 133v154q-38 -7 -76 -7q-96 0 -130 34l-14 14q-23 30 -23 67q0 33 15 60q18 35 48 35q8 0 17 -5q40 -20 89 -20q30 0 54 8l9 2q31 5 36 20v12q-38 -16 -84 -16q-93 0 -155 59.5t-62 151.5q0 91 62.5 151.5
t154.5 60.5q72 0 144 -55q35 -42 97 -89q36 -20 81 -23q-35 -35 -78 -35q-65 0 -129 65q-7 10 -19 18q-54 40 -96 40q-56 0 -97.5 -38t-41.5 -95q0 -56 41.5 -94.5t97.5 -38.5q19 0 60 16t56 16q50 0 46 -114q-3 -75 -102 -90q-39 -12 -77 -12q-44 0 -89 15q-1 -15 8 -24
q35 -18 84 -18q18 0 53 4t53 4q47 0 47 -41v-206q7 -55 132 -48q3 -11 102 17q121 32 188 85z" />
    <glyph glyph-name="ttha" unicode="&#x100c;" horiz-adv-x="520" 
d="M426 -362q0 -70 -57 -104q-47 -29 -121 -29q-185 0 -317 149q-11 13 -11 27q155 -102 307 -102q29 0 46 4q75 5 75 51l-2 364q-109 0 -139 5q-83 15 -135 70.5t-52 137.5q0 91 62.5 151.5t154.5 60.5q114 0 170 -80q19 -27 19 -62q0 -63 -47 -63q-40 0 -40 41q0 14 9 24
q-4 28 -44 46q-33 15 -67 15q-56 0 -97.5 -38t-41.5 -95q0 -56 41.5 -94.5t97.5 -38.5q14 0 52 -1q32 -3 50 -1q74 2 87 -69v-369z" />
    <glyph glyph-name="dda" unicode="&#x100d;" horiz-adv-x="519" 
d="M794 -331q-3 -2 -6 -6q-128 -146 -273 -146q-30 -3 -45 -3q-173 0 -173 132v229q-167 0 -201 19q-41 24 -41 90q0 86 55 92q27 2 106 2q57 0 98 38.5t41 94.5q0 57 -41 95t-98 38q-34 0 -67 -15q-39 -18 -44 -46q8 -10 8 -24q0 -41 -39 -41q-47 0 -47 62q0 36 19 63
q57 80 170 80q94 0 155.5 -60t61.5 -152q0 -90 -62.5 -150.5t-154.5 -60.5q-13 0 -42 -1t-43 -1q-4 -7 -4 -16q0 -11 10 -20q44 -13 149 -4q73 5 88 -69l1 -7v-249q9 -50 121 -50q54 0 115 12q102 21 183 74z" />
    <glyph glyph-name="ddha" unicode="&#x100e;" horiz-adv-x="549" 
d="M464 211q0 -90 -63 -150.5t-153 -60.5q-91 0 -154 60.5t-63 150.5q0 75 38 113q44 32 44 49q0 36 -54 54q-40 14 -83 14q-33 0 -66 -9q9 24 53 40q39 15 69 15q57 0 106 -34q53 -37 53 -94q0 -23 -41 -70.5t-41 -77.5q0 -56 41 -94.5t98 -38.5q56 0 97 38.5t41 94.5
q0 57 -75 140q0 42 39 42q9 0 23 -9q91 -56 91 -173z" />
    <glyph glyph-name="nna" unicode="&#x100f;" horiz-adv-x="1065" 
d="M988 211q0 -86 -62.5 -148.5t-149.5 -62.5q-93 0 -118 79q-3 9 -3 14q0 38 41 38q12 0 35 -26.5t47 -26.5q53 0 92 40t39 93q0 57 -41 95t-97 38q-57 0 -97.5 -38t-40.5 -95v-12q0 -10 -2 -19q-27 -180 -128 -180q-60 0 -97 64q-32 57 -32 121v36q0 53 -41 88t-96 35
q-56 0 -97.5 -38t-41.5 -95q0 -52 40 -92.5t92 -40.5q22 0 45.5 26.5t35.5 26.5q41 0 41 -39q0 -41 -38 -66.5t-81 -25.5q-88 0 -150.5 62t-62.5 149q0 91 62.5 151.5t154.5 60.5q104 0 170 -81q40 64 96 64q61 0 96 -66q65 83 172 83q93 0 155 -60t62 -152zM454 211
q0 -8 -2 -11q0 -31 12 -69q17 -53 39 -53q25 0 38 54q12 42 12 71t-12 71q-13 54 -38 54q-24 0 -40 -55q-7 -20 -9 -50v-12z" />
    <glyph glyph-name="ta" unicode="&#x1010;" horiz-adv-x="887" 
d="M808 211q0 -86 -63.5 -148.5t-149.5 -62.5q-46 0 -80 23q-39 26 -39 70q0 38 39 38q13 0 36 -26.5t47 -26.5q53 0 92 40t39 93q0 57 -41 95t-97 38q-53 0 -95 -35t-42 -86v-32q-2 -4 -2 -8q-9 -80 -71.5 -131.5t-143.5 -51.5q-93 0 -155 59.5t-62 151.5q0 91 62.5 151.5
t154.5 60.5q112 0 177 -90q64 90 177 90q93 0 155 -60t62 -152zM374 200v23q0 51 -42 86t-95 35q-56 0 -97.5 -38t-41.5 -95q0 -56 41.5 -94.5t97.5 -38.5q53 0 95 35t42 87z" />
    <glyph glyph-name="tha" unicode="&#x1011;" horiz-adv-x="882" 
d="M808 211q0 -90 -62.5 -150.5t-154.5 -60.5q-112 0 -177 89q-65 -89 -177 -89q-93 0 -155 59.5t-62 151.5q0 91 62.5 151.5t154.5 60.5q115 0 177 -90q64 90 177 90q93 0 155 -60t62 -152zM729 211q0 57 -41 95t-97 38q-57 0 -97 -38t-40 -95t39.5 -95t97.5 -38
q56 0 97 38.5t41 94.5zM376 211q0 57 -41.5 95t-97.5 38t-97.5 -38t-41.5 -95q0 -56 41.5 -94.5t97.5 -38.5t97.5 38.5t41.5 94.5z" />
    <glyph glyph-name="da" unicode="&#x1012;" horiz-adv-x="501" 
d="M404 122q-16 -122 -188 -122q-129 0 -190 113q-6 9 -6 20q0 37 41 37q22 0 33 -21q39 -71 122 -71q100 0 110 48q0 50 -80 47q-42 -2 -42 38q0 39 40 40q45 2 56 5q26 10 24 40q-23 48 -108 48q-33 0 -67 -15q-41 -18 -44 -45l-1 2q14 -16 14 -30q0 -33 -44 -33
q-54 0 -47 68q2 28 19 52q57 80 170 80q62 0 110 -25q56 -29 74 -81l1 -8q2 -8 2 -23q0 -46 -30 -76q33 -32 31 -88z" />
    <glyph glyph-name="dha" unicode="&#x1013;" horiz-adv-x="542" 
d="M454 213q0 -92 -62.5 -152.5t-154.5 -60.5q-91 0 -154 61t-63 152q0 90 62.5 150.5t154.5 60.5q93 0 155 -60t62 -151zM376 213q0 56 -41.5 94.5t-97.5 38.5t-97.5 -38.5t-41.5 -94.5q0 -32 15 -59q10 41 45.5 68.5t78.5 27.5q44 0 79 -27t44 -69q16 27 16 59zM285 125
q0 45 -48 45t-48 -45q0 -47 48 -47q19 0 33.5 14t14.5 33zM232 81q-14 -3 -15 -3q-3 0 -15 3h8q3 -2 7 -2q6 0 8 2h7z" />
    <glyph glyph-name="na" unicode="&#x1014;" horiz-adv-x="501" 
d="M412 134q12 -121 -156 -134v-446q0 -40 -38 -40q-40 0 -40 40v445q-114 2 -147 77l-1 7q-7 23 -7 39q0 48 33 80t81 32q47 0 80.5 -32.5t33.5 -79.5q0 -23 -8 -44q88 -4 88 39q0 47 -195 164q-3 2 -11 10q-31 30 -31 70q0 41 29 65t71 24q93 -1 101 -87q4 -44 -40 -44
q-18 0 -35.5 26t-25.5 27q-14 -1 -20 -7q-3 -12 17 -32q120 -77 131 -85q84 -63 90 -114zM173 122q0 33 -36 33t-36 -33q0 -34 36 -34t36 34z" />
    <glyph glyph-name="pa" unicode="&#x1015;" horiz-adv-x="540" 
d="M454 211q0 -90 -62.5 -150.5t-154.5 -60.5q-93 0 -155 59.5t-62 151.5q0 124 86 183q13 8 24 8q39 0 39 -41q0 -19 -17 -32q-54 -36 -54 -118q0 -56 41.5 -94.5t97.5 -38.5t97.5 38.5t41.5 94.5q0 97 -52 114q-17 7 -38.5 -7t-27.5 -15q-17 0 -29.5 12.5t-12.5 28.5
q0 14 11 27q33 35 84 35q82 0 122 -90q21 -47 21 -105z" />
    <glyph glyph-name="pha" unicode="&#x1016;" horiz-adv-x="532" 
d="M454 211q0 -90 -62.5 -150.5t-154.5 -60.5q-93 0 -155 59.5t-62 151.5q0 124 86 183q13 8 24 8q39 0 39 -41q0 -19 -17 -32q-54 -36 -54 -118q0 -56 41.5 -94.5t97.5 -38.5q52 0 92.5 35t44.5 87q-30 -20 -65 -20q-46 0 -79.5 33t-33.5 80q0 46 35 79.5t82 33.5
q76 0 116 -82q25 -52 25 -113zM345 293q0 33 -36 33q-9 0 -20 -7l-8 -8q-7 -10 -7 -18q0 -34 35 -34q36 0 36 34z" />
    <glyph glyph-name="ba" unicode="&#x1017;" horiz-adv-x="535" 
d="M454 211q0 -90 -62.5 -150.5t-154.5 -60.5q-93 0 -155 59.5t-62 151.5q0 120 100 178q11 13 31 13q17 0 29.5 -15t8.5 -33q11 -36 48 -36q42 0 48 39q-2 4 1 16q6 29 38 29q20 0 29 -13q101 -61 101 -178zM376 211q0 45 -32 85q-40 -56 -107 -56q-68 0 -107 56
q-32 -35 -32 -85q0 -56 41.5 -94.5t97.5 -38.5t97.5 38.5t41.5 94.5z" />
    <glyph glyph-name="bha" unicode="&#x1018;" horiz-adv-x="868" 
d="M788 211q0 -86 -63 -148.5t-149 -62.5q-45 0 -80 23q-40 26 -40 70q0 38 40 38q12 0 35.5 -26.5t46.5 -26.5q54 0 93 40t39 93q0 57 -41 95t-98 38q-56 0 -97 -38t-41 -95q0 -90 -62.5 -150.5t-154.5 -60.5q-129 0 -190 113q-6 9 -6 20q0 37 41 37q22 0 33 -21
q39 -71 122 -71q57 0 98 38.5t41 94.5q0 57 -41 95t-98 38q-35 0 -67 -13q-40 -18 -44 -48q8 -10 8 -24q0 -41 -38 -41q-22 0 -36 22q-12 18 -12 41q0 35 19 62q57 80 170 80q115 0 177 -90q65 90 178 90q94 0 155.5 -60t61.5 -152z" />
    <glyph glyph-name="ma" unicode="&#x1019;" horiz-adv-x="535" 
d="M452 211q0 -92 -61.5 -151.5t-153.5 -59.5t-155 59.5t-63 151.5q0 124 86 183q13 8 23 8q40 0 40 -41q0 -19 -17 -32q-53 -35 -53 -118q0 -28 13 -56q11 44 45 72t80 28q45 0 79.5 -27.5t44.5 -72.5q14 26 14 56q0 97 -51 114q-17 7 -38.5 -7t-27.5 -15q-16 0 -28 12.5
t-12 27.5t10 28q33 35 84 35q82 0 121 -90q20 -48 20 -105zM285 128q0 20 -14 34.5t-35 14.5t-35 -14.5t-14 -34.5q0 -21 14 -35.5t35 -14.5t35 14.5t14 35.5z" />
    <glyph glyph-name="ya" unicode="&#x101a;" horiz-adv-x="882" 
d="M810 211q0 -90 -62 -150.5t-154 -60.5q-113 0 -179 91q-66 -91 -178 -91q-93 0 -155 59.5t-62 151.5q0 124 86 183q13 8 24 8q39 0 39 -41q0 -19 -17 -32q-54 -36 -54 -118q0 -56 41.5 -94.5t97.5 -38.5t97.5 38.5t41.5 94.5q0 97 -52 114q-17 7 -38.5 -7t-27.5 -15
q-17 0 -29.5 12.5t-12.5 28.5q0 14 11 27q33 35 84 35q125 0 143 -181q1 -2 1 -14q0 -56 41.5 -94.5t97.5 -38.5t96.5 38.5t40.5 94.5q0 55 -38.5 94t-93.5 39q-22 0 -44.5 -25.5t-35.5 -25.5q-41 0 -41 38q0 42 40 68q35 24 80 24q88 0 150 -62t62 -150z" />
    <glyph glyph-name="ra" unicode="&#x101b;" horiz-adv-x="542" 
d="M873 -329l-8 -11q-71 -79 -141 -112q-76 -38 -176 -38q-174 0 -174 133l2 568q0 58 -41 95.5t-98 37.5q-56 0 -97.5 -38t-41.5 -95q0 -23 10 -47q33 61 101 61q47 0 80.5 -33t33.5 -79q0 -49 -32.5 -81t-81.5 -32q-35 0 -63 19q-57 25 -91.5 77t-34.5 115
q0 91 62.5 151.5t154.5 60.5t154.5 -60.5t62.5 -152.5v-581q5 -38 84 -41q235 -9 335 83zM245 113q0 33 -36 33q-35 0 -35 -33q0 -29 42 -34q29 7 29 34z" />
    <glyph glyph-name="la" unicode="&#x101c;" horiz-adv-x="884" 
d="M808 207q0 -90 -62.5 -150.5t-154.5 -60.5q-93 0 -155 59.5t-62 151.5q0 7 2 9q-2 56 -42.5 92t-96.5 36t-97.5 -38t-41.5 -95q0 -23 11 -52q30 67 105 67q47 0 81 -32t34 -80q0 -44 -29 -75.5t-73 -35.5q-12 -3 -16 -2h-7q-81 10 -132.5 69t-51.5 141q0 91 62.5 151.5
t154.5 60.5t154.5 -60.5t62.5 -152.5v-10q0 -53 41 -89.5t96 -36.5q56 0 97 38.5t41 94.5q0 52 -39.5 92.5t-91.5 40.5q-22 0 -45.5 -26t-35.5 -26q-43 0 -43 38q0 5 3 13q24 80 119 80q87 0 149.5 -62.5t62.5 -149.5zM249 114q0 33 -35 33q-36 0 -36 -33q0 -35 34 -35
q37 0 37 35z" />
    <glyph glyph-name="wa" unicode="&#x101d;" horiz-adv-x="525" 
d="M454 211q0 -90 -62.5 -150.5t-154.5 -60.5q-93 0 -155 59.5t-62 151.5q0 91 62.5 151.5t154.5 60.5q93 0 155 -60t62 -152zM376 211q0 57 -41.5 95t-97.5 38t-97.5 -38t-41.5 -95q0 -56 41.5 -94.5t97.5 -38.5t97.5 38.5t41.5 94.5z" />
    <glyph glyph-name="sa" unicode="&#x101e;" horiz-adv-x="878" 
d="M788 211q0 -90 -62.5 -150.5t-154.5 -60.5q-112 0 -178 91q-63 -91 -177 -91q-130 0 -190 113q-6 9 -6 19q0 38 41 38q22 0 33 -21q39 -71 122 -71q57 0 98 38.5t41 94.5q0 57 -41 95t-98 38q-34 0 -67 -15q-40 -18 -44 -46q9 -10 9 -24q0 -16 -12 -28.5t-28 -12.5
q-14 0 -25 11q-23 19 -23 51q0 34 20 63q58 80 170 80q93 0 155 -60t62 -152q0 -56 41 -94.5t97 -38.5q57 0 98 38.5t41 94.5q0 54 -39.5 94.5t-93.5 40.5q-22 0 -44.5 -26.5t-34.5 -26.5q-42 0 -42 38q0 43 40 70q35 23 81 23q86 0 148.5 -63t62.5 -150z" />
    <glyph glyph-name="ha" unicode="&#x101f;" horiz-adv-x="889" 
d="M808 209q0 -87 -63.5 -149t-149.5 -62q-94 0 -118 79q-3 8 -3 14q0 38 41 38q14 0 37.5 -26.5t43.5 -26.5q54 0 93.5 39.5t39.5 93.5q0 56 -41 94.5t-97 38.5q-53 0 -93 -33q-44 -36 -44 -88v-10q0 -90 -62.5 -150.5t-154.5 -60.5q-93 0 -155 59.5t-62 151.5
q0 124 86 183q13 8 24 8q39 0 39 -41q0 -19 -17 -32q-54 -36 -54 -118q0 -56 41.5 -94.5t97.5 -38.5q55 0 95.5 35.5t41.5 89.5q3 105 -50 122q-16 6 -40 -8t-26 -14q-17 0 -29.5 12.5t-12.5 28.5q0 14 11 27q33 35 82 35q74 0 112 -67q64 82 170 82q92 0 154.5 -60
t62.5 -152z" />
    <glyph glyph-name="lla" unicode="&#x1020;" horiz-adv-x="501" 
d="M583 -332q-3 -7 -9 -14q-130 -145 -273 -145q-22 -4 -48 -4q-72 0 -119 29q-56 34 -56 102l1 254q15 73 88 68q104 -9 149 5q10 10 10 21q0 7 -4 14q-84 0 -126 8q-78 15 -127 71t-49 134q0 91 62.5 151.5t154.5 60.5q112 0 170 -80q19 -26 19 -60q0 -65 -48 -65
q-15 0 -27 12.5t-12 27.5t9 25q-4 30 -44 48q-31 13 -67 13q-56 0 -97.5 -38t-41.5 -95q0 -56 41.5 -94.5t97.5 -38.5h53q39 0 54 -1q59 -6 59 -86q0 -62 -40 -94q-39 -22 -126 -22q-36 0 -77 4l-4 -244q0 -2 2 -8q5 -37 73 -44q23 -7 61 -7q137 0 291 92z" />
    <glyph glyph-name="a.let" unicode="&#x1021;" horiz-adv-x="833" 
d="M746 211q0 -132 -123 -190q-28 -20 -65 -20h-7q-19 0 -26 5q-81 24 -81 107q0 48 33 80t81 32q71 0 101 -59q9 21 9 45q0 57 -41.5 95t-97.5 38q-95 0 -129 -86l-2 -7q-6 -22 -25 -41q36 -34 31 -88q-13 -122 -188 -122q-129 0 -190 113q-6 9 -6 20q0 37 41 37
q22 0 33 -21q39 -71 122 -71q99 0 110 48q0 50 -80 47q-42 -2 -42 38q0 39 40 40q23 2 37 3q47 7 43 42q-23 48 -108 48q-33 0 -67 -15q-41 -18 -44 -45q13 -14 13 -28q0 -33 -43 -33q-54 0 -48 68q2 27 19 52q55 80 170 80q106 0 159 -62q65 62 154 62q94 0 155.5 -60
t61.5 -152zM593 113q0 34 -35 34q-36 0 -36 -34q0 -27 29 -34q42 10 42 34z" />
    <glyph glyph-name="shan.a" unicode="&#x1022;" horiz-adv-x="909" 
d="M424 325q14 22 33.5 40.5t43 31.5t50.5 20t56 7q30 0 58 -7.5t52.5 -22t44.5 -34.5t34 -44t22 -52t8 -58q0 -46 -17 -85.5t-47 -69.5t-70 -47t-85 -17q-16 0 -27 5.5t-17 13t-7 16.5t4.5 17t17 13.5t29.5 5.5q31 0 58 11.5t47 31.5t31.5 47t11.5 58q0 30 -11.5 57
t-31.5 47t-47 31.5t-58 11.5q-30 0 -56.5 -11t-46.5 -30.5t-32 -45.5t-13 -56v-2.5v-3.5q0 -36 -7.5 -67t-22 -57t-34.5 -47t-45 -37q-10 -6 -19.5 -6t-17 4.5t-12.5 12t-6 16.5t3 17.5t14 14.5q17 12 31 26.5t24 33t15.5 41t5.5 50.5q0 30 -11.5 57t-31.5 47t-47 31.5
t-58 11.5q-30 0 -57 -11.5t-47 -31t-32 -46.5t-12 -57q0 -10 4.5 -14t12.5 -8q18 -8 36 -15t32 -17.5t23 -27t9 -43.5q0 -32 -15 -53.5t-38.5 -31.5t-53.5 -8t-59 16q-10 5 -16 12.5t-7 16.5t2 16.5t9 12.5t14.5 6t18.5 -5q16 -8 28 -10.5t20.5 -1.5t13.5 5t8 9.5t4 9.5t1 6
q0 9 -4.5 14t-11.5 8q-19 7 -36.5 14t-31.5 17t-23 25t-10 41v5v0v1v1q0 45 17.5 84.5t47 69t69 46t84.5 16.5q29 0 56 -7t50.5 -20t43 -31.5t34.5 -40.5z" />
    <glyph glyph-name="i.let" unicode="&#x1023;" horiz-adv-x="891" 
d="M808 211q0 -86 -63.5 -148.5t-149.5 -62.5q-45 0 -80 23q-39 26 -39 69q0 39 41 39q11 0 34.5 -26.5t46.5 -26.5q53 0 92.5 40t39.5 93q0 57 -41.5 95t-97.5 38q-55 0 -95.5 -34t-41.5 -87l-2 -40q-17 -121 -132 -168q-7 -2 -16 -2q-39 0 -39 41q0 25 25 35q88 35 84 134
q-3 51 -43.5 86t-93.5 35q-56 0 -97.5 -38t-41.5 -95q0 -97 95 -126q27 -8 27 -36q0 -41 -38 -41q-6 0 -14 3q-67 22 -107.5 76t-40.5 124q0 91 62.5 151.5t154.5 60.5q113 0 177 -90q64 90 177 90q93 0 155 -60t62 -152zM808 -219q0 -28 -32.5 -88t-32.5 -73q0 -29 25 -59
q10 -12 10 -27q0 -40 -38 -40q-16 0 -29 15q-51 60 -51 115q0 30 34 92t34 65q0 57 -40 95t-97 38q-58 0 -98.5 -37.5t-40.5 -94.5q0 -11 -1 -14q-4 -74 -48 -74q-40 0 -40 33q0 10 4 27t4 27q0 57 -39.5 95t-97.5 38q-54 0 -94 -35q-44 -36 -37 -90l7 -55q0 -33 -38 -33
q-27 0 -39 22q-13 14 -15 61q-6 92 58.5 150t157.5 58q112 0 179 -91q65 91 178 91q93 0 155 -59.5t62 -151.5z" />
    <glyph glyph-name="ii.let" unicode="&#x1024;" horiz-adv-x="1078" 
d="M1573 508q-104 116 -294 218q-71 38 -196 63q-108 22 -207 25q-291 8 -291 -150q0 -120 101 -145q7 0 9 -1q107 -16 181 -72q89 -66 89 -165l2 -597q0 -12 5 -78q7 -82 12 -98q-97 0 -97 180v589q0 70 -63 119q-53 43 -129 57q-85 6 -136.5 65.5t-51.5 145.5
q0 126 118 184q89 44 231 44q232 0 373 -76q247 -132 340 -295q4 -7 4 -13zM808 -328q0 -12 -6 -31q-39 -140 -188 -140h-426q-57 0 -101 43.5t-44 99.5q0 75 78 146q7 7 40 22q70 33 139 33q113 0 192 -86q11 -13 11 -26q0 -42 -40 -42q-16 0 -29 14q-55 62 -138 62
q-63 0 -123 -37q-50 -48 -50 -88q0 -26 19 -44.5t46 -18.5h429q96 0 112 96v536q0 57 -41 95t-97 38q-52 0 -94.5 -35.5t-42.5 -85.5v-28q-2 -7 -2 -12q-18 -121 -133 -168q-6 -2 -16 -2q-37 0 -37 39q0 26 24 36q84 33 84 112v23q0 51 -42 86t-95 35q-56 0 -97.5 -38
t-41.5 -95q0 -97 95 -126q27 -8 27 -36q0 -42 -38 -42q-6 0 -14 2q-67 22 -107.5 77t-40.5 125q0 91 62.5 151.5t154.5 60.5q111 0 177 -90q65 90 177 90q93 0 155 -60t62 -152v-539z" />
    <glyph glyph-name="u.let" unicode="&#x1025;" horiz-adv-x="513" 
d="M666 -231q0 -2 -53 -51l-65 -60q-57 -61 -135 -102q-87 -47 -162 -47q-31 -3 -47 -3q-177 0 -177 132v370q16 69 86 69h53q7 1 31 1h19q57 0 98 38.5t41 94.5q0 57 -41 95t-98 38q-35 0 -67 -13q-39 -18 -44 -48q8 -10 8 -24q0 -40 -38 -40q-48 0 -48 64q0 33 19 60
q57 80 170 80q92 0 154.5 -60.5t62.5 -151.5q0 -92 -61.5 -150t-155.5 -61l-110 -2l-1 -363q0 -49 76 -51q12 -4 77 6q232 36 408 179z" />
    <glyph glyph-name="uu.let" unicode="&#x1026;" horiz-adv-x="596" 
d="M726 -231q0 -2 -53 -51l-65 -60q-57 -61 -135 -102q-87 -47 -162 -47q-31 -3 -47 -3q-177 0 -177 132v370q16 69 86 69h53q7 1 31 1h19q57 0 98 38.5t41 94.5q0 57 -41 95t-98 38q-35 0 -67 -13q-40 -18 -44 -48q8 -10 8 -24q0 -40 -38 -40q-48 0 -48 64q0 33 19 60
q57 80 170 80q92 0 154.5 -60.5t62.5 -151.5q0 -92 -62 -150t-155 -61l-110 -2l-1 -363q0 -49 76 -51q12 -4 77 6q231 36 408 179zM676 466q-55 60 -147 110q-12 7 -33 13q-26 -76 -93 -121t-149 -45q-108 0 -182 70.5t-74 179.5q0 108 74 178.5t182 70.5q109 0 183 -70.5
t74 -178.5q0 -23 -5 -52q123 -67 168 -148q2 -1 2 -7zM432 673q0 72 -52.5 121.5t-125.5 49.5q-72 0 -124.5 -49.5t-52.5 -121.5q0 -65 44 -113q10 100 185 100q64 0 124 -14q2 7 2 27zM403 600q-11 2 -79 3q-127 4 -127 -76q0 -2 -1 -4v-5q27 -11 60 -11q104 0 147 93z" />
    <glyph glyph-name="e.let" unicode="&#x1027;" horiz-adv-x="519" 
d="M443 288q-27 -54 -85 -71q48 -36 48 -92q0 -85 -85 -109q-39 -16 -84 -16q-93 0 -155 59.5t-62 151.5q0 91 62.5 151.5t154.5 60.5q64 0 133 -51q31 -23 73 -84zM344 295l-6 7q-10 12 -38 24q-15 10 -33 14q3 -49 55 -49q12 0 22 4zM328 125q0 34 -36 34t-36 -34
q0 -33 36 -33h4q32 15 32 33zM253 231q-62 37 -64 105q-91 -33 -91 -125q0 -86 85 -122q-7 21 -7 36q0 78 77 106z" />
    <glyph glyph-name="mon.e" unicode="&#x1028;" horiz-adv-x="575" 
d="M468 55l9 128q6 97 -65 170q-64 65 -168 65t-170 -65t-66 -170v-347q0 -104 66 -170t170 -66q58 0 83 9q39 14 83 59q67 68 67 172h-70q-1 -75 -45 -121.5t-118 -46.5q-71 0 -118.5 46.5t-47.5 117.5v347q0 71 47.5 118t118.5 47q62 0 105.5 -38t56.5 -98
q2 -106 -13 -147q-12 -35 -51 -56l-32 -10l-37 5l28 51l19 38q22 47 22 81q0 44 -36 73q-26 21 -62 21q-57 0 -87 -38q-18 -24 -22 -50q-11 -25 5 -70l61 28q-2 11 -2 20q0 17 6 24q1 0 12 9q9 6 18 6t26 -12q7 -6 11 -19.5t2 -19.5q-13 -30 -33 -62.5t-29.5 -53t-9.5 -36.5
q0 -59 149 -54q54 19 87 63q8 9 30 52z" />
    <glyph glyph-name="o.let" unicode="&#x1029;" horiz-adv-x="1023" 
d="M1180 599q-203 252 -449 252h-607q-37 0 -37 -42v-1150q0 -41 37 -41h640q37 0 37 41v341q0 39 37 39q36 0 36 -39v-341q0 -49 -32 -84t-78 -35h-640q-47 0 -78.5 34.5t-31.5 84.5v1150q0 50 32 85t78 35h631q142 0 279 -126q109 -100 146 -204zM890 209
q0 -90 -62.5 -150.5t-154.5 -60.5q-113 0 -178 91q-63 -91 -177 -91q-131 0 -191 113q-5 9 -5 19q0 38 41 38q22 0 32 -20q39 -72 123 -72q56 0 97.5 38.5t41.5 94.5q0 57 -41.5 95.5t-97.5 38.5q-35 0 -68 -15q-39 -19 -43 -47q9 -10 9 -23q0 -17 -12 -29.5t-29 -12.5
q-13 0 -25 12q-23 18 -23 50q0 35 21 63q57 80 170 80q93 0 155 -60t62 -152q0 -56 41 -94.5t97 -38.5t97.5 38.5t41.5 94.5q0 54 -40 94.5t-94 40.5q-21 0 -43.5 -26.5t-35.5 -26.5q-41 0 -41 38q0 44 40 70q34 23 80 23q87 0 149.5 -63t62.5 -150z" />
    <glyph glyph-name="au.let" unicode="&#x102a;" horiz-adv-x="2426" 
d="M1754 599q-218 252 -482 252h-650q-40 0 -40 -42v-1150q0 -41 40 -41h686q40 0 40 41v341q0 39 40 39q38 0 38 -39v-341q0 -49 -34.5 -84t-83.5 -35h-686q-51 0 -84.5 34.5t-33.5 84.5v1150q0 50 34.5 85t83.5 35h676q153 0 300 -126q116 -100 156 -204zM1369 209
q0 -90 -62.5 -150.5t-153.5 -60.5q-113 0 -179 91q-63 -91 -176 -91q-131 0 -191 113q-6 9 -6 19q0 38 42 38q21 0 32 -20q39 -72 123 -72q56 0 97 38.5t41 94.5q0 57 -41 95.5t-97 38.5q-35 0 -68 -15q-39 -19 -44 -47q10 -10 10 -23q0 -17 -12.5 -29.5t-28.5 -12.5
q-14 0 -25 12q-23 18 -23 50q0 35 21 63q57 80 170 80q93 0 154.5 -60t61.5 -152q0 -56 41 -94.5t98 -38.5q56 0 97 38.5t41 94.5q0 54 -39.5 94.5t-93.5 40.5q-22 0 -44.5 -26.5t-34.5 -26.5q-41 0 -41 38q0 44 40 70q34 23 80 23q86 0 148.5 -63t62.5 -150zM484 236
q-28 -8 -52 -8q-54 0 -108 67l-6 7q-14 17 -38 24q-27 18 -63 18q-56 0 -97.5 -38t-41.5 -95q0 -86 85 -122q-7 21 -7 36q0 48 34 80.5t82 32.5q46 0 80 -33.5t34 -79.5q0 -85 -85 -109q-39 -16 -84 -16q-93 0 -155 59.5t-62 151.5q0 91 62.5 151.5t154.5 60.5q70 0 133 -51
q28 -22 69 -81q4 -5 34.5 -29t30.5 -26zM308 125q0 34 -36 34t-36 -34q0 -33 36 -33h4q32 15 32 33zM1698 211q0 -80 -51 -142q-54 -66 -133 -66q-86 0 -111 82q-3 9 -3 14q0 37 41 37q17 0 38 -26.5t37 -26.5q47 0 76 42q26 37 26 86q0 58 -40 95.5t-97 37.5
q-87 0 -127 -78q-13 -26 -34 -26q-36 0 -36 40q0 7 4 15q42 128 193 128q93 0 155 -60t62 -152zM2374 475q-107 118 -293 216q-73 39 -197 63q-110 23 -207 25q-291 7 -291 -148q0 -135 128 -152q44 -6 73 22t26 73q3 1 8 1q18 0 33.5 -18.5t15.5 -37.5q0 -5 -2 -13
q-30 -87 -159 -87q-90 0 -145.5 60t-55.5 152q0 128 120 185q87 43 230 43q232 0 371 -75q248 -133 341 -295q4 -7 4 -14z" />
    <glyph glyph-name="aa.vow.alt.dot" unicode="&#x102b;" horiz-adv-x="190" 
d="M125 806q0 -43 -37 -97v-668q0 -40 -38 -40q-40 0 -40 40v682q0 8 10.5 27t10.5 26q0 18 -30 37q-53 13 -81 20q-227 -10 -227 -150q0 -134 127 -150q34 -5 63 11.5t29 51.5q0 23 -14 46q2 2 11 2q26 0 47 -19t21 -44q0 -10 -4 -21q-34 -88 -158 -88q-90 0 -145.5 59.5
t-55.5 151.5q0 124 113 183q86 45 221 47q68 0 114 -21q63 -28 63 -86z" />
    <glyph glyph-name="aa.vow.dot" unicode="&#x102c;" horiz-adv-x="386" 
d="M299 211q0 -80 -53 -142q-56 -66 -138 -66q-90 0 -116 82q-3 9 -3 14q0 37 43 37q17 0 39.5 -26.5t38.5 -26.5q49 0 79 42q27 37 27 86q0 58 -41.5 95.5t-101.5 37.5q-89 0 -131 -78q-14 -26 -36 -26q-37 0 -37 40q0 7 3 15q45 128 201 128q97 0 161.5 -60t64.5 -152z
" />
    <glyph glyph-name="i.vow.dot" unicode="&#x102d;" horiz-adv-x="2" 
d="M-28 673q0 -108 -74.5 -179t-182.5 -71t-182 70.5t-74 179.5t73.5 179t182.5 70t183 -70.5t74 -178.5zM-107 673q0 72 -52.5 121.5t-125.5 49.5q-75 0 -126.5 -48t-51.5 -123q0 -76 51.5 -124t126.5 -48q73 0 125.5 49t52.5 123z" />
    <glyph glyph-name="ii.vow.dot" unicode="&#x102e;" horiz-adv-x="2" 
d="M137 466q-55 60 -147 110q-12 7 -33 13q-26 -76 -93 -121t-149 -45q-108 0 -182 70.5t-74 179.5q0 108 74 178.5t182 70.5q109 0 183 -70.5t74 -178.5q0 -23 -5 -52q123 -67 168 -148q2 -1 2 -7zM-107 673q0 72 -52.5 121.5t-125.5 49.5q-72 0 -124.5 -49.5t-52.5 -121.5
q0 -65 44 -113q10 100 185 100q64 0 124 -14q2 7 2 27zM-136 600q-11 2 -79 3q-127 4 -127 -76q0 -2 -1 -4v-5q27 -11 60 -11q104 0 147 93z" />
    <glyph glyph-name="u.vow.dot" unicode="&#x102f;" horiz-adv-x="2" 
d="M167 -318l-8 -12q-136 -161 -328 -161q-165 0 -165 158l2 339q82 -24 81 -97l-3 -258q0 -9 1 -14q7 -41 99 -46q216 -8 321 91z" />
    <glyph glyph-name="uu.vow.dot" unicode="&#x1030;" horiz-adv-x="2" 
d="M214 -318q-1 -4 -7 -12q-129 -153 -273 -157q-31 -4 -56 -4q-165 0 -165 158l2 339q81 -25 81 -98l-2 -271q6 -40 84 -44q236 -9 336 89zM-293 -492q-113 16 -113 144v349q79 -24 79 -108l-1 -242q-1 -122 35 -143z" />
    <glyph glyph-name="e.vow.dot" unicode="&#x1031;" horiz-adv-x="555" 
d="M504 236q-28 -8 -52 -8q-54 0 -108 67l-6 7q-14 17 -38 24q-27 18 -63 18q-56 0 -97.5 -38t-41.5 -95q0 -86 85 -122q-7 21 -7 36q0 48 34 80.5t82 32.5q46 0 80 -33.5t34 -79.5q0 -85 -85 -109q-39 -16 -84 -16q-93 0 -155 59.5t-62 151.5q0 91 62.5 151.5t154.5 60.5
q70 0 133 -51q28 -22 69 -81q4 -5 34.5 -29t30.5 -26zM328 125q0 34 -36 34t-36 -34q0 -33 36 -33h4q32 15 32 33z" />
    <glyph glyph-name="ai.vow.dot" unicode="&#x1032;" horiz-adv-x="2" 
d="M-62 533q-74 -22 -138 -22q-173 0 -284 187q-6 10 -6 21q0 15 13 27t28 12q22 0 33 -20q20 -33 58 -74q52 -56 103 -81q73 -35 193 -50z" />
    <glyph glyph-name="mon.ii.vow.dot" unicode="&#x1033;" horiz-adv-x="3" 
d="M-242 673q0 -33 -20.5 -53t-53.5 -20q-31 0 -51.5 20.5t-20.5 52.5t20.5 52.5t53.5 20.5t52.5 -21t19.5 -52zM-285 672q0 32 -31 32q-32 0 -32 -32q0 -31 32 -31q31 0 31 31zM-194 668q0 53 -32 87.5t-85 34.5q-54 0 -87.5 -34t-33.5 -88q0 -51 33.5 -84.5t84.5 -33.5
q53 0 86.5 32.5t33.5 85.5zM-49 673q0 -108 -74.5 -179t-182.5 -71t-182 70.5t-74 179.5t73.5 179t182.5 70t183 -70.5t74 -178.5zM-128 673q0 72 -52.5 121.5t-125.5 49.5q-75 0 -126.5 -48t-51.5 -123q0 -76 51.5 -124t126.5 -48q73 0 125.5 49t52.5 123z" />
    <glyph glyph-name="mon.o.vow.dot" unicode="&#x1034;" horiz-adv-x="3" 
d="M-367 583q51 25 103 81q38 41 58 74q11 20 33 20q15 0 28 -12t13 -27q0 -11 -5 -21q-112 -187 -285 -187q-64 0 -138 22q121 15 193 50z" />
    <glyph glyph-name="eabove.vow.dot" unicode="&#x1035;" horiz-adv-x="6" 
d="M-119 763q-28 -8 -52 -8q-54 0 -108 67l-6 7q-14 17 -38 24q-27 18 -63 18q-56 0 -97.5 -38t-41.5 -95q0 -86 85 -122q-7 21 -7 36q0 48 34 80.5t82 32.5q46 0 80 -33.5t34 -79.5q0 -85 -85 -109q-39 -16 -84 -16q-93 0 -155 59.5t-62 151.5q0 91 62.5 151.5t154.5 60.5
q70 0 133 -51q28 -22 69 -81q4 -5 34.5 -29t30.5 -26zM-295 652q0 34 -36 34t-36 -34q0 -33 36 -33h4q32 15 32 33z" />
    <glyph glyph-name="anusvara.dot" unicode="&#x1036;" horiz-adv-x="2" 
d="M-180 594q0 -40 -26 -66.5t-66 -26.5q-39 0 -66 26.5t-27 66.5q0 39 27.5 65.5t65.5 26.5q39 0 65.5 -26.5t26.5 -65.5zM-251 594q0 20 -21 20q-22 0 -22 -20q0 -22 22 -22q21 0 21 22z" />
    <glyph glyph-name="aukmyit.dot" unicode="&#x1037;" horiz-adv-x="2" 
d="M-196 -206q0 -38 -27 -64.5t-65 -26.5q-40 0 -66.5 25.5t-26.5 65.5t26.5 67t66.5 27q38 0 65 -27.5t27 -66.5zM-267 -206q0 22 -21 22q-22 0 -22 -22q0 -20 22 -20q21 0 21 20z" />
    <glyph glyph-name="visarga.dot" unicode="&#x1038;" horiz-adv-x="344" 
d="M215 325q0 -39 -26 -66t-66 -27q-38 0 -65.5 27.5t-27.5 65.5q0 40 27 67t66 27t65.5 -27.5t26.5 -66.5zM144 325q0 22 -21 22q-22 0 -22 -22q0 -21 22 -21q21 0 21 21zM215 93q0 -39 -26 -66t-66 -27q-38 0 -65.5 27.5t-27.5 65.5q0 39 27.5 65.5t65.5 26.5
q39 0 65.5 -26.5t26.5 -65.5zM144 93q0 21 -21 21q-22 0 -22 -21q0 -22 22 -22q21 0 21 22z" />
    <glyph glyph-name="virama" unicode="&#x1039;" horiz-adv-x="1241" 
d="M1060 658h-88v60h150v-80q0 -12 -1 -36t-1 -36h-60v92zM82 -369h-40q-27 -1 -41 -1v152h60v-91h90v-60h-69zM853 -369h119v60h88v91h60v-70q0 -13 1 -40t1 -41l-310 -4zM1 717h150v-59h-90v-92h-60v151zM1 346h60v-151h-60v151zM1060 532h60v-151h-60v151zM1060 346h60
v-151h-60v151zM778 658v60h150v-60h-150zM1060 162h60v-152h-60v152zM1 162h60v-152h-60v152zM1060 -24h60v-151h-60v151zM1 -24h60v-151h-60v151zM1 532h60v-151h-60v151zM195 -369v60h150v-60h-150zM390 -369v60h149v-60h-149zM778 -369v60h150v-60h-150zM584 -369v60h149
v-60h-149zM195 658v60h150v-60h-150zM584 658v60h149v-60h-149zM390 658v60h149v-60h-149zM577 -188v-81h-52v81h-90v51h90v80h52v-80h76v-51h-76z" />
    <glyph glyph-name="asat.dot" unicode="&#x103a;" horiz-adv-x="2" 
d="M559 504q-107 117 -293 216q-74 39 -197 63q-110 23 -207 25q-291 7 -291 -148q0 -136 128 -152q43 -6 72.5 22t25.5 73q4 1 9 1q18 0 33.5 -18.5t15.5 -37.5q0 -5 -3 -13q-30 -87 -158 -87q-90 0 -145.5 60t-55.5 152q0 128 119 185q88 43 231 43q232 0 371 -75
q248 -134 341 -295q4 -7 4 -14z" />
    <glyph glyph-name="ya.med.dot" unicode="&#x103b;" horiz-adv-x="146" 
d="M79 -379q0 -49 -33.5 -84t-83.5 -35h-52q-107 0 -173 56t-66 162q0 86 44.5 161t121.5 107q23 10 38 6q-111 -106 -111 -238q0 -73 36 -121q40 -55 110 -55h52q38 0 38 41v763q0 40 40 40q39 0 39 -40v-763z" />
    <glyph glyph-name="ra.med.dot" unicode="&#x103c;" horiz-adv-x="128" 
d="M1270 590q-218 251 -482 251h-650q-40 0 -40 -41v-1150q0 -41 40 -41h686q40 0 40 41v341q0 39 40 39q38 0 38 -39v-341q0 -49 -34.5 -84t-83.5 -35h-686q-50 0 -84 34t-34 85v1150q0 49 34.5 84t83.5 35h676q153 0 300 -126q116 -100 156 -203z" />
    <glyph glyph-name="wa.med.dot" unicode="&#x103d;" horiz-adv-x="2" 
d="M-30 -263q0 -109 -74 -179.5t-183 -70.5q-108 0 -182 70.5t-74 179.5q0 107 74.5 178t181.5 71q109 0 183 -70.5t74 -178.5zM-110 -263q0 72 -52 121.5t-125 49.5q-72 0 -124.5 -49.5t-52.5 -121.5q0 -73 52.5 -122.5t124.5 -49.5q73 0 125 49.5t52 122.5z" />
    <glyph glyph-name="ha.med.dot" unicode="&#x103e;" horiz-adv-x="2" 
d="M-237 -343q0 -148 -165 -148q-192 0 -328 151l-8 11q106 -93 321 -85q92 4 99 43q1 4 1 13l-2 241q-2 69 80 91z" />
    <glyph glyph-name="great.sa" unicode="&#x103f;" horiz-adv-x="1225" 
d="M1144 213q0 -92 -62 -152t-155 -60q-113 0 -177 91q-63 -91 -177 -91t-179 91q-63 -91 -176 -91q-131 0 -192 113q-6 10 -6 19q0 38 41 38q23 0 35 -20q38 -72 122 -72q56 0 97 38.5t41 95.5q0 56 -41 94.5t-97 38.5q-35 0 -68 -15q-39 -18 -44 -47q8 -10 8 -23
q0 -42 -39 -42q-22 0 -35 19.5t-13 42.5q0 35 21 63q57 80 170 80q93 0 154.5 -60t61.5 -151q0 -57 41.5 -95.5t97.5 -38.5t96.5 38.5t40.5 95.5q0 52 -39.5 93t-92.5 41q-22 0 -46 -26.5t-34 -26.5q-42 0 -42 38q0 3 3 12q25 81 118 81q89 0 150 -61.5t61 -150.5
q0 -57 41.5 -95.5t97.5 -38.5t97.5 38.5t41.5 95.5q0 52 -40 93t-92 41q-22 0 -46 -26.5t-35 -26.5q-41 0 -41 38q0 3 2 12q25 81 119 81q86 0 148.5 -63t62.5 -149z" />
    <glyph glyph-name="m.zero" unicode="&#x1040;" horiz-adv-x="535" 
d="M463 225q0 -96 -67 -160.5t-165 -64.5q-99 0 -165 63.5t-66 161.5q0 97 66.5 161.5t164.5 64.5q100 0 166 -64t66 -162zM379 225q0 60 -44 101t-104 41t-104 -41t-44 -101t44 -101t104 -41t104 41t44 101z" />
    <glyph glyph-name="m.one" unicode="&#x1041;" horiz-adv-x="535" 
d="M463 225q0 -96 -67 -160.5t-165 -64.5q-139 0 -203 119q-6 10 -6 22q0 40 44 40q23 0 35 -22q41 -76 130 -76q60 0 104 41t44 101t-44 101t-104 41q-36 0 -72 -16q-42 -19 -46 -50q8 -10 8 -24q0 -44 -42 -44q-50 0 -50 66q0 38 21 67q60 85 181 85q100 0 166 -64
t66 -162z" />
    <glyph glyph-name="m.two" unicode="&#x1042;" horiz-adv-x="535" 
d="M463 -398q0 -53 -37 -90t-89 -37v-2q-194 -8 -292 85q-67 65 -67 139q0 16 6 16q4 0 9 -20q54 -85 127 -112q50 -17 173 -24l44 2q42 4 42 43v809q0 42 42 42t42 -42v-809z" />
    <glyph glyph-name="m.three" unicode="&#x1043;" horiz-adv-x="535" 
d="M463 225q0 -96 -67 -160.5t-165 -64.5q-56 0 -95 19l120 -502q6 -24 -6.5 -38t-36.5 -14q-32 0 -39 32l-147 624q-5 12 -5 20q0 40 44 40q23 0 35 -22q41 -76 130 -76q60 0 104 41t44 101t-44 101t-104 41q-36 0 -72 -16q-42 -19 -46 -50q8 -10 8 -24q0 -44 -42 -44
q-50 0 -50 66q0 38 21 67q60 85 181 85q100 0 166 -64t66 -162z" />
    <glyph glyph-name="m.four" unicode="&#x1044;" horiz-adv-x="535" 
d="M441 141q0 -8 -5 -20l-148 -624q-7 -32 -39 -32q-24 0 -36 14t-6 38l120 502q-40 -19 -96 -19q-98 0 -164.5 64.5t-66.5 160.5q0 98 66 162t165 64q122 0 182 -85q20 -29 20 -67q0 -66 -50 -66q-42 0 -42 44q0 14 9 24q-5 31 -47 50q-35 16 -72 16q-60 0 -104 -41
t-44 -101t44 -101t104 -41q90 0 130 76q12 22 36 22q44 0 44 -40z" />
    <glyph glyph-name="m.five" unicode="&#x1045;" horiz-adv-x="535" 
d="M463 -419q0 -52 -36.5 -89t-89.5 -38l-83 -3q-195 -7 -292 88q-67 66 -67 138q0 16 5 16t10 -21q57 -87 126 -115q52 -22 172 -21l129 1q43 0 43 44v637q0 63 -43 106t-105 43q-49 0 -88.5 -27.5t-52.5 -72.5q25 12 53 12q50 0 86.5 -35t36.5 -85q0 -49 -36.5 -84.5
t-86.5 -35.5q-16 0 -41 8q-15 0 -27 12l-8 7q-68 67 -68 159q0 97 67 161.5t165 64.5t164.5 -65t66.5 -163v-642zM182 159q0 36 -38 36t-38 -36q0 -8 17 -30q11 -6 21 -6q38 0 38 36z" />
    <glyph glyph-name="m.six" unicode="&#x1046;" horiz-adv-x="535" 
d="M667 777q-64 88 -187 118q-83 21 -225 20l-129 -2q-43 0 -43 -44v-636q0 -63 42.5 -106.5t105.5 -43.5q48 0 88 28t53 74q-33 16 -84 43q-35 12 -92 43q-29 28 -29 77q0 51 35 85.5t86 34.5q81 0 113 -75q4 -10 4 -18q0 -42 -44 -42q-13 0 -37 26t-36 26q-38 0 -38 -37
q0 -26 149 -79l15 -2q34 4 45 -34q2 -3 4 -8q0 -96 -67 -160.5t-165 -64.5t-164.5 65t-66.5 163v641q0 53 36.5 89.5t89.5 38.5l83 2q319 12 435 -165q16 -33 23 -57z" />
    <glyph glyph-name="m.seven" unicode="&#x1047;" horiz-adv-x="535" 
d="M881 -427q-133 -134 -269 -134q-33 -2 -49 -2q-186 0 -186 140l2 648q0 62 -43 102t-105 40q-60 0 -104 -41t-44 -101q0 -55 37.5 -94t92.5 -46q37 -4 37 -41q0 -49 -47 -43q-88 12 -145.5 74t-57.5 150q0 97 66.5 161.5t164.5 64.5t165 -64.5t67 -162.5v-660
q0 -50 152 -50q138 0 266 59z" />
    <glyph glyph-name="m.eight" unicode="&#x1048;" horiz-adv-x="535" 
d="M463 225q0 -132 -93 -194q-13 -9 -25 -9q-42 0 -42 44q0 21 19 33q57 40 57 126q0 60 -44 101t-104 41q-56 0 -99 -37t-47 -93q34 22 68 22q50 0 86 -35t36 -85t-37 -86t-87 -36q-82 0 -124 88q-27 56 -27 120q0 97 66.5 161.5t164.5 64.5q100 0 166 -64t66 -162z
M192 139q0 35 -39 35q-38 0 -38 -35q0 -36 38 -36q11 0 22 7l10 9q7 11 7 20z" />
    <glyph glyph-name="m.nine" unicode="&#x1049;" horiz-adv-x="535" 
d="M667 -327q-40 -128 -187 -184q-114 -44 -271 -38l-83 3q-53 1 -89.5 38t-36.5 89v642q0 98 66.5 163t164.5 65t165 -64.5t67 -161.5l-4 -12q-1 -6 -19.5 -19t-25.5 -9l-15 -4q-149 -52 -149 -78q0 -37 38 -37q12 0 36 25.5t37 25.5q44 0 44 -41q0 -9 -4 -19
q-32 -74 -113 -74q-51 0 -86 34t-35 86q0 49 29 77q57 31 92 43q51 29 84 44q-13 45 -53 72.5t-88 27.5q-63 0 -105.5 -43t-42.5 -106v-637q0 -44 43 -44l129 -1q134 -1 222 23q110 33 190 114z" />
    <glyph glyph-name="littlesection.sig" unicode="&#x104a;" horiz-adv-x="178" 
d="M103 47q0 -39 -39 -39t-39 39v314q0 40 39 40t39 -40v-314z" />
    <glyph glyph-name="section.sig" unicode="&#x104b;" horiz-adv-x="329" 
d="M241 47q0 -39 -38 -39q-40 0 -40 39v314q0 40 40 40q38 0 38 -40v-314zM103 47q0 -39 -39 -39t-39 39v314q0 40 39 40t39 -40v-314z" />
    <glyph glyph-name="locative.sig" unicode="&#x104c;" horiz-adv-x="534" 
d="M1077 488q-111 123 -295 218q-74 39 -196 63q-108 23 -207 25q-290 7 -290 -149q0 -134 128 -151q44 -6 72 21.5t25 72.5q3 1 10 1q19 0 33.5 -18t14.5 -37q0 -51 -58 -78q-45 -22 -103 -22q-89 0 -144.5 60t-55.5 151q0 128 118 185q89 44 232 44q230 0 372 -75
q243 -130 340 -297q4 -7 4 -14zM434 211q0 -79 -48 -134.5t-128 -70.5q-42 -8 -126 -8q-4 -7 -4 -14q0 -11 10 -21q45 -14 149 -5q72 5 87 -68l2 -244q2 -130 -177 -130q-16 0 -46 3q-75 0 -173 48.5t-150 107.5q13 -11 91 -41q112 -44 245 -53q41 -2 77 9q48 14 53 46
l-2 243q-41 -4 -77 -4q-88 0 -126 22q-40 32 -40 94q0 80 59 86q15 1 53 1h54q56 0 97.5 38.5t41.5 94.5q0 57 -41.5 95t-97.5 38q-36 0 -68 -13q-39 -18 -43 -48q8 -10 8 -25q0 -40 -38 -40q-48 0 -48 65q0 34 19 60q57 80 170 80q92 0 154.5 -60.5t62.5 -151.5z" />
    <glyph glyph-name="completed.sig" unicode="&#x104d;" horiz-adv-x="748" 
d="M1224 504q-103 116 -295 218q-74 38 -196 63q-109 22 -206 23q-291 5 -291 -148q0 -121 100 -146q7 0 9 -1q108 -18 180 -71q91 -66 91 -165v-596q0 -12 -5 -32q-38 -141 -187 -141h-231q-45 0 -102 41q-69 49 -69 109q0 65 81 130l7 5q3 3 26 12q55 24 104 24
q78 0 128 -61q9 -11 9 -24q0 -16 -13 -27.5t-28 -11.5q-18 0 -30 15q-23 30 -67 30q-39 0 -85 -23q-41 -39 -41 -74q0 -30 24.5 -48t55.5 -18h232q96 0 113 96v590q0 71 -63 120q-51 39 -129 56q-85 7 -136.5 66t-51.5 145q0 228 348 228q234 0 374 -75q244 -132 340 -295
q4 -7 4 -14zM464 -301q-70 29 -80 105l2 407q0 58 -40.5 95.5t-98.5 37.5q-56 0 -97.5 -38t-41.5 -95q0 -23 10 -47q33 61 102 61q46 0 79.5 -33t33.5 -79q0 -49 -32.5 -81t-80.5 -32q-36 0 -64 19q-57 25 -91.5 77t-34.5 115q0 91 62.5 151.5t154.5 60.5t154.5 -60.5
t62.5 -152.5v-511zM255 113q0 33 -35 33q-36 0 -36 -33q0 -29 42 -34q29 7 29 34z" />
    <glyph glyph-name="aforementioned.sig" unicode="&#x104e;" horiz-adv-x="565" 
d="M649 -509l-69 -15q-210 -10 -210 346v189q-55 -33 -121 -33q-100 0 -166 63.5t-66 161.5q0 97 67 161.5t165 64.5q120 0 182 -85q20 -28 20 -64q0 -69 -51 -69q-16 0 -29 13t-13 30q0 16 10 26q-5 32 -48 51q-33 15 -71 15q-60 0 -104 -41t-44 -102q0 -60 44 -101
t104 -41q77 0 121 64q10 34 45 34q44 0 44 -40q0 -8 -5 -20v-277q0 -95 25 -177q48 -158 170 -154z" />
    <glyph glyph-name="genetive.sig" unicode="&#x104f;" horiz-adv-x="854" 
d="M1307 536q-106 117 -295 218q-71 39 -196 64q-112 23 -206 25q-291 6 -291 -150q0 -119 100 -145h9q105 -17 181 -73q90 -67 90 -165v-317q-27 16 -41 23q-26 22 -37 69v223q0 68 -65 117q-53 41 -127 56q-85 7 -136.5 66t-51.5 146q0 128 118 185q89 44 232 44
q230 0 372 -76q243 -128 340 -296q4 -7 4 -14zM564 -7q-69 32 -78 106v210q0 38 -53 38q-15 0 -34 -4q19 -19 44 -55q-27 -54 -85 -71q48 -36 48 -92q0 -85 -85 -109q-39 -16 -84 -16q-93 0 -155 59.5t-62 151.5q0 91 62.5 151.5t154.5 60.5q66 0 133 -51q6 -4 15 -14
q44 44 92 44q34 0 64 -19q23 -24 23 -85v-305zM344 295q-15 19 -44 31q-10 7 -33 14q7 -49 55 -49q12 0 22 4zM328 125q0 34 -36 34t-36 -34q0 -33 36 -33h4q32 15 32 33zM253 231q-60 35 -64 105q-91 -33 -91 -125q0 -86 85 -122q-7 21 -7 36q0 78 77 106z" />
    <glyph glyph-name="ga.sha" unicode="&#x1050;" horiz-adv-x="531" 
d="M201.5 230.5q-13.5 -14.5 -13.5 -36.5q0 -20 14 -34t34 -14q21 0 36 14t15 34q0 22 -15 36.5t-36 14.5t-34.5 -14.5zM433 91q-40 -91 -122 -91q-51 0 -84 36q-11 12 -11 26q0 16 12.5 28.5t29.5 12.5q6 -1 27.5 -15t38.5 -7q52 18 52 114q0 56 -41.5 94.5t-97.5 38.5
t-97.5 -38.5t-41.5 -94.5q0 -81 54 -118q17 -13 17 -31q0 -42 -39 -42q-11 0 -24 9q-86 58 -86 182q0 92 62 151.5t155 59.5q92 0 154.5 -60t62.5 -151q0 -57 -21 -104z" />
    <glyph glyph-name="pa.ssa" unicode="&#x1051;" horiz-adv-x="531" 
d="M236 161q21 0 36 15t15 36t-15 34.5t-36 13.5q-20 0 -34 -14t-14 -34q0 -21 13.5 -36t34.5 -15zM454 211q0 -90 -62.5 -150.5t-154.5 -60.5q-93 0 -155 59.5t-62 151.5q0 124 86 183q13 8 24 8q39 0 39 -41q0 -19 -17 -32q-54 -36 -54 -118q0 -56 41.5 -94.5t97.5 -38.5
t97.5 38.5t41.5 94.5q0 97 -52 114q-17 7 -38.5 -7t-27.5 -15q-17 0 -29.5 12.5t-12.5 28.5q0 14 11 27q33 35 84 35q82 0 122 -90q21 -47 21 -105z" />
    <glyph glyph-name="r.vol" unicode="&#x1052;" horiz-adv-x="587" 
d="M102 384q14 9 22 9q40 0 40 -42q-76 -83 -76 -140q0 -56 41.5 -94.5t97.5 -38.5t97.5 38.5t41.5 94.5q0 30 -41.5 77.5t-41.5 70.5q0 57 54 94q48 34 106 34q30 0 68 -15q44 -16 53 -40q-33 9 -65 9q-44 0 -84 -14q-54 -18 -54 -54q0 -17 45 -49q38 -38 38 -113
q0 -90 -63 -150.5t-154 -60.5t-154 60.5t-63 150.5q0 117 92 173z" />
    <glyph glyph-name="rr.vol" unicode="&#x1053;" horiz-adv-x="517" 
d="M445 206q0 49 -30 85q-13 16 -70 59q-4 3 -7 5h3v0l-3 5l12 6q14 0 36 -17l19 51q-28 21 -70 21q-25 0 -46 -19.5t-21 -43.5q0 -27 36 -55q5 -6 55 -43q25 -25 25 -54q0 -63 -41.5 -103.5t-120.5 -40.5q-58 0 -99 40.5t-41 103.5q0 29 24 54q50 37 55 43q36 28 36 55
q0 24 -21.5 43.5t-45.5 19.5q-42 0 -70 -21l19 -51q21 17 36 17l12 -6l-3 -5h-1h4q-3 -2 -7 -5q-57 -43 -70 -59q-31 -36 -31 -85q0 -90 58.5 -148t149.5 -58q101 0 159.5 58t58.5 148z" />
    <glyph glyph-name="l.vol" unicode="&#x1054;" horiz-adv-x="646" 
d="M211 427q110 0 169 -81q29 -40 29 -67q0 -37 -30 -59q-27 -20 -66 -20q-86 0 -132 75q-23 36 -27 77q-92 -43 -92 -139q0 -65 42.5 -107t106.5 -42q86 0 145 104l58 -30q-79 -138 -203 -138q-94 0 -154.5 59.5t-60.5 153.5q0 93 60.5 153.5t154.5 60.5zM307 262
q37 0 37 16q0 4 -3 10q-10 14 -17 26q-43 47 -113 47h-8q1 -44 30.5 -71.5t73.5 -27.5z" />
    <glyph glyph-name="ll.vol" unicode="&#x1055;" horiz-adv-x="702" 
d="M305 260q36 0 36 16q0 3 -2 9q-11 14 -18 26q-42 47 -111 47h-8q1 -44 30 -71t73 -27zM441 103q42 -42 106 -42q85 0 145 103l136 97q-157 -264 -281 -264q-118 0 -173 84q-69 -82 -164 -82q-94 0 -154 59t-60 153q0 93 60 152.5t154 59.5q109 0 167 -80q30 -40 30 -66
q0 -38 -31 -59q-27 -20 -65 -20q-86 0 -131 74q-23 36 -27 77q-92 -43 -92 -138q0 -65 42 -106.5t107 -41.5q76 0 131 83q13 35 34 35q16 0 35 -28q10 -24 14 -29q6 -10 17 -21z" />
    <glyph glyph-name="r.vow.dot" unicode="&#x1056;" horiz-adv-x="414" 
d="M121 3q99 0 157 57t58 146q0 49 -29 84q-17 20 -43 31h-22q-21 0 -26.5 6.5t-5.5 14.5q0 24 32 22q14 0 36 -17l18 50q-27 21 -69 21q-30 0 -51 -19.5t-21 -43.5q0 -3 -0.5 -9.5t-0.5 -11.5q0 -30 38 -59q6 -8 28.5 -9.5t30.5 -6.5q24 -24 24 -53q0 -62 -40.5 -102
t-117.5 -40q-58 0 -98 40l-45 -44q58 -57 147 -57z" />
    <glyph glyph-name="rr.vow.dot" unicode="&#x1057;" horiz-adv-x="772" 
d="M312 158q2 2 6 2q17 0 37 -42q22 -22 55 -37t60 -15q79 0 121 41t42 105q0 28 -25 54q-8 5 -31 6t-30 9q-39 31 -39 61q0 5 1 11.5t1 9.5q0 26 21 45.5t52 19.5q43 0 71 -21l-19 -52q-20 16 -36 18q-33 2 -33 -22q0 -9 5.5 -15.5t27.5 -6.5h22q26 -11 44 -32
q30 -36 30 -85q0 -91 -59 -149.5t-161 -58.5q-43 0 -86 14q-45 16 -72 43q-64 -65 -171 -65q-76 0 -132 46l41 49q45 -37 104 -32q68 6 116 52q5 6 12 17q5 30 25 30z" />
    <glyph glyph-name="l.vow.dot" unicode="&#x1058;" horiz-adv-x="6" 
d="M-365 -427q50 0 95 17q58 23 100 76l-54 51l-27 -29q-11 -12 -39 -29l-37 -12l-38 -4q-56 0 -97.5 42t-41.5 98q0 26 3 29q18 -25 55.5 -43.5t82.5 -18.5q106 0 160 51q29 27 29 61q0 31 -48 78q-58 58 -143 58q-86 0 -149 -63.5t-63 -149.5q0 -92 60.5 -152t151.5 -60z
M-365 -75q43 0 85 -27q23 -21 33 -38q0 -10 -49 -35q-46 -10 -69 -9l-24 1q-20 1 -41 11q-13 10 -44 38q34 59 109 59z" />
    <glyph glyph-name="ll.vow.dot" unicode="&#x1059;" horiz-adv-x="3" 
d="M-16 -302q-47 -52 -101 -52q-52 0 -79 67q-36 14 -70 13l-28 -43q-6 -10 -39 -29l-37 -12l-38 -4q-56 0 -97.5 42t-41.5 98q0 26 3 29q18 -25 55.5 -43.5t82.5 -18.5q106 0 160 51q29 27 29 61q0 31 -48 78q-58 58 -143 58q-86 0 -149 -63.5t-63 -149.5q0 -92 60.5 -152
t151.5 -60q50 0 94 17t76 49l13 -14q16 -18 40 -29q35 -16 83 -16q65 0 107 27q1 1 54 49zM-408 -80q43 0 85 -27q23 -21 33 -38q0 -10 -49 -35q-46 -10 -69 -9l-24 1q-20 1 -41 11q-13 10 -44 38q34 59 109 59z" />
    <glyph glyph-name="mon.nga" unicode="&#x105a;" horiz-adv-x="655" 
d="M286 -295q-3 -5 -3 -8q0 -6 18 8q25 20 46 15q-9 -92 -70 -92q-28 0 -48.5 19.5t-20.5 47.5q0 27 16 51q5 7 34 42l23 27v-2q20 21 24 27q10 15 9 35q-5 38 -38 38q-41 0 -41 -39q0 -18 39 -50l-46 -59q-13 8 -35 26q-33 33 -33 83t33 81.5t83 31.5q49 0 81 -32t32 -81
q-1 -49 -50 -107q-19 -20 -53 -62zM517 139q-30 -63 -98.5 -101t-141.5 -38q-121 0 -198 77t-77 197q0 121 77 197t198 76q160 0 258 -177l-71 -39q-76 134 -187 134q-83 0 -137 -54t-54 -137t54 -136.5t137 -53.5q111 0 187 133l71 -39z" />
    <glyph glyph-name="mon.jha" unicode="&#x105b;" horiz-adv-x="756" 
d="M404 286q-9 18 -22.5 33t-30 26.5t-36 17.5t-41.5 7q-5 -14 -5 -29t5.5 -29t15 -25.5t22.5 -18.5q12 -6 25 -7t25 1.5t23 8.5t19 15zM445 85q-15 -20 -34.5 -36t-41.5 -27t-47.5 -17.5t-51.5 -6.5q-46 0 -86.5 17.5t-70.5 47.5t-47.5 70.5t-17.5 86.5t17.5 86.5
t47.5 70.5t70.5 47.5t86.5 17.5q44 0 82.5 -16t67.5 -43q4 5 10 8q10 5 24 6t29.5 -2.5t30.5 -11t27 -20t19.5 -30t7.5 -39.5v-33q0 -15 -9 -22t-20 -7t-20.5 7t-9.5 22v33q0 14 -6 23t-14 14t-15.5 6t-11.5 -1l-1 -0.5l-1 -0.5q3 -5 5.5 -10.5t5.5 -11.5q4 -9 3.5 -17.5
t-4.5 -15.5q-12 -25 -32.5 -43t-45.5 -27t-52 -8t-53 13q-20 10 -35.5 25.5t-25 34.5t-13.5 40.5t-2 42.5q-20 -9 -37 -22.5t-29 -31.5t-18.5 -39.5t-6.5 -44.5q0 -31 11.5 -58.5t32 -47.5t48 -32t58.5 -12q36 0 67 16t51 42q8 10 17 13t17.5 1.5t16 -7.5t11.5 -14t3 -17.5
t-8 -18.5zM678 -379q0 -49 -33.5 -84t-83.5 -35h-52q-107 0 -173 56t-66 162q0 86 45 161t121 107q24 10 39 6q-112 -106 -112 -238q0 -73 37 -121q39 -55 109 -55h52q39 0 39 41v763q0 40 40 40q38 0 38 -40v-763z" />
    <glyph glyph-name="mon.bba" unicode="&#x105c;" horiz-adv-x="545" 
d="M242 421q29 0 56.5 -7.5t51 -21.5t43.5 -33.5t33.5 -43.5t21.5 -51.5t8 -56.5q0 -30 -8 -57t-21.5 -51t-33.5 -43.5t-43.5 -33t-51 -21.5t-56.5 -8q-45 0 -84 17t-68 46t-45.5 67.5t-16.5 83.5q0 44 16.5 83t45.5 68t68 46t84 17zM242 352q-30 0 -56.5 -11.5t-46 -31
t-31 -46t-11.5 -56.5t11.5 -56.5t31 -46t46 -30.5t56.5 -11t56 11t45.5 30.5t31 46t11.5 56.5t-11.5 56.5t-31 46t-45.5 31t-56 11.5zM242 292q18 0 34 -6.5t27.5 -18.5t18.5 -28t7 -34q0 -17 -7 -33t-18.5 -27.5t-27.5 -18.5t-34 -7t-33.5 7t-27.5 18.5t-18.5 27.5t-6.5 33
q0 18 6.5 34t18.5 28t27.5 18.5t33.5 6.5zM242 251q-9 0 -17.5 -3.5t-14.5 -9.5t-9.5 -14.5t-3.5 -18.5q0 -9 3.5 -17t9.5 -14t14.5 -10t17.5 -4q10 0 18 4t14 10t10 14t4 17q0 10 -4 18.5t-10 14.5t-14 9.5t-18 3.5z" />
    <glyph glyph-name="mon.bbe" unicode="&#x105d;" horiz-adv-x="553" 
d="M393 55v-255q0 -38 -15.5 -65t-40.5 -43.5t-56.5 -23.5t-63.5 -5.5t-61.5 12t-51 29t-31.5 44.5t-4 59q6 24 18.5 42t30 29.5t38.5 17t42 5t40.5 -7t35.5 -17.5q10 -8 13.5 -16.5t1.5 -17.5t-8 -16.5t-14 -11.5t-18 -3.5t-19 8.5q-12 9 -26.5 10.5t-27.5 -2.5t-22.5 -13
t-12.5 -22q-2 -13 4 -23.5t18 -18t28 -12t33.5 -5.5t34.5 2.5t30.5 11.5t21.5 21t8 32v210q-19 -7 -39 -10.5t-41 -3.5q-47 0 -87.5 17t-71 46.5t-48 69.5t-17.5 85q0 37 8 69.5t22.5 60t36 48.5t47.5 36q11 6 20.5 5t17 -5.5t12 -12.5t5 -17t-4 -17t-14.5 -14
q-17 -10 -31 -24t-24.5 -33.5t-16.5 -43t-6 -52.5q0 -36 17 -66q15 22 36.5 37.5t46 23t51 8t51.5 -6.5t47.5 -22t39.5 -37q6 14 10 30t4 33q0 55 -21 93t-57 61q-10 6 -14 14.5t-3 17.5t6 16.5t13 12t17.5 4.5t19.5 -6q26 -16 46.5 -38t35 -48.5t22.5 -58.5t8 -68
q0 -47 -19 -87.5t-51 -70.5v-1zM337 102q-10 20 -26 32.5t-34.5 19t-38 6t-38 -7.5t-33.5 -20t-24 -32q20 -16 44 -25t52 -9t53 10t45 26z" />
    <glyph glyph-name="mon.na.med.dot" unicode="&#x105e;" horiz-adv-x="8" 
d="M-322 -204q-15 1 -28 1q-65 0 -101 -29q-38 -20 -38 -60q0 -41 46 -64h121v152zM-284 -421l-198 -2q-79 52 -79 138q0 60 43 103q20 33 77 50q53 16 119 3v130l76 2l-2 -143q68 -17 181 -95l97 -152q-237 145 -278 163v-149q0 -48 -36 -48z" />
    <glyph glyph-name="mon.ma.med.dot" unicode="&#x105f;" horiz-adv-x="3" 
d="M-369 -204q-38 17 -84 17q-45 0 -79 -16q-45 -21 -45 -61q0 -53 71 -82q22 -5 50 -5q69 0 109 40l279 73q-259 -160 -306 -176q-36 -12 -78 -12q-78 0 -138 41q-69 46 -69 120q0 75 69 120q61 40 140 40q17 0 42 -5v103h82v-171z" />
    <glyph glyph-name="mon.la.med.dot" unicode="&#x1060;" horiz-adv-x="3" 
d="M-566 -418q-17 0 -30 9t-13 23q0 8 4 16l210 381h90l-180 -347h262v-82h-343z" />
    <glyph glyph-name="sgaw.sha" unicode="&#x1061;" horiz-adv-x="501" 
d="M434 -301q-70 29 -80 105l2 407q0 58 -41 95.5t-98 37.5q-56 0 -97.5 -38t-41.5 -95q0 -23 10 -47q33 61 101 61q47 0 80.5 -33t33.5 -79q0 -49 -32.5 -81t-81.5 -32q-35 0 -63 19q-57 25 -91.5 77t-34.5 115q0 91 62.5 151.5t154.5 60.5t154.5 -60.5t62.5 -152.5v-511z
M225 113q0 33 -36 33q-35 0 -35 -33q0 -29 42 -34q29 7 29 34zM263 -334q0 -157 -165 -157q-192 0 -328 160l-8 11q106 -98 321 -90q92 5 99 47q1 3 1 13l-2 256q-2 73 80 96z" />
    <glyph glyph-name="sgaw.eu.vow.dot" unicode="&#x1062;" horiz-adv-x="220" 
d="M-12 504h153v-502h-87v435h-66v67z" />
    <glyph glyph-name="sgaw.hathi.ton.dot" unicode="&#x1063;" horiz-adv-x="575" 
d="M79 241q66 118 163 118q72 0 120.5 -48.5t48.5 -120.5q0 -73 -48.5 -120.5t-120.5 -47.5q-97 0 -163 116l-42 -22h-3l-18 -12v-511h72v408q69 -53 154 -53q106 0 173.5 68t67.5 174t-67.5 173.5t-173.5 67.5q-141 0 -228 -156z" />
    <glyph glyph-name="sgaw.kepho.ton.dot" unicode="&#x1064;" horiz-adv-x="337" 
d="M11 421h146v-355l94 -1l-1 -65h-163v364h-76v57z" />
    <glyph glyph-name="pwo.tha" unicode="&#x1065;" horiz-adv-x="501" 
d="M433 211q0 -90 -62.5 -150.5t-154.5 -60.5q-130 0 -190 111q-6 10 -6 21q0 38 41 38q22 0 33 -21q39 -71 122 -71q57 0 98 38.5t41 94.5q0 57 -41 95t-98 38q-34 0 -67 -15q-40 -18 -44 -46q8 -10 8 -24q0 -41 -39 -41q-47 0 -47 62q0 36 19 63q57 80 170 80
q93 0 155 -60t62 -152z" />
    <glyph glyph-name="pwo.pwa" unicode="&#x1066;" horiz-adv-x="534" 
d="M403 -316q0 -175 -165 -175q-192 0 -328 178l-8 13q106 -110 321 -100q92 5 99 51q1 4 1 15l-2 285q-2 81 80 107zM454 211q0 -90 -62.5 -150.5t-154.5 -60.5q-93 0 -155 59.5t-62 151.5q0 124 86 183q13 8 24 8q39 0 39 -41q0 -19 -17 -32q-54 -36 -54 -118
q0 -56 41.5 -94.5t97.5 -38.5t97.5 38.5t41.5 94.5q0 97 -52 114q-17 7 -38.5 -7t-27.5 -15q-17 0 -29.5 12.5t-12.5 28.5q0 14 11 27q33 35 84 35q82 0 122 -90q21 -47 21 -105z" />
    <glyph glyph-name="pwo.eu.vow.dot" unicode="&#x1067;" horiz-adv-x="279" 
d="M92 117q-26 0 -26 -28q0 -27 26 -27q28 0 28 27q0 28 -28 28zM115 173v238h65v-310h-1q1 -6 1 -12q0 -36 -26 -61t-62 -25t-61 25t-25 61q0 38 24 62.5t62 24.5q13 0 23 -3z" />
    <glyph glyph-name="pwo.ue.vow.dot" unicode="&#x1068;" horiz-adv-x="322" 
d="M140 63v212h56v-275h-196v63h140zM163 295q-32 0 -54 22t-22 54q0 33 21 54.5t55 21.5q33 0 55 -21.5t22 -54.5q0 -32 -23 -54t-54 -22zM163 395q-23 0 -23 -24t23 -24q25 0 25 24t-25 24z" />
    <glyph glyph-name="pwo.tone1.dot" unicode="&#x1069;" horiz-adv-x="313" 
d="M6 406q39 24 80 24q42 0 75 -21.5t48 -59.5q10 -27 10 -54q-1 -42 -31 -88q-22 -33 -61 -75q-11 -13 -34 -38q-5 -8 -7 -13q-2 -10 10 -16q7 -3 23 -4q13 2 16.5 6t8.5 18h59q-5 -54 -39 -73q-21 -13 -55 -13q-41 0 -68 19q-31 22 -31 61q0 30 19 61q9 13 41 50l7 7
q36 41 39 45q17 23 22 54q-2 23 -16 39t-36 16q-18 0 -38 -14z" />
    <glyph glyph-name="pwo.tone2.dot" unicode="&#x106a;" horiz-adv-x="313" 
d="M104 2q-38 0 -67 29q-32 32 -33 81l69 -1q7 -39 40 -39q18 0 29.5 12.5t13.5 30.5l-1 306h66v-311q0 -32 -18.5 -59t-48.5 -41q-20 -8 -50 -8z" />
    <glyph glyph-name="pwo.tone3.dot" unicode="&#x106b;" horiz-adv-x="317" 
d="M103 418q-37 0 -66 -29q-32 -31 -33 -81l69 1q7 39 40 39q17 0 28.5 -12.5t14.5 -30.5l-1 -305h65v310q0 33 -18 60t-49 40q-19 8 -50 8z" />
    <glyph glyph-name="pwo.tone4.dot" unicode="&#x106c;" horiz-adv-x="327" 
d="M135 2q37 0 68 30.5t32 79.5h-70q-7 -40 -40 -40q-18 0 -29.5 12.5t-13.5 31.5l1 307h-66v-312q0 -33 18.5 -60t48.5 -41q20 -8 51 -8z" />
    <glyph glyph-name="pwo.tone5.dot" unicode="&#x106d;" horiz-adv-x="301" 
d="M47 91q20 -14 38 -14q21 0 34.5 16t15.5 38q-7 42 -41 77q-6 7 -18 20l-7 7q-32 36 -40 49q-19 30 -19 60q0 38 30 59q27 19 67 19q54 0 78 -36q11 -16 13 -49h-57q-5 14 -8.5 18t-15.5 6q-36 -2 -32 -20q1 -4 6 -12q12 -14 37 -42q57 -59 76 -109q10 -25 10 -46
q2 -56 -36 -94t-93 -38q-41 0 -79 24z" />
    <glyph glyph-name="pwo.nna" unicode="&#x106e;" horiz-adv-x="1010" 
d="M555 391q46 39 135 39q100 0 164 -65t64 -165q0 -138 -115 -200q-28 -6 -61 -15l-39 52q26 8 57 19q90 63 90 144q0 67 -46 113t-114 46q-48 0 -84 -21q31 -44 35 -138q2 -51 -15 -102q-24 -68 -75 -106l-45 53q71 56 67 155q-4 72 -38 113q-20 24 -42 24q-18 0 -41 -19
q29 -51 29 -118q0 -148 -132 -208l-44 53q108 65 108 155q0 67 -46 113t-113 46q-70 0 -116.5 -44.5t-46.5 -114.5q0 -90 108 -154l-48 -53l-20 10q-109 55 -109 197q0 101 65 165.5t167 64.5q92 0 154 -56q44 43 80 43q33 0 67 -26z" />
    <glyph glyph-name="pwo.ywa" unicode="&#x106f;" horiz-adv-x="889" 
d="M808 209q0 -87 -63.5 -154t-149.5 -57q-94 0 -118 79q-3 8 -3 14q0 38 41 38q14 0 37.5 -26.5t43.5 -26.5q54 0 93.5 39.5t39.5 93.5q0 56 -41 94.5t-97 38.5q-53 0 -93 -33q-44 -36 -44 -88v-10q0 -90 -62.5 -150.5t-154.5 -60.5q-93 0 -155 59.5t-62 151.5
q0 124 86 183q13 8 24 8q39 0 39 -41q0 -19 -17 -32q-54 -36 -54 -118q0 -56 41.5 -94.5t97.5 -38.5q55 0 95.5 35.5t41.5 89.5q3 105 -50 122q-16 6 -40 -8t-26 -14q-17 0 -29.5 12.5t-12.5 28.5q0 14 11 27q33 35 82 35q74 0 112 -67q64 82 170 82q92 0 154.5 -60
t62.5 -152zM692 -312q0 -158 -165 -158q-192 0 -328 162l-8 11q106 -100 321 -91q92 5 99 47q1 3 1 13l-2 248q-2 73 80 97z" />
    <glyph glyph-name="pwo.ghwa" unicode="&#x1070;" horiz-adv-x="960" 
d="M858 211q0 -90 -62.5 -150.5t-154.5 -60.5q-111 0 -177 89q-65 -89 -176 -89q-94 0 -155.5 59.5t-61.5 151.5q0 75 38 113q27 11 37 29q4 4 6 11q0 1 1 4v5q0 35 -55 54q-40 14 -82 14q-36 0 -66 -9q6 12 14 18q49 37 107 37t107 -34q53 -37 53 -94q0 -40 -35 -68
q-47 -30 -47 -80q0 -56 41 -94.5t98 -38.5q53 0 94.5 35t41.5 87v19q0 62 -56 100q-17 13 -17 32q0 42 38 42q11 0 24 -9q72 -51 88 -136q0 -170 140 -170q57 0 98 38.5t41 94.5q0 52 -39.5 92.5t-92.5 40.5q-22 0 -45.5 -25.5t-34.5 -25.5q-42 0 -42 38q0 42 40 68
q34 24 80 24q87 0 149.5 -62t62.5 -150zM772 -309q0 -167 -165 -167q-192 0 -328 170l-8 12q106 -105 321 -96q92 5 99 50q1 3 1 14l-2 261q-2 77 80 102z" />
    <glyph glyph-name="geba.i.vow.dot" unicode="&#x1071;" horiz-adv-x="3" 
d="M-140 634q0 -40 -26 -66.5t-66 -26.5q-39 0 -66 26.5t-27 66.5q0 39 27.5 65.5t65.5 26.5q39 0 65.5 -26.5t26.5 -65.5zM-211 634q0 20 -21 20q-22 0 -22 -20q0 -22 22 -22q21 0 21 22zM-420 634q0 -40 -26 -66.5t-66 -26.5q-39 0 -66 26.5t-27 66.5q0 39 27.5 65.5
t65.5 26.5q39 0 65.5 -26.5t26.5 -65.5zM-491 634q0 20 -21 20q-22 0 -22 -20q0 -22 22 -22q21 0 21 22z" />
    <glyph glyph-name="kayah.oe.vow.dot" unicode="&#x1072;" horiz-adv-x="659" 
d="M-182 661q0 -10 -4 -18q-53 -97 -166 -97q-81 0 -135 52t-54 132q0 79 54.5 131.5t134.5 52.5q98 0 148 -69q16 -23 16 -53q0 -56 -41 -56q-34 0 -34 36q0 11 7 20q-3 26 -38 42q-27 12 -58 12q-49 0 -85 -33.5t-36 -82.5t36 -82.5t85 -33.5q73 0 106 62q9 18 29 18
q35 0 35 -33z" />
    <glyph glyph-name="kayah.u.vow.dot" unicode="&#x1073;" horiz-adv-x="3" 
d="M-651 601l249 219q29 -25 217 -174q12 -10 53 -43l-11 -57l-257 195l-240 -197z" />
    <glyph glyph-name="kayah.ee.vow.dot" unicode="&#x1074;" horiz-adv-x="3" 
d="M-288 885q15 -10 45 -32q53 -53 53 -124q0 -75 -51.5 -126t-126.5 -51t-126 51.5t-51 126.5t51 124q20 19 42 31l40 -62q-62 -24 -62 -94q0 -47 29 -76.5t77 -29.5q44 0 73.5 29.5t29.5 73.5q0 72 -60 97z" />
    <glyph glyph-name="shan.ka" unicode="&#x1075;" horiz-adv-x="546" 
d="M42 50q35 -50 82 -50q41 0 70.5 29t29.5 71q0 41 -29.5 70t-70.5 29q-15 0 -29 -4q-14 13 -5 64q16 64 77 91q29 13 71 13q65 0 108 -43q38 -38 38 -103q0 -68 -38 -105q-15 -15 -23 -21q-12 -9 -29 -17l33 -58q41 19 67 46q58 62 55 153q-3 98 -60 154q-62 61 -154 61
q-95 0 -153 -60q-64 -66 -64 -153q0 -28 11 -53q17 -36 50 -36q10 1 22 4q10 1 23 1q33 0 33 -34q0 -33 -33 -33q-11 0 -29 15z" />
    <glyph glyph-name="shan.kha" unicode="&#x1076;" horiz-adv-x="517" 
d="M368 60q-61 -60 -160 -60q-112 0 -175 88q-26 36 -26 68q0 39 27 59t65 20q68 0 125.5 -45t64.5 -107q39 28 55 54q19 31 20 76q3 64 -40.5 106t-107.5 44q-7 -43 -27.5 -62t-65.5 -18q-44 1 -62 10q-24 13 -35 52l5 43l77 30q-18 -22 -18 -49q1 -11 12 -19.5t24 -8.5
q9 0 27 11q1 8 10 48q9 26 35 29q8 1 17 1q45 0 82 -16q32 -13 48.5 -25.5t36.5 -38.5q45 -59 45 -130q0 -102 -59 -160zM106 173q-32 -1 -32 -14q0 -7 18 -37q49 -54 114 -57l17 -1q-1 41 -44 81q-30 29 -73 28z" />
    <glyph glyph-name="shan.ga" unicode="&#x1077;" horiz-adv-x="529" 
d="M41 50l53 30q18 -14 29 -14q33 0 33 32q0 34 -33 34q-12 0 -23 -2t-21 -3q-34 -1 -50 35q-11 25 -11 53q0 86 63 152q58 59 152 59q91 0 152 -60q57 -56 60 -153q3 -91 -55 -151q-25 -28 -66 -46l-31 39q-28 36 -28 87q0 44 22 80q24 40 68 58q1 1 1 2q0 7 -5 19.5
t-8 15.5q-43 43 -107 43q-67 0 -105 -36q-33 -31 -42 -67q-9 -51 5 -64q15 4 29 4q41 0 70 -28.5t29 -69.5t-29 -70t-70 -29q-46 0 -82 50zM364 211q-36 -32 -36 -56q0 -22 7 -35q4 -6 10 -13q28 33 28 62q0 18 -9 42z" />
    <glyph glyph-name="shan.ca" unicode="&#x1078;" horiz-adv-x="892" 
d="M230 0q42 0 90 21l-24 57q-43 -14 -66 -14q-65 0 -106.5 40.5t-41.5 104.5q0 63 42.5 104.5t105.5 41.5q64 0 104.5 -40.5t40.5 -105.5v-6l2 -3q4 -91 62 -145.5t149 -54.5q93 0 152 59t59 150q0 95 -58 152t-153 57q-114 0 -179 -97q-64 97 -179 97q-93 0 -152 -57.5
t-59 -151.5q0 -91 59 -150t152 -59zM588 355q64 0 106.5 -41t42.5 -105q0 -63 -42.5 -104t-106.5 -41q-63 0 -104 41t-41 104q0 64 41 105t104 41z" />
    <glyph glyph-name="shan.za" unicode="&#x1079;" horiz-adv-x="874" 
d="M230 63q1 18 -3.5 34.5t-13.5 30.5t-22.5 24.5t-29.5 16t-33.5 5.5t-35.5 -6q2 -9 6 -17q11 -27 30.5 -46t45.5 -30.5t56 -11.5zM584 349q-29 0 -55.5 -11t-45.5 -30.5t-30.5 -45.5t-11.5 -56q0 -29 11.5 -55.5t30.5 -45.5t45.5 -30.5t55.5 -11.5q30 0 56 11.5t45.5 30.5
t30.5 45.5t11 55.5q0 30 -11 56t-30.5 45.5t-45.5 30.5t-56 11zM407 322q14 22 33 39.5t42 30t48.5 19.5t53.5 7q44 0 82.5 -16.5t67.5 -45.5t45.5 -67.5t16.5 -82.5q0 -43 -16.5 -82t-45.5 -67.5t-67.5 -45t-82.5 -16.5t-82.5 16.5t-67 45t-45.5 67.5t-17 82v10
q-1 28 -13 52.5t-31.5 42.5t-44.5 28t-53 10q-30 0 -56 -11t-45.5 -30.5t-30.5 -45.5q-8 -18 -10 -37q29 8 56.5 4.5t52 -15.5t44 -31.5t31 -44t14 -53t-6.5 -57.5q-1 -8 -6 -16q-7 -7 -17.5 -12t-25.5 -5q-44 0 -82.5 16.5t-67.5 45t-45.5 67.5t-16.5 82q0 44 16.5 82.5
t45.5 67.5t67.5 45.5t82.5 16.5q28 0 53.5 -7t48.5 -19.5t42 -30t33 -39.5z" />
    <glyph glyph-name="shan.nya" unicode="&#x107a;" horiz-adv-x="877" 
d="M430 216v-11q1 -28 12 -52.5t30 -43t44 -29t53 -10.5q29 0 54.5 11t44 30t29.5 44.5t11 54.5q0 28 -11 53.5t-29.5 44.5t-44 30t-54.5 11q-12 0 -21.5 2.5t-15 7t-8.5 10t-3 11.5q0 7 3 13t9.5 11.5t15 8.5t20.5 3q43 0 80.5 -16.5t65.5 -44.5t44 -65.5t16 -79.5
q0 -29 -7.5 -55t-20.5 -49t-32 -42t-42 -32.5t-49.5 -20.5t-54.5 -7q-42 0 -80 15q-33 15 -59 38v-270q0 -8 3 -14.5t7.5 -11.5t11.5 -7.5t14 -2.5h73q128 0 76.5 -5t164.5 20t55.5 -22t-204 -53.5t-62.5 -6.5h-30h-73q-21 0 -40 8t-33 22t-21.5 32.5t-7.5 40.5v403
q-1 8 -1 17q0 2 -1 7q0 28 -11 52.5t-30 43t-44 29t-53 10.5q-29 0 -54.5 -11t-44 -30t-29.5 -44.5t-11 -53.5q0 -29 11 -54.5t29.5 -44.5t44 -30t54.5 -11q12 0 21 -2.5t15 -7t9 -10t3 -11.5t-3 -12.5t-9.5 -11.5t-15 -8t-20.5 -3q-28 0 -54.5 7t-49.5 20.5t-42 32.5
t-32 42t-20.5 49t-7.5 55q0 42 16 79.5t44 65.5t65.5 44.5t80.5 16.5q42 0 79 -16t64.5 -43t44.5 -63t18 -78z" />
    <glyph glyph-name="shan.da" unicode="&#x107b;" horiz-adv-x="881" 
d="M411 326q15 22 34 40t42 30.5t49 19.5t55 7q44 0 83 -17t68 -46t46 -68t17 -83t-17 -83.5t-46 -68.5t-68 -45.5t-83 -16.5q-16 0 -26.5 5t-17.5 13q-5 7 -6 15q-10 30 -7 58.5t15 53.5t31 44.5t44 32t53 16t57 -4.5q-2 19 -10 37q-11 27 -30.5 46.5t-46 31t-56.5 11.5
q-29 0 -54.5 -10.5t-45 -29t-31.5 -43t-14 -52.5v-10q0 -44 -16.5 -83.5t-45.5 -68.5t-68.5 -45.5t-83.5 -16.5t-83 16.5t-68 45.5t-46 68.5t-17 83.5t17 83t46 68t68 46t83 17q28 0 54 -7t49 -19.5t42.5 -30.5t33.5 -40zM232 354q-30 0 -56.5 -11.5t-46 -31t-31 -46
t-11.5 -56.5t11.5 -56.5t31 -46t46 -31t56.5 -11.5t56.5 11.5t46 31t31 46t11.5 56.5t-11.5 56.5t-31 46t-46 31t-56.5 11.5zM591 64q30 0 56.5 11.5t46 31t30.5 45.5q4 9 6 18q-18 6 -36 6t-34 -5.5t-29.5 -16t-23 -24.5t-14 -31t-2.5 -35z" />
    <glyph glyph-name="shan.na" unicode="&#x107c;" horiz-adv-x="853" 
d="M430 181q3 -20 12 -38t22.5 -32.5t31 -25t37.5 -16.5q26 -7 50 -4.5t46 11.5q-12 22 -30 41.5t-43.5 34.5t-57 23t-68.5 6zM355 180q-38 3 -70 -4.5t-57 -22t-44 -34.5t-31 -41q22 -11 47.5 -13.5t51.5 4.5q20 6 37.5 16.5t30.5 25t22 32.5t13 37zM80 40q0 1 0.5 1.5
t0.5 1.5q-1 3 1 11t5.5 17t7.5 18t8 13q15 28 39 53.5t56 44.5t71.5 29t85.5 7l-2 9q-8 29 -25.5 51.5t-41.5 36t-52 18t-57 -3.5q-33 -9 -57.5 -30.5t-36.5 -50.5q-5 -11 -12.5 -16t-16.5 -5t-17 3t-13.5 10t-7 16t3.5 19q9 21 23 40.5t31.5 35t39 27t45.5 17.5
q34 10 68 7.5t64.5 -14.5t56.5 -33t45 -49q18 28 43.5 49t56.5 33t64.5 14.5t68.5 -7.5q24 -6 45.5 -17.5t39.5 -27t31.5 -35t23.5 -40.5q4 -10 2.5 -19t-7 -16t-13.5 -10t-17 -3t-16.5 5t-12.5 16q-13 29 -37 50.5t-57 30.5q-29 8 -57 3.5t-52 -18t-42 -36t-25 -51.5
q-1 -2 -1 -4t-1 -4q46 2 84.5 -8t70 -29t55.5 -44.5t39 -53.5q4 -6 8.5 -15t8 -17.5t5.5 -16.5t0 -13v0l-1 -1q-19 -14 -40.5 -24t-45.5 -15t-48.5 -4.5t-49.5 7.5q-40 10 -71.5 33.5t-51.5 55.5q-21 -32 -52.5 -55.5t-71.5 -33.5q-24 -7 -48.5 -7.5t-48 4.5t-45.5 14.5
t-41 24.5z" />
    <glyph glyph-name="shan.pha" unicode="&#x107d;" horiz-adv-x="866" 
d="M539 66q16 -3 32 -3q19 0 37.5 5t34 14t28.5 22t23 28q-23 14 -48 15t-47 -8.5t-38.5 -28t-21.5 -44.5zM763 115q-13 -26 -32.5 -48.5t-44.5 -38.5t-54 -25t-61 -9q-26 0 -50 6t-45.5 17t-40 26.5t-33.5 34.5q-14 -19 -32.5 -34.5t-40 -26.5t-46 -17t-49.5 -6
q-44 0 -83 16.5t-67.5 45.5t-45.5 67.5t-17 82.5q0 4 0.5 11t2 14.5t4.5 15.5t8 15q7 9 16.5 15.5t20 12t22.5 10t24 9.5q7 3 11.5 8t4.5 13q0 2 -1 6t-4 9t-7.5 9t-13 5.5t-20 -1t-26.5 -11.5q-10 -5 -18.5 -4.5t-14.5 5.5t-8.5 13t-1.5 16t6.5 16t15.5 12q29 14 57.5 15.5
t52 -8t38 -30t14.5 -52.5q0 -26 -9 -42t-23 -26t-31.5 -17t-34.5 -15q-7 -3 -11.5 -8t-4.5 -16q0 -29 11.5 -55.5t31 -46t45.5 -30.5t56 -11q22 0 42.5 6.5t37.5 18t30.5 28t21.5 35.5q-7 27 -7 55q0 44 16.5 83t45.5 67.5t67.5 45t82.5 16.5q27 0 51.5 -6t47 -17.5t41 -28
t33.5 -37.5q6 -9 6.5 -18t-3.5 -16.5t-11.5 -13t-15.5 -6.5t-17 2t-15 12q-20 28 -50.5 44.5t-66.5 16.5q-30 0 -56 -11.5t-45.5 -31t-30.5 -45.5t-11 -56q0 -36 16 -66t43 -50q8 26 24 47.5t37.5 36.5t47 22.5t52 6.5t53 -11.5t48.5 -31.5q5 -3 9 -7.5t6.5 -10.5t2 -12.5
t-3.5 -14.5z" />
    <glyph glyph-name="shan.fa" unicode="&#x107e;" horiz-adv-x="842" 
d="M758 122q-13 -27 -32.5 -49t-44.5 -38t-53.5 -25t-60.5 -9q-28 0 -53 7l-52 -410q-3 -27 -12 -44t-23 -26.5t-32.5 -13t-40.5 -3.5h-40q-12 0 -77.5 5t-153 25.5t-24 16t92.5 3t89.5 14t72.5 6.5h40q8 10 14.5 5.5t12 -1t10 11t7.5 21.5l51 419q-14 10 -26.5 21.5
t-22.5 25.5q-15 -19 -33.5 -34t-39.5 -26t-45 -17t-50 -6q-43 0 -81.5 16.5t-67.5 45t-45.5 67t-16.5 82.5q0 3 0.5 10t2 15t4.5 16t8 14q7 9 16 15.5t20 11.5t23 10l24 10q6 3 10.5 7.5t4.5 13.5q0 1 -1 5.5t-3.5 9t-7.5 9t-13 5.5t-19.5 -1t-27.5 -11q-9 -6 -17.5 -5
t-14 6t-8.5 12.5t-2 15.5t6.5 16t15.5 12q28 14 56.5 15.5t52 -8t37.5 -30t14 -51.5q0 -26 -8.5 -42t-22.5 -26t-31 -17t-34 -15q-8 -3 -12 -8t-4 -15q0 -30 11.5 -56t30.5 -45t45 -30.5t55 -11.5q22 0 42.5 6.5t37.5 18.5t30.5 28t21.5 35q-8 27 -8 55q0 43 16.5 81.5
t45.5 67t67 45t82 16.5q26 0 51 -6t47 -17.5t40.5 -28t33.5 -36.5q6 -9 6.5 -18.5t-3.5 -17t-11.5 -12.5t-15.5 -6t-17 2t-15 12q-20 28 -50 44t-66 16q-30 0 -55.5 -11t-45 -30.5t-30.5 -45.5t-11 -55q0 -36 16 -66t43 -50q8 26 23.5 47.5t37 36.5t47 22.5t51.5 6.5
t52.5 -11.5t48.5 -31.5q5 -3 9 -7.5t6.5 -10.5t2 -12.5t-3.5 -13.5zM536 73q15 -3 31 -3q19 0 37 4.5t33.5 13.5t28.5 22t23 28q-23 14 -47.5 15t-46.5 -8.5t-38 -28t-21 -43.5z" />
    <glyph glyph-name="shan.ba" unicode="&#x107f;" horiz-adv-x="533" 
d="M146 348q-27 -22 -42.5 -56.5t-15.5 -82.5v-4q21 7 36.5 23t23.5 35.5t8 42t-10 42.5zM101 149q9 -19 22.5 -34.5t30.5 -27t37.5 -18t42.5 -6.5q30 0 56.5 11.5t46 31.5t31 46.5t11.5 56.5q0 28 -5.5 52t-15.5 43t-23.5 33t-29.5 23q-10 5 -14.5 13.5t-4 17.5t5 16.5
t11.5 12.5t16.5 5.5t19.5 -4.5q25 -14 45.5 -35.5t35 -48.5t22 -59t7.5 -69q0 -44 -17 -83.5t-46 -69t-68.5 -46t-83.5 -16.5q-30 0 -57.5 7.5t-51.5 21.5t-44 33.5t-33.5 43.5t-21.5 51.5t-8 57.5q0 36 7.5 67.5t21.5 58t33.5 48t44.5 37.5q8 4 15 5t13 -0.5t11.5 -5.5
t8.5 -9q20 -23 30 -49t10.5 -52.5t-7 -51.5t-22.5 -46.5t-36 -37.5t-47 -24z" />
    <glyph glyph-name="shan.tha" unicode="&#x1080;" horiz-adv-x="869" 
d="M305 110q-24 29 -53.5 41.5t-59.5 11t-58 -15t-47 -36.5q20 -22 48.5 -35.5t61.5 -13.5q32 0 60 12.5t48 35.5zM26 346q15 19 33.5 34t40.5 25.5t46.5 16.5t50.5 6q30 0 57.5 -8t52 -22t44.5 -34t34 -44t22 -52t8 -58v-5q1 -30 12.5 -56t31.5 -45t46.5 -30.5t56.5 -11.5
q31 0 57.5 12t46.5 32t32 47t12 57q0 31 -12 57.5t-32 46.5t-46.5 31.5t-57.5 11.5q-18 0 -29.5 5.5t-17 13t-4.5 17t7 17t17 13t27 5.5q45 0 85 -17t69.5 -47t46.5 -69.5t17 -84.5t-17 -85t-46.5 -69.5t-69.5 -46.5t-85 -17q-29 0 -55.5 7t-50 20t-43 31t-34.5 41
q-14 -23 -34 -41t-43 -31t-50 -20t-55 -7q-27 0 -52 6t-47 17t-41 27t-34 36q-9 11 -8.5 22t6.5 19q16 29 39 49.5t51 33t58.5 17t60 0t57.5 -17.5t50 -36q3 11 5 22t2 22q0 31 -11.5 58t-31.5 47t-47 31.5t-57 11.5q-36 0 -65.5 -15t-50.5 -40q-7 -9 -16 -12t-18 -1
t-16 7.5t-10.5 13.5t-3 17.5t8.5 18.5z" />
    <glyph glyph-name="shan.ha" unicode="&#x1081;" horiz-adv-x="639" 
d="M542 167q-7 -42 -44.5 -37t-37.5 37q0 35 -13.5 66.5t-37 54.5t-54.5 36.5t-67 13.5q-26 0 -50 -7t-44.5 -20.5t-36 -32t-25.5 -40.5q27 -9 50 -25.5t40 -38.5t27.5 -48t13.5 -53.5t-2.5 -56t-21.5 -55.5l-55 -330q-4 -33 -14.5 -53t-27 -31.5t-38.5 -15.5t-48 -4h-10
q-14 0 -22.5 6t-13.5 15.5t-5 20t4.5 19.5t14 15t22.5 6h10q9 0 17 1t14.5 5t11.5 13t8 26l44 270q-55 38 -86 99.5t-31 143.5q0 52 20 98.5t54.5 81t80.5 54.5t99 20t99 -20t80.5 -54.5t54.5 -81t20 -98.5zM186 5q11 24 10.5 50t-10 49t-27.5 41t-43 26v-4q0 -56 18 -96
t48 -67q3 1 4 1z" />
    <glyph glyph-name="shan.wa.med.dot" unicode="&#x1082;" 
d="M-249 -230q-3 1 -6 1t-3 -3q-4 -48 -36.5 -78t-80.5 -30q-54 0 -87.5 33.5t-33.5 88.5q0 51 33.5 84.5t84.5 33.5q11 0 33 -3v87q-18 2 -30 2q-86 0 -144 -59t-58 -145t59 -144.5t145 -58.5q78 0 130.5 46t197.5 358q-165 -221 -204 -213z" />
    <glyph glyph-name="shan.aa.vow.dot" unicode="&#x1083;" horiz-adv-x="305" 
d="M-7 416h135v-817l301 -7l-163 -75h-215v821h-58v78z" />
    <glyph glyph-name="shan.e.vow.dot" unicode="&#x1084;" horiz-adv-x="471" 
d="M399 63q-30 -27 -79 -48q-68 -17 -109 -14l-52 3l-29 9l-26 13l-29 16l-25 25q-27 33 -27 62q0 41 40 79q2 4 -9 15q-15 16 -22 29q-11 22 -11 48q1 50 61 94l18 10q46 26 111 26t113 -17q15 -6 39 -21q19 -13 34 -31l-29 -47q-8 10 -37 25l-27 14l-30 13l-32 5h-26
l-33 -1l-18 -4l-15 -5l-20 -10q-25 -12 -33 -42q-2 -11 6.5 -25t21.5 -22q3 -2 27 14q27 18 55 18q58 0 88.5 -18t50.5 -62l-15 -32q-39 -52 -108 -52q-54 0 -101 32q-20 -13 -26 -36q0 -9 24 -32q15 -11 42 -21l22 -6l27 -2l43 2q16 0 29 4l24 8l20 10q14 7 38 31zM273 208
q-6 17 -15 20l-24 4q-9 2 -16 2q-20 0 -40 -19q-2 -2 -2 -4q0 -8 19.5 -15.5t35.5 -7.5q17 1 42 20z" />
    <glyph glyph-name="shan.eabove.vow.dot" unicode="&#x1085;" horiz-adv-x="3" 
d="M-154 584q-23 -21 -62 -38q-52 -13 -83 -11l-42 3l-22 7l-20 9l-22 14l-20 20q-21 25 -21 47q0 32 31 62q1 1 -16 22.5t-16 48.5q0 39 48 73l13 8q36 20 87 20q50 0 87 -13q12 -5 31 -17q15 -9 26 -23l-33 -52q-6 8 -26 19l-19 9l-21 8l-22 4h-18h-24l-12 -4l-10 -2
l-15 -7q-17 -9 -23 -30q0 -13 20 -25q2 -1 18 9q20 13 39 13q41 0 62.5 -12.5t34.5 -42.5l-10 -23q-28 -37 -75 -37q-38 0 -72 22q-4 -3 -10 -7t-7 -12q0 -6 16 -22q11 -7 29 -15l16 -4l19 -1l30 1q12 0 20 3l17 5l14 8q9 5 26 21zM-255 697q-4 11 -11 14l-16 3
q-23 3 -40 -12q-1 -1 -1 -4q0 -4 13.5 -10t24.5 -5q13 1 30 14z" />
    <glyph glyph-name="shan.finaly.vow.dot" unicode="&#x1086;" 
d="M-213 1010q62 0 95 -34q43 -45 44 -87q2 -73 -43 -151l-16 -29q-62 -106 -128 -150l-24 1l24 38l36 60l20 41l15 45q4 24 5 22q-2 5 -28 -1q-49 0 -86 36.5t-37 86.5q0 45 39 85q36 37 84 37zM-214 940q-14 0 -34 -12.5t-20 -44.5q0 -18 17 -40q14 -13 32 -13
q64 -3 66 55q2 55 -61 55z" />
    <glyph glyph-name="shan.tone2.dot" unicode="&#x1087;" horiz-adv-x="304" 
d="M116 8q-46 5 -69 27q-27 28 -27 68q0 42 26.5 69.5t69.5 27.5q39 0 69 -28q37 -35 37 -69q0 -1 1 -13.5t1 -22.5q0 -156 -204 -267q-4 -2 -7 -2q-6 0 -6 8q0 19 25 42q37 34 66 75q33 45 33 68q0 15 -15 17zM116 134q-30 0 -30 -31q0 -30 30 -30q31 0 31 30q0 31 -31 31z
" />
    <glyph glyph-name="shan.tone3.dot" unicode="&#x1088;" horiz-adv-x="332" 
d="M126 9q-50 6 -74 30q-30 30 -30 74q0 45 29 75t75 30q43 0 75 -30q41 -38 41 -75q0 -2 1 -15.5t1 -24.5q0 -169 -222 -290q-4 -2 -7 -2q-7 0 -7 9q0 20 27 45q40 37 72 82q36 49 36 74q0 16 -17 18zM126 146q-32 0 -32 -33t32 -33q34 0 34 33t-34 33zM136 309
q-44 0 -74 30t-30 74q0 45 29 75t75 30q45 0 75.5 -30t30.5 -75q0 -44 -31.5 -74t-74.5 -30zM136 446q-32 0 -32 -33t32 -33q34 0 34 33t-34 33z" />
    <glyph glyph-name="shan.tone5.dot" unicode="&#x1089;" horiz-adv-x="325" 
d="M250 94q0 -40 -26 -66.5t-66 -26.5q-39 0 -66 26.5t-27 66.5q0 39 27.5 65.5t65.5 26.5q39 0 65.5 -26.5t26.5 -65.5zM179 94q0 20 -21 20q-22 0 -22 -20q0 -22 22 -22q21 0 21 22z" />
    <glyph glyph-name="shan.tone6.dot" unicode="&#x108a;" horiz-adv-x="503" 
d="M221 127q-10 48 -36 70q-33 28 -76 24q-45 -4 -72.5 -35.5t-23.5 -76.5q4 -44 37 -73q41 -38 78 -34q33 2 67 5q62 12 116 58q73 63 126 185q2 3 2 6q0 7 -8 7q-21 0 -44 -31q-35 -44 -77 -81q-47 -40 -71 -40q-15 0 -18 16zM85 115q-3 31 30 34t36 -28q3 -35 -30 -38
t-36 32zM221 427q-10 48 -36 70q-33 28 -76 24q-45 -4 -72.5 -35.5t-23.5 -76.5q4 -44 37 -73q41 -38 78 -34q33 2 67 5q62 12 116 58q73 63 126 185q2 3 2 6q0 7 -8 7q-21 0 -44 -31q-35 -44 -77 -81q-47 -40 -71 -40q-15 0 -18 16zM85 415q-3 31 30 34t36 -28
q3 -35 -30 -38t-36 32z" />
    <glyph glyph-name="shan.cc.tone2.dot" unicode="&#x108b;" horiz-adv-x="300" 
d="M250 194q0 -40 -26 -66.5t-66 -26.5q-39 0 -66 26.5t-27 66.5q0 39 27.5 65.5t65.5 26.5q39 0 65.5 -26.5t26.5 -65.5zM179 194q0 20 -21 20q-22 0 -22 -20q0 -22 22 -22q21 0 21 22z" />
    <glyph glyph-name="shan.cc.tone3.dot" unicode="&#x108c;" horiz-adv-x="616" 
d="M260 224q0 -40 -26 -66.5t-66 -26.5q-39 0 -66 26.5t-27 66.5q0 39 27.5 65.5t65.5 26.5q39 0 65.5 -26.5t26.5 -65.5zM189 224q0 20 -21 20q-22 0 -22 -20q0 -22 22 -22q21 0 21 22zM530 224q0 -40 -26 -66.5t-66 -26.5q-39 0 -66 26.5t-27 66.5q0 39 27.5 65.5
t65.5 26.5q39 0 65.5 -26.5t26.5 -65.5zM459 224q0 20 -21 20q-22 0 -22 -20q0 -22 22 -22q21 0 21 22z" />
    <glyph glyph-name="shan.ce.tone.dot" unicode="&#x108d;" horiz-adv-x="3" 
d="M-593 -61v-87h443v87h-443z" />
    <glyph glyph-name="pl.fa" unicode="&#x108e;" horiz-adv-x="542" 
d="M392 59.5q-62 -59.5 -155 -59.5q-92 0 -154.5 60.5t-62.5 150.5q0 91 63 152t154 61q92 0 154.5 -60.5t62.5 -152.5t-62 -151.5zM360 270q-9 -42 -44 -69t-79 -27q-43 0 -78.5 27.5t-45.5 68.5q-15 -27 -15 -59q0 -56 41.5 -94.5t97.5 -38.5t97.5 38.5t41.5 94.5
q0 32 -16 59zM270.5 332q-14.5 14 -33.5 14q-48 0 -48 -47q0 -45 48 -45t48 45q0 19 -14.5 33zM232 81q-14 -3 -15 -3q-3 0 -15 3h8q3 -2 7 -2q6 0 8 2h7z" />
    <glyph glyph-name="pl.tone5.dot" unicode="&#x108f;" horiz-adv-x="394" 
d="M233 346q0 -39 -30 -70t-69 -31q-40 0 -69 32t-29 75q0 40 27.5 65t70.5 25q41 0 70 -28.5t29 -67.5zM161 346q0 26 -27 26q-24 0 -24 -18q0 -36 24 -36q27 0 27 28zM202.5 161.5q29.5 -28.5 29.5 -66.5q0 -40 -29 -71q-25 -27 -40 -29q-8 -63 3 -94q12 -38 39.5 -76
t88.5 -80q-72 19 -126.5 54t-84.5 88.5t-42 110.5t-6 97q1 41 27.5 67t70.5 28q40 0 69.5 -28.5zM160 95q0 24 -27 24q-24 0 -24 -18q0 -36 24 -36q27 0 27 30z" />
    <glyph glyph-name="sd.zero" unicode="&#x1090;" horiz-adv-x="553" 
d="M255 -1q-104 0 -167 74q-60 70 -60 174t61 175q64 74 166 74q101 0 164 -75q59 -71 59 -174q0 -101 -60 -172q-63 -76 -163 -76zM255 420q-70 0 -115 -52q-45 -50 -45 -121q0 -72 44.5 -122t115.5 -50q68 0 114 52q42 51 42 120q0 73 -46 123t-110 50z" />
    <glyph glyph-name="sd.one" unicode="&#x1091;" horiz-adv-x="382" 
d="M275 6h-153v354l-85 -39l42 64q42 64 67 110h47v-418l133 12z" />
    <glyph glyph-name="sd.two" unicode="&#x1092;" horiz-adv-x="498" 
d="M235 440q-123 0 -123 -127l-79 9l-14 87q14 0 23 -5l22 -8q24 53 60.5 80t112.5 27t138 -45q51 -36 51 -127q0 -17 -46 -70q-19 -23 -78 -71l-54 -44l-33 -31q-33 -30 -46 -48l10 -60l-28 -6l-29 -2q-17 -2 -28 3q-7 4 -13 13q10 96 98 166l91 72l38 35q40 35 40 66
q0 38 -39 64q-34 22 -74 22z" />
    <glyph glyph-name="sd.three" unicode="&#x1093;" horiz-adv-x="600" 
d="M444 27q-5 -14 -33 -25q-24 -10 -42 -10q-23 0 -23 17l2 11l6 33l3 30q4 49 -38 87q-38 34 -67 34l-15 -3l-94 -201l-72 85h25l170 410l-20 56l92 -83l-78 -209q53 -7 81 -22q81 -44 81 -141v-32l-5 -24l17 -9z" />
    <glyph glyph-name="sd.four" unicode="&#x1094;" horiz-adv-x="565" 
d="M226 250l-118 -251l-91 106l42 -13l189 372l32 39l83 -70l64 -328l46 19l-119 -123l-52 362l-24 -5z" />
    <glyph glyph-name="sd.five" unicode="&#x1095;" horiz-adv-x="541" 
d="M314 106v124h-61l-30 -3q-15 0 -39 -3l-19 -12q-5 -5 -9 -19l-6 -42l5 -28q5 -27 27 -42l44 -1l64 -1zM361 -1h-145q-32 0 -51 10q-14 6 -41 33q-37 34 -53 113l2 40q0 20 14 42q19 29 50 51l15 11l135 5l28 4l-1 202l70 -41v-164h59v-75h-59v-198z" />
    <glyph glyph-name="sd.six" unicode="&#x1096;" horiz-adv-x="546" 
d="M442 200h-59v-165l-71 -41l1 203l-61 4l-102 5l-25 18q-19 15 -40 42q-11 18 -15 43l-3 42q21 104 94 144q23 12 53 12h145l24 -32v-199h59v-76zM312 276v124l-25 28h-66q-36 0 -42 -3q-23 -15 -27 -35l-5 -35l6 -42q0 -12 9 -20l18 -12l39 -3h26l32 -2h35z" />
    <glyph glyph-name="sd.seven" unicode="&#x1097;" horiz-adv-x="543" 
d="M431 393l-257 -301l11 -26l229 9l-13 -72h-279l-44 23l-3 49l270 311l-24 41l-244 -10l28 78h254l37 -46z" />
    <glyph glyph-name="sd.eight" unicode="&#x1098;" horiz-adv-x="600" 
d="M493 173q0 -35 -16 -65q-10 -18 -48 -52q-66 -58 -157 -58q-99 0 -159 56q-32 28 -47 53t-15 69q0 68 78 110l-30 21q-20 18 -20 54q0 52 31.5 95.5t80.5 65.5l19 -38l9 -26l4 -16q-54 -35 -54 -69q0 -28 32.5 -46.5t70.5 -18.5q37 0 68.5 21.5t31.5 48.5q0 36 -55 61
l6 26q12 56 38 50q48 -21 76.5 -62.5t28.5 -93.5q0 -31 -19 -48q-9 -9 -46 -29q92 -14 92 -109zM405 171q0 24 -61 60q-34 20 -77 20q-33 0 -73 -20q-59 -28 -59 -58q0 -22 17 -47.5t35 -37.5q31 -21 80 -21q60 0 94 28q44 43 44 76z" />
    <glyph glyph-name="sd.nine" unicode="&#x1099;" horiz-adv-x="575" 
d="M479 336q0 33 -16 62q-9 18 -47 51q-63 56 -151 56q-96 0 -154 -54q-31 -28 -45.5 -51.5t-14.5 -66.5q0 -67 76 -107l-29 -20q-20 -18 -20 -53q0 -51 30.5 -92.5t77.5 -62.5l19 36l8 26l5 15q-52 33 -52 66q0 27 31 45.5t68 18.5q36 0 66.5 -21t30.5 -48q0 -34 -53 -58
l5 -25q11 -55 37 -48q46 19 73.5 60t27.5 91q0 30 -18 46q-9 8 -44 28q89 13 89 106zM393 337q0 -23 -58 -58q-33 -19 -75 -19q-32 0 -71 18q-56 28 -56 58q0 20 17 46q16 23 33 36q29 20 77 20q58 0 91 -27q42 -41 42 -74z" />
    <glyph glyph-name="KTT_1" unicode="&#x109a;" horiz-adv-x="332" 
d="M260 334q0 -40 -26 -66.5t-66 -26.5q-39 0 -66 26.5t-27 66.5q0 39 27.5 65.5t65.5 26.5q39 0 65.5 -26.5t26.5 -65.5zM189 334q0 20 -21 20q-22 0 -22 -20q0 -22 22 -22q21 0 21 22z" />
    <glyph glyph-name="KTT_3" unicode="&#x109b;" horiz-adv-x="315" 
d="M129 674q-49 6 -73 30q-30 30 -30 74q0 45 29 75t74 30q44 0 76 -30q41 -38 41 -75q0 -2 1 -15.5t1 -24.5q0 -169 -222 -290q-5 -2 -8 -2q-7 0 -7 9q0 20 27 45q40 37 73 82q35 49 35 74q0 16 -17 18zM129 811q-31 0 -31 -33t31 -33q35 0 35 33t-35 33z" />
    <glyph glyph-name="VSAT_A" unicode="&#x109c;" horiz-adv-x="505" 
d="M213 421q-10 -48 -36 -70q-33 -27 -76 -24q-45 4 -72.5 36t-23.5 77q4 43 37 72q41 38 78 35q33 -3 67 -6q62 -12 116 -58q73 -63 126 -184q2 -4 2 -7q0 -7 -8 -7q-21 0 -44 31q-35 44 -77 81q-47 40 -71 40q-15 0 -18 -16zM77 433q-3 -31 30 -34t36 29q3 34 -30 37
t-36 -32zM213 121q-10 -48 -36 -70q-33 -27 -76 -24q-45 4 -72.5 36t-23.5 77q4 43 37 72q41 38 78 35q33 -3 67 -6q62 -12 116 -58q73 -63 126 -184q2 -4 2 -7q0 -7 -8 -7q-21 0 -44 31q-35 44 -77 81q-47 40 -71 40q-15 0 -18 -16zM77 133q-3 -31 30 -34t36 29
q3 34 -30 37t-36 -32z" />
    <glyph glyph-name="VSAT_AI" unicode="&#x109d;" horiz-adv-x="3" 
d="M-98 530h-84v250l-1 9q-2 15 -17.5 30.5t-36.5 15.5q-44 0 -53 -51l-90 -2q1 26 16 57q39 82 128 82q56 0 99 -42q18 -18 28 -39l11 -55v-255z" />
    <glyph glyph-name="shan.one" unicode="&#x109e;" horiz-adv-x="475" 
d="M98 585q0 45 31 75.5t76 30.5q43 0 74 -31.5t31 -74.5t-31 -74t-74 -31q-45 0 -76 30.5t-31 74.5zM166 585q0 -16 11 -27t28 -11q16 0 28.5 11t12.5 27q0 17 -12 28.5t-29 11.5q-39 0 -39 -40zM389 -420h-210l3 758l-71 1l1 80l156 1v-753h120z" />
    <glyph glyph-name="shan.xcla" unicode="&#x109f;" horiz-adv-x="805" 
d="M505 580l-44 -5l-35 1l-34 10q-60 16 -123 116l-12 37l-7 45q0 121 126 197l42 15l44 5l25 -1q15 -1 25 -7l52 -20q58 -23 89 -104l-17 -15l-40 -27q-12 37 -53 72q-35 29 -82 29q-57 0 -97.5 -41.5t-40.5 -98.5q0 -30 3 -32q0 -9 13 -35q4 -20 46 -49l18 -12l19 -7
l42 -8q23 0 36 7q72 -13 118 -55q23 -22 67 -88v-930h-213v682q0 74 -55.5 130t-130.5 56q-77 0 -131.5 -54.5t-54.5 -131.5q0 -76 53 -132q49 -54 133 -54h11l-11 -94q-113 0 -196 83.5t-83 196.5q0 114 82.5 196.5t196.5 82.5q115 0 197 -82.5t82 -196.5v-628h39v844
l-29 44z" />
    <glyph glyph-name="lang_mymr" unicode="&#x1700;" horiz-adv-x="1135" 
d="M154 302q-21 -11 -29 -24v1q-24 -38 -24 -104q0 -17 4 -37q33 33 79 33q45 0 76 -33q4 20 4 37q0 66 -24 103v-1q-15 18 -30 26l22 58q54 -38 71 -107q8 -36 8 -79v-366q0 -54 -40 -54h-229q-42 0 -42 55v740q0 54 42 54h226q41 5 41 -54v-119h-46v117h-215v-734h217v221
q-33 -38 -81 -38q-90 0 -120 108q-9 32 -9 70q0 89 35 147q24 24 47 38zM482 351q26 -8 48 -28l-24 -52q-31 27 -55 27q-21 0 -28 -10q2 -12 41 -30q2 -2 5 -2q74 -29 97 -64q11 -18 10 -39q-2 -58 -34 -102v1q-26 -38 -67 -49v-248h-48v247q-27 6 -47 22q-12 7 -20 22l-5 6
q-5 8 -24 49q-3 12 -3 27q0 43 33 59q19 9 48 9q30 0 49 -31q17 -27 17 -59v-41q23 13 33 28t17 33l-1 -1q4 25 -22 46q-18 15 -59.5 34.5t-58.5 33.5q-28 22 -23 46q10 51 55 66q-58 29 -58 124q0 58 26.5 94.5t68.5 36.5q51 0 78 -56q4 -10 9 -25l-42 -26q-3 10 -13 29
l-1 2q-13 19 -32 19q-48 0 -48 -74q0 -26 10 -46q12 -26 36 -26h4l9 9zM878 66q16 -8 27 -8q30 0 55 32q24 37 24 85q0 42 -18 77q-22 42 -61 42q-34 0 -57 -32q-7 -10 -16 -34q3 -18 3 -53q0 -67 -30 -118q-35 -60 -98 -60q-44 0 -77 33q-29 29 -42 75q-10 32 -10 70
q0 89 40 150q10 15 42 36l18 -59q-16 -8 -29 -24l1 1q-25 -42 -25 -104q0 -17 4 -37q37 33 78 33q45 0 77 -34q4 20 4 38q0 65 -24 103v-1q-15 18 -30 26l19 58q30 -18 47 -42q4 -6 10 -19l1 1l1 1q33 50 93 50q57 0 91 -51t34 -126q0 -77 -33.5 -126t-91.5 -49q-20 0 -38 7
zM184 111q-31 0 -55 -28q24 -27 55 -27q27 0 52 27q-24 28 -52 28zM707 111q-29 0 -54 -28q27 -27 54 -27q28 0 53 27q-24 28 -53 28zM410 135q-28 0 -28 -15q11 -48 45 -57v43q0 29 -17 29z" />
    <glyph glyph-name="uni1950" unicode="&#x1950;" horiz-adv-x="455" 
d="M319 528l22 -7l15 -15l14 -21l9 -18l14 -38l15 -78l13 -80l16 -96l6 -80v-5l1 -5v-4l-1 -7l-2 -8l-2 -6l-4 -8l-2 -7l-3 -9l-4 -7l-5 -8l-3 -6l-3 -3l-3 -3l-3 -3l-8 -4l-6 -1l-6 -1l-7 1h-8l-6 4l-5 3l-6 4l-5 6l-2 7v7l-3 13l-4 28l-6 37l-5 38l-5 39l-7 34l-6 37
l-7 35l-13 68l-6 30l-3 16l-1 8l-1 6l-2 4l-1 2l-1 2l-2 2h-5l-5 -1l-7 -3l-8 -5l-14 -18l-16 -24l-11 -18l-13 -16l-13 -17l-14 -18l-6 -9l-6 -11l-7 -9l-8 -8l-4 -3l-5 -2l-4 -2l-4 -2l-5 1l-5 2l-4 2l-4 3l-10 10l-6 10l-6 7l-5 7l-6 7l-7 11l-7 12l-5 7l-3 7l-5 3l-6 -1
l-5 -2l-4 -3l-5 -4l-4 -4l-5 -7l-6 -8l4 17l4 18l6 21l7 19l8 18l9 15l9 13l9 8l8 7l10 7l10 6l14 2l13 -1l10 -5l14 -8l8 -11l6 -13l5 -14l4 -17l3 -7l3 -4l4 -1l4 2l21 25l18 21l31 42l18 24l23 18z" />
    <glyph glyph-name="uni1951" unicode="&#x1951;" horiz-adv-x="477" 
d="M343 535l8 -2l11 -6l9 -11l16 -34l11 -41l13 -57l12 -61l6 -86l7 -101v-35l-4 -28l-6 -13l-10 -13l-14 -8l-15 -2l-8 6l-7 6l-5 5l-5 6l-3 5l-4 6h-1l-4 -4l-2 -4l-6 -9l-6 -7l-7 -8l-7 -4l-10 -6l-8 -4l-6 -4l-8 -3l-10 -5l-14 -4l-10 -3l-7 -2l-5 -1l-6 1l-9 2l-12 3
l-13 2l-7 2l-7 2l-7 6l-7 5l-6 6l-7 8l-3 8l-3 10l1 6l1 6l1 5v4l-3 14l-2 13l-4 15l-4 13l-2 5l-3 4l-2 3l-3 3l-12 7l-6 4l-2 2l-1 3l-1 3l1 5l1 4l2 5l2 6l4 6l4 6l5 6l6 4l7 5l9 8l10 6l10 7l17 5l15 6h8l7 2l7 1h3l3 -2l2 -2l3 -2l1 -1l3 -1l6 1l5 2l5 2l4 4l9 8l16 12
l17 14l9 7l7 4l2 3l1 4l1 15l-1 20l-2 11l-1 8l-6 25l-6 24l-5 24l-6 24l-4 7l-3 6l-2 4l-2 5l-4 3l-3 3h-5h-5h-4l-8 -3l-8 -4l-7 -4l-6 -7l-6 -8l-11 -14l-11 -14l-10 -14l-24 -23l-16 -16l-22 -18l-22 -6l-18 -5l-16 3l-14 15l-15 13l-14 12l-7 3l-8 2l-9 1l-10 1l-8 -1
l-8 -2l-8 -2l-9 -2l6 7l5 7l6 7l4 7l6 6l4 7l11 12l10 14l11 13l10 14l6 6l5 7l7 5l10 6l10 5l8 1l12 3l8 1h10l8 -2l7 -4l6 -5l5 -8l7 -11l4 -7l3 -8l2 -5l2 -2h2h3l5 1l5 3l6 5l7 4l8 6l12 8l11 8l19 9l18 10l18 8l15 6l12 1l13 1l11 1zM338 254h-1l-2 -2l-2 -1l-3 -3
l-9 -7l-18 -13l-2 -3l-2 -2l-2 -4l-2 -6l-1 -5v-6l-1 -6l1 -11l2 -13l3 -18l2 -23l2 -16l-1 -11q2 -9 5 -13h5l5 3l9 4l5 6l4 2l3 3l2 1l-1 14v6l-1 4v3l3 4l3 4l1 3l3 3v2l-4 79q-2 18 -6 22z" />
    <glyph glyph-name="uni1952" unicode="&#x1952;" horiz-adv-x="474" 
d="M277 539l14 1l18 -10l10 -9l14 -17l19 -25l19 -34l14 -39l27 -105l16 -79l11 -78l1 -20l-2 -23l-4 -18l-5 -16l-6 -20l-5 -8l-6 -9l-5 -5l-5 -4l-8 -5l-7 -3l-7 -3l-7 -1l-7 3l-7 4l-7 5l-4 3l-4 6l-6 12l-5 20l-6 18l-6 39l-18 110l-21 121l-16 71l-8 17l-7 17l-4 6
l-2 2h-3l-5 -1l-4 -3l-10 -7l-9 -8l-11 -13l-10 -14l-9 -17l-9 -16l-4 -9l-2 -4l-2 -4v-5l1 -6l1 -11l2 -11l3 -23l3 -33l3 -44l2 -48l1 -46l-4 -46l-4 -17l-4 -17l-4 -11l-4 -7l-5 -9l-6 -6l-5 -6l-5 -6l-6 -4l-9 -4l-13 -6h-7l-7 2l-5 4l-6 3l-3 4l-1 5l-1 5l-2 15l-5 24
l-27 150l-14 74l-15 67l-8 22l-2 3l-2 3l-3 2l-6 4l-7 4l-6 3l-4 2l-2 2v2l2 4l3 6l3 5l6 7l6 9l13 20l13 19l14 21q10 11 25 16l14 3h6h7l3 -2l6 -2l5 -3l8 -4l7 -6l5 -6l5 -6l5 -7l5 -11l5 -14l2 -10l3 -9l3 -6l2 -6l2 -5l1 -3h2l1 2l2 2l5 9l6 10l11 16l9 14l12 15l13 15
l16 15l14 12q11 13 26 18z" />
    <glyph glyph-name="uni1953" unicode="&#x1953;" horiz-adv-x="689" 
d="M499 572l5 3h4l7 -1l8 -4l6 -6l8 -7l11 -17l9 -18l10 -22l8 -20l8 -23l6 -25l4 -19l4 -20l8 -39l13 -54l5 -22v-9l1 -13l-1 -9l-5 -13l-3 -12l-6 -13l-7 -17l-4 -9l-2 -4l-3 -5l-5 -2l-4 -3l-5 -2l-2 -1l-3 -1l-2 -4v-13v-8l-1 -3l-1 -3l-1 -1h-3l-2 1l-4 2l-3 2l-4 2
l-4 6l-2 2l-1 3l-2 -8l-1 -7l-4 -11l-1 -9l-6 -18l-5 -17l-2 -14q-5 -15 -8 -25l-4 -5l-3 -5l-3 -6l-4 -7l-5 -6l-4 -3l-6 -3l-6 -1l-11 -5l-11 -2l-10 1l-10 7l-5 3l-3 3l-6 8l-9 13l-9 11l-5 5l-3 5l-2 4l-18 51l-17 50l-34 102l-17 52l-17 50l-18 51l-18 50l-2 10l-4 5
l-5 8l-3 3l-3 2l-4 -1l-3 -2l-4 -3l-7 -12l-11 -23l-17 -39l-15 -41l-9 -20l-3 -12l-2 -4l-4 -5l-5 -10l-4 -6l-6 -10l-9 -8l-7 -5l-10 -5l-10 -5l-5 -2l-11 -1h-11l-7 1l-9 3l-10 11l-13 9l-10 10l-6 5l-4 1l-2 2h-3l-4 -2l-6 -3l-10 -13l-9 -15l-12 -14l-11 -13l-6 -6
l6 19l12 39l7 21l8 23l7 22l8 24l8 23l8 21l11 19l8 13l11 11l11 8l10 6l7 2h5l4 -2l5 -4l10 -9l9 -9l7 -12l7 -11l9 -17l10 -18l4 -9l4 -5l2 -1l1 1l6 6l4 6l8 12l8 14l8 14l9 20l11 20l10 19l8 12l11 9l11 7l11 7l12 4l10 3h8l9 -1l8 -3l12 -6l7 -5l6 -6l6 -11l4 -7
l10 -20l17 -39l9 -23l9 -20l4 -12l5 -11l3 -5l3 -1l3 3l4 8l8 22l11 28l12 32l7 14l6 16l10 19l10 17q9 16 19 20zM452 430q-18 -39 -27 -61l-2 -11l-2 -11l-1 -5l-1 -4l1 -6l7 -22l9 -19l48 -167l1 -8l3 -8l1 -8v-3l2 -3l1 1l3 5l4 5l5 8l5 11l7 14l8 60l4 9l2 6l1 5l1 5
l-1 4l-1 3l-1 9l-3 10v8l-50 149l-3 4l-4 5q-4 6 -8 11l-4 4l-3 1z" />
    <glyph glyph-name="uni1954" unicode="&#x1954;" horiz-adv-x="684" 
d="M525 610l13 -4l15 -15l12 -22l8 -29l6 -28l9 -62l9 -65l9 -77l3 -63l3 -30l3 -14l1 -13l-2 -17l-3 -16l-12 -29l-13 -17l-16 -9l-10 -4l-12 2l-8 6l-8 8l-10 21l-4 7l-3 2l-4 -2l-3 -3l-5 -8l-7 -11l-37 -62l-13 -18l-15 -14l-14 -11l-13 -8l-16 -6l-13 -1l-9 3l-8 4
l-11 11l-12 25l-13 40l-10 50l-33 218l-13 39l-6 19l-7 20l-4 8l-4 2l-4 1h-4l-7 -6l-7 -8l-9 -14l-12 -16l-10 -17l-8 -17l-6 -14l-6 -12l-5 -14l-7 -11l-6 -12l-8 -10l-9 -6l-8 -5l-9 -6l-8 -1h-7l-7 2l-7 2l-9 4l-9 6l-14 17l-6 9l-4 5l-4 4l-5 2l-4 2h-4l-5 2h-4l-4 -2
l-4 -2l-6 -6l-9 -8l-9 -11l-8 -12l-13 -20l9 40l13 36l21 46l17 33l16 27l15 19l7 4l7 5l9 5l9 3l10 1l7 -1l7 -2l4 -3l4 -5l4 -4l6 -8l4 -7l8 -16l11 -23l3 -9l3 -8l2 -2h2l2 2l5 4l4 6l5 8l13 19l6 11l8 12l9 11l10 14l12 14l13 11l11 13l13 9l18 6h10l12 -4h8l7 -5l8 -8
l7 -8l7 -11l7 -19l11 -41l11 -56l10 -62l5 -35l8 -50l8 -32l7 -30l5 -28l3 -17l2 -3l3 -2h3l14 14l15 16l8 9l6 9l7 6l6 9l4 8l2 8l3 8l1 7l1 48l-4 63l-9 68l-14 63l-10 27l-10 17l-5 16l3 17l5 17l14 24l13 19l18 12z" />
    <glyph glyph-name="uni1955" unicode="&#x1955;" horiz-adv-x="671" 
d="M473 609l7 -3l12 -7l8 -9l6 -9l5 -10l5 -12l7 -15l27 -100l33 -132l14 -74l8 -57l2 -16l1 -13v-13v-7v-10l-2 -10l-4 -9l-5 -9l-2 -5l-6 -6l-4 -2l-6 -1l-7 -1l-6 -3l-7 -3l-22 5l-8 8l-6 7l-4 6l-3 5l-3 16l-3 15l-6 32l-25 117l-3 8l-2 4l-1 1l-2 -3l-2 -5l-3 -10
l-6 -21l-13 -34l-11 -24l-10 -19l-13 -27l-7 -8l-6 -7l-4 -5l-6 -4l-6 -3h-6h-8l-7 5l-8 3l-9 7l-9 10l-8 15l-17 28l-6 9l-4 4l-3 1l-4 1l-2 -1l-5 -2l-8 -11l-10 -19l-9 -21l-7 -19l-7 -21l-10 -31l-12 -30l-8 -25l-6 -10l-2 -7l-16 -9l-7 -5l-13 1l-5 1l-9 12l-4 6l-5 7
l-6 11l-3 14l-57 237l-24 83l-6 8l-5 10l-7 9l-4 3l-5 4l-5 1l-4 1h-3l-5 -1l-4 -1l-5 -2h-2l-2 3v5l2 6l2 7l4 11l10 20l16 30l9 15l6 7l4 6l7 8l8 5l10 3l8 3h12l9 -4l11 -6l11 -8l5 -10l4 -9l10 -20l8 -25l11 -35l13 -41l18 -87l14 -75l7 -40l3 -20l2 -10l2 -10l3 -1v3
l2 3l3 5l2 6l14 42l13 32l11 22l11 18l13 17l16 15l13 6l8 3l9 1l8 -1l8 -3l7 -8l7 -8l6 -11l5 -11l4 -12l4 -12l2 -11l1 -6l1 -4l3 -2l3 1l3 4l3 3l3 5l5 8l11 14l10 20l12 24l7 15l2 5l2 5l1 3v7v9l-2 6l-48 159l-4 12l-1 17l1 15l2 16l4 12l8 11l24 17l11 5l6 1h7z" />
    <glyph glyph-name="uni1956" unicode="&#x1956;" horiz-adv-x="698" 
d="M268 621q17 -2 30 -26l21 -49l14 -40l17 -49l9 -25l4 -14l2 -6l2 -6h1h2l5 8l2 7l6 14l5 11l7 12l9 23l9 24l3 11l6 11l5 12l8 11l8 13l12 16l6 8l9 7l7 2l8 1l11 1q20 -3 36 -22l20 -42l18 -43l19 -50l27 -111l14 -58l6 -28l3 -14l2 -7l1 -9l-1 -6l-2 -6l-3 -14l-5 -28
q-11 -23 -28 -34l-17 -7l-8 -4l-8 -4l-8 -2h-9l-8 1l-5 1l-4 6l-3 7l-5 12l-3 12l-4 14l-8 26l-7 30l-14 57l-14 58l-25 81l-7 20l-3 8l-2 6l-1 5l-2 4l-4 1h-1l-3 -1l-4 -3l-5 -12l-10 -22l-8 -23l-8 -26l-8 -29l-1 -12l-3 -12l-2 -11l-2 -9l-3 -9l-3 -8l-8 -16
q-15 -31 -30 -44l-5 -4l-7 -3h-5l-5 3l-6 3l-5 3l-6 3h-5q-6 -5 -10 -25l-13 -51l-4 -24l-5 -13l-2 -14l-6 -14l-5 -13l-10 -25l-10 -16l-5 -8l-9 -7l-8 -6l-12 -6l-12 -4l-7 -4h-9l-8 5l-10 9l-11 8l-9 9l-8 8l-7 10l-12 18l-40 86l-34 93l-7 14l-6 9l-5 6l-4 4l-3 4h-4
l-6 2h-10h-7l-4 2l-4 2v5l2 10l1 11l5 17l10 31l16 25l18 25l20 16l22 16l17 8l14 5h8l7 -1l5 -4l8 -5l8 -9l4 -6l6 -9l8 -9l5 -8l2 -4h2h2v10l2 10l1 8l2 9l4 13l3 24l6 21l3 15l5 17l6 22l4 10l2 9l5 9l5 8l9 12l11 9l13 8l14 6l9 2h9zM182 418l-2 -6l-2 -8l-2 -9l-1 -8
l-2 -7v-5l-1 -8l-3 -8v-5l3 -5l1 -7l4 -10l8 -21l8 -21l8 -24l7 -30l6 -31l6 -32l4 -16l2 -8l2 -8l2 -1l2 1l2 4l4 6l1 6l7 15l6 21l7 19l4 9l2 8l2 7v12l-2 11l-2 7l-5 9l-26 67l-13 33l-7 18l-2 7l-5 9q-11 20 -19 15l-2 -3z" />
    <glyph glyph-name="uni1957" unicode="&#x1957;" horiz-adv-x="739" 
d="M243 598l16 6l21 -8l28 -17l26 -26l18 -35l31 -86l10 -22l6 -6l6 -1q12 8 18 32l29 81l21 30l13 11l13 7h15l16 -7l29 -20l30 -48l30 -72l15 -35l18 -54l7 -44q-2 -19 -9 -45l-20 -32l-27 -20l-12 -14l-5 -6l-8 -7l-11 -46l-8 -48l-14 -39l-20 -30l-22 -12l-12 -7l-15 -5
l-13 1l-26 23l-25 27l-40 63l-34 84l-9 11l-9 -2l-8 -11l-24 -83l-16 -37l-24 -30l-32 -12l-31 9l-26 25l-21 35l-86 196l-20 34l-27 23q-19 0 -21 17v8l3 9l3 4l17 36l25 35l19 19l23 20l17 6l19 -5l31 -25l5 -6l8 1l7 9l5 9l34 80l19 29zM190 446l-18 -31l-3 -21l2 -18
l51 -191l16 -35l6 -7l8 1l4 3l5 11l22 79l2 35l-4 18l-64 146q-9 37 -27 10zM452 399l-16 -31l-6 -45l7 -51l40 -115l17 -31l8 -12l13 8l15 32l7 42v34l-15 54l-46 101q-12 23 -24 14z" />
    <glyph glyph-name="uni1958" unicode="&#x1958;" horiz-adv-x="638" 
d="M391 699l16 2l16 -7l14 -16l15 -22l14 -37l84 -448l5 -55v-48l1 -25v-23l-2 -12l-5 -8l-7 -7l-5 -7l-13 -12l-15 -10l-6 -4l-7 -1l-6 2l-8 5l-6 6l-9 6l-4 9l-5 9l-8 19l-12 45l-25 149q-4 24 -15 49l-2 7l-3 6l-1 2h-2l-2 -5l-4 -5l-103 -130l-27 -24l-12 -11l-13 -10
l-15 -7l-15 -6l-15 -6l-15 -4l-20 -2l-18 2l-14 4l-15 4h-21l-10 -1l-12 -3l-13 -9l-11 -14l-7 -7q-4 -8 -8 -19l-8 -15l-4 -2h-6l-2 12l-1 6v10l1 14l1 17l3 15l2 16l6 23l7 24l17 43l43 65l27 19l34 6l31 -5l42 -25l23 -16l20 -7l18 -2l60 24l13 11l14 14l11 14l6 9l4 10
l3 5l2 8l-2 9l-18 60l-20 59l-19 60l-10 31v41l7 31l17 42l23 34q11 11 26 19z" />
    <glyph glyph-name="uni1959" unicode="&#x1959;" horiz-adv-x="509" 
d="M351 611l15 -6l12 -18l19 -32l11 -39l37 -268l-1 -27l-4 -24l-7 -22l-9 -19l-11 -12l-10 -9l-15 -4l-14 -1l-30 -3l-23 -12q-12 -9 -21 -30l-18 -32l-21 -24l-25 -15l-25 -16l-32 -4l-30 9l-25 26l-20 32l-15 36l-18 81l-19 133l-19 80l-15 36l-21 30l-4 9l-3 12l-1 16
l2 6l2 6l23 17l27 13l28 6h29l34 -11l30 -24l17 -32l15 -36l9 -43l8 -47l13 -184q2 -30 15 -33l18 7l50 57l9 14l2 10v12l-4 57l-33 220l-6 29l3 20l10 14l10 14l23 20l14 7z" />
    <glyph glyph-name="uni195A" unicode="&#x195a;" horiz-adv-x="773" 
d="M345 690l12 -4l9 -11l15 -20l13 -27l10 -27l15 -41l36 -131l28 -121l31 130l8 24l11 18l15 16l18 9l18 4l18 -3l19 -1l15 -14l15 -24l19 -52l18 -61l15 -62l5 -44l-5 -23l-6 -14l-6 -18l-8 -11l-6 -11l-13 -11l-19 -2l-26 10l-19 17l-5 -30l-6 -24l-9 -26l-15 -37
l-30 -43l-20 -13l-26 -7l-17 -4l-22 3l-19 14l-19 18l-16 27l-20 57l-20 62l-8 35l-18 -61l-9 -32l-10 -27l-13 -31l-14 -26l-15 -22l-18 -13l-26 -4l-27 5l-22 10l-19 11l-28 35l-16 26l-10 25l-10 27l-34 96l-9 20l-17 16l-21 11l-6 20l15 42l15 34l30 43l35 31l24 7
l23 -7l20 -20l22 -32l18 -40l48 -203l5 -25l4 -8l9 -3l15 9l19 31l21 35l7 16l6 15l-6 40l-16 86l-23 94l-21 57l-7 11l-10 9l-6 15l-2 19l3 18l5 20l13 28l10 21l19 24l18 16l14 3zM517 359l-11 -22l-9 -36l-7 -23l3 -35l16 -81l12 -40l11 -18l14 -3l11 11l11 12l8 13l9 20
l6 23l3 11l-14 16l-9 16l-25 107l-8 29l-5 8h-6z" />
    <glyph glyph-name="uni195B" unicode="&#x195b;" horiz-adv-x="543" 
d="M385 635l15 -2l9 -7l12 -13l14 -31l13 -48l15 -75l10 -57l2 -52l-4 -108q-6 -24 -22 -39l-14 -19l-8 -11l-6 -9l-7 -9l-7 -8l-8 -3l-10 -5l-8 7l-5 8l-3 11l-15 57l-17 -50l-53 -120l-48 -47l-13 -5l-15 -1l-30 6l-26 21l-20 19l-16 20l-6 23l-61 308l-6 19l-7 20
q-8 18 -26 21l-61 -13h-2l-2 2l-1 2l2 4l5 5l7 7l11 15l12 13l24 23l23 24l25 22l14 12l11 9l16 11l15 8l26 9l12 -2l11 -6l11 -12l18 -34l27 -77q8 -19 10 -45l-2 -51l-1 -53q1 -20 10 -37l68 84l20 33l-1 46l-5 22l-1 11l-3 10l-5 8l-4 10l-7 18l-3 7l1 8l2 8l4 6l11 16
l10 15l12 11l13 12l12 8l14 6zM335 348l-20 -27l-76 -133v-42l-2 -27q4 -18 17 -28l23 15l18 28l49 97l6 19v22l-6 41q-3 18 -9 35z" />
    <glyph glyph-name="uni195C" unicode="&#x195c;" horiz-adv-x="827" 
d="M272 688h22l13 -2l10 -4l17 -12l10 -7l7 -11l7 -12l7 -11l9 -19l20 -49l35 -100l21 -55l11 -27l6 -16l3 -7l3 -5l3 1v6l1 5l7 48l2 22l6 23l3 13l5 11l13 24l12 20l8 8l7 9l10 5l9 4l9 4h9l10 -2l10 -3l10 -3l11 -6l5 -5l5 -3l7 -8l7 -9l8 -10l5 -19l7 -20l10 -42l23 -84
l26 -108l12 -59l2 -49v-57l-10 -81l-24 -108l-12 -44q-11 -46 -178 -294l46 126l46 122l27 112l10 92v51l-6 44l-16 54l-8 28l-5 14l-8 27l-2 8l-4 -19l-3 -18l-4 -30l-4 -14l-3 -15l-4 -12l-5 -11l-6 -12l-10 -16l-12 -12l-15 -14l-12 -11l-9 -5l-9 -5h-11l-12 5l-11 7
l-11 7l-17 20l-12 19l-45 91l-32 108l-20 47l-17 55l-35 87l-15 45l-9 24l-9 18l-7 14l-7 12l-9 11l-2 7l-5 5l-2 5l1 6l6 10l11 21l5 12l11 11l12 13zM518 417l-3 -9l-4 -8l-6 -15l-7 -38l-3 -19v-21l-2 -20v-9l2 -11l5 -31l7 -33l8 -23l3 -13l1 -5l4 -3l6 4l2 4l3 4l18 48
l7 25l4 12l5 11l3 14l1 8v10l-6 15l-5 19l-6 18l-3 19l-13 30q-10 28 -21 17zM86 367l8 3h11l8 -3l9 -4l17 -9l13 -10l14 -15l14 -18l9 -21l6 -17l5 -11q5 -21 6 -38l8 -31l9 -30l3 -15l8 -20l5 -9l5 -4l12 3l10 7l10 10l11 8l7 9l5 11l11 18l7 22l10 24l4 24l5 27v-56
l-5 -43l-2 -23l-4 -19l-8 -18l-6 -16l-15 -28l-18 -25l-21 -21l-26 -19l-14 -5l-12 3l-11 6l-10 5l-61 46l-23 36l-59 117l-3 7l-5 7l-7 5l-4 5l-7 5h-11l-10 1h-12l-4 2l-2 2l2 4l10 17l7 11l9 12l22 25l12 12l9 8l8 7l15 10z" />
    <glyph glyph-name="uni195D" unicode="&#x195d;" horiz-adv-x="511" 
d="M307 606l21 -2l20 -9l20 -22l11 -14l8 -14l7 -17l5 -18l10 -37l16 -84l16 -147l-5 -59l-12 -33l-26 -30l-48 -15l-4 -4l-5 -3l-6 1l-5 3l-27 102l-34 -71l-8 -26l-7 -33l-9 -29l-15 -26l-13 -12l-18 -7l-21 3l-8 3l-25 14l-22 28l-17 32l-17 33l-10 36l-7 37l-6 44
l-25 162l-19 27l-25 16l-45 -1l26 36l22 25l31 31l35 28l34 21h16l11 -10l22 -26l43 -89l41 54l14 35l-1 -1l18 34q20 29 43 34zM247 482l-24 -35l-20 -42l-3 -12l-1 -16l3 -20l3 -11l1 -12l2 -19v-16v-36l2 -49l3 -31l4 -28l6 -13l5 -4l9 2q15 13 28 31l21 38l15 49l-4 50
l-17 97l-12 44q-6 21 -21 33z" />
    <glyph glyph-name="uni195E" unicode="&#x195e;" horiz-adv-x="817" 
d="M254 620l33 -6l27 -17q28 -41 39 -60l26 -76l42 -124l7 -15l11 12l15 33l17 42l14 27l18 25l15 17l12 11l11 7l18 7l13 4l16 -2l10 -3l10 -6l11 -7l17 -11l17 -11l10 -12l8 -15l7 -24l6 -20l9 -18l7 -18l9 -21l3 -20l4 -21l1 -11v-12l-1 -9l-2 -12l-2 -16l-9 -17l-5 -9
l-7 -6l-11 -6l-13 -7l-31 -6l-6 -6l-7 -1l-5 5l-5 8l-3 12l-2 13v13l-1 6l-2 9l-7 17l-7 19l-59 92q-10 14 -24 17l-12 -12l-13 -15l-15 -31l-15 -40l-7 -27l21 -108l9 -75l7 -104l-14 -74q-17 -93 -54 -147l5 70l5 81l-15 85l-27 98l-43 121l-29 88l-36 92l-12 31l-7 16
l-6 16l-8 11l-6 5l-4 5l-9 7l-10 7l-9 2h-7l-6 -2l-19 -31l-9 -17l-4 -9l-4 -10v-10q0 -8 8 -33l21 -50l8 -30l10 -30l5 -25l3 -25l7 -41l2 -8l6 -8h3h4l9 5l4 3l5 4l8 9l6 7l3 9l7 17l8 27l18 53l-13 -93l-7 -32l-3 -16l-3 -14l-9 -17l-7 -13l-8 -14l-7 -10l-8 -7l-6 -5
l-12 -4l-18 -6l-17 1l-10 6l-9 7l-18 15l-18 16l-17 17l-9 17l-8 21l-7 20l-6 19l-29 77l-37 67l-27 17l-4 12q1 21 11 41l20 24l29 17l67 9l25 -23l18 27l31 72l43 54q10 10 27 20z" />
    <glyph glyph-name="uni195F" unicode="&#x195f;" horiz-adv-x="836" 
d="M317 640h13l24 -12l29 -29l47 -60l59 -103l98 145l20 8l26 -3l21 -15l34 -39l49 -109l3 -41l1 -20v-17l-7 -14l-7 -13l-16 -22l-17 -12l-13 -9l-8 -4h-8l-8 5l-8 8l-8 12l-22 58l-22 36l-11 18l-5 9l-5 10l-7 9l-6 9h-8l-6 -3l-7 -4l-8 -7l-9 -7l-8 -9l-4 -13l-2 -7
l-1 -7l5 -15l6 -14l8 -25l5 -25l13 -50l12 -59l4 -46l-8 -82l-34 -108l-46 -85l-93 -162l66 206l18 91l8 82l-5 53l-3 21l-5 20l-4 19l-7 38l-14 40l-24 46l-27 52l-31 48l-31 46l-29 32l-3 6l-5 5l-6 3l-5 1l-7 -2l-6 -3l-5 -3l-6 -5l-7 -13l-7 -12l-6 -12l-6 -14l-5 -12
l-2 -13l-4 -13l-4 -11l-7 -12l-8 -11l-6 -10l-7 -8l-10 -7l-10 -6l-13 -3l-10 -2l-13 -1h-12l-8 3l-8 5l-16 11l-18 9l-8 4l-6 2h-8l-5 -3l-5 -3l-5 -5l-4 -4l-3 -6l-4 -7l-4 -3l-6 -3l-6 -5l6 24l4 10l2 12l4 11l5 12l9 19l10 19l10 21l13 23l8 10l9 11l9 6l8 6l7 2l9 1
l10 -5l11 -8l12 -13l31 -34l13 6l18 21l57 90l7 11l10 10l15 12l11 9z" />
    <glyph glyph-name="uni1960" unicode="&#x1960;" horiz-adv-x="713" 
d="M413 606l15 -3l13 -4l17 -7l9 -5l10 -9l8 -11l9 -14l8 -13l7 -13l5 -16l5 -16l10 -35l17 -68l35 -135l13 -37l8 -37l3 -23l1 -20l-4 -25l-5 -23l-4 -12l-5 -14l-6 -12l-15 -25l-15 -21l-21 -25l-19 -24l-41 -48l-46 -47l-43 -33l-50 -40l-50 -32l-59 -19l-64 -18l-48 -9
l72 51l69 43l47 41l37 45l28 36l40 62l34 53l9 16l6 16l3 12l2 19l2 16l-1 10l-1 11l-8 23l-2 6l-1 4l-2 4l-2 2l-3 -3l-2 -3l-5 -5l-5 -7l-5 -8l-4 -8l-6 -10l-6 -8l-7 -8l-7 -10l-9 -14l-7 -14l-4 -5l-6 -8l-8 -6l-10 -9l-6 -11l-7 -14l-6 -13l-4 -5l-3 -3l-7 -3l-7 1
l-16 2l-14 4l-13 6l-14 7l-9 10l-4 8l-2 8l-6 13l-10 30l-11 28l-4 16l-5 17l-1 9v9v9l1 7l2 10l4 8l5 8l6 10l6 9l12 6l10 3l20 4l19 6l10 2l10 4l6 5l4 4l10 11l10 13l9 8l8 6l10 5l17 12l19 11l8 6l9 6l5 7l3 6l5 10l2 6v10l-1 7l-2 15l-4 10l-4 13l-6 22l-14 44l-6 12
l-8 12l-8 12l-6 7l-5 4l-6 6l-6 4l-1 1l-3 -1l-6 -5l-10 -8l-11 -9l-11 -9l-9 -7l-3 -3l-5 -4l-3 -6l-5 -6l-4 -7l-3 -8l-2 -10l-1 -19l-2 -14l-2 -15l-3 -10l-3 -9l-3 -8l-4 -7l-6 -7l-8 -10l-10 -6l-10 -6l-11 -5l-12 -5l-8 -3l-12 -2l-10 1l-12 1l-15 4l-15 6l-13 10
l-12 8l-16 9l-15 7l-9 2l-9 2l-10 1l-8 -1l-5 -1l-7 -2l-12 -6l-23 -11l8 18l7 15l19 30l15 20l9 10l7 10l10 10l11 11l7 8l13 11l13 6l8 4l12 4l12 1l11 -1l11 -3l11 -5l22 -6l17 -10l13 -8l7 -3l5 -1l3 1l4 2l10 8l13 12l13 15l16 16l15 17l7 8l11 9l11 9l11 7l14 3l15 1
l15 -1h15zM398 286l-9 -6l-9 -8l-8 -6l-10 -7l-9 -11l-10 -11l-11 -12l-5 -6l-2 -2l-1 -5l1 -4l5 -4l4 -5l3 -5l3 -7l4 -10l2 -7l3 -6v-2l2 -1h2l3 2l10 9l18 15l16 13l18 14l7 8l3 7l2 7l-1 10l-2 10q-22 32 -29 30z" />
    <glyph glyph-name="uni1961" unicode="&#x1961;" horiz-adv-x="778" 
d="M566 642h7l10 -1l13 -8l10 -12l6 -16l10 -32l44 -121l36 -115l7 -29l5 -28l3 -24l2 -21l-5 -36l-2 -18l-4 -16l-4 -22l-6 -21l-15 -37l-8 -20l-7 -16l-10 -21l-8 -20l-10 -20l-5 -10l-5 -7l-5 -11l-6 -8l-10 -17l-12 -17l-6 -8l-12 -14l-10 -13l-16 -17l-17 -17l-9 -10
l-10 -11l-13 -11l-15 -16l-15 -13l-10 -8l-13 -8l-17 -7l-26 -8l-40 -8l36 28l17 13l8 8l5 3l6 6l5 7l6 8l11 14l9 14l10 15l9 17l12 18l9 16l12 22l7 12l10 19l9 19l8 17l7 15l6 16l7 17l6 16l10 32l6 18l7 19l3 19l4 17v8q-4 44 -17 53l-7 -18l-6 -13l-9 -16l-5 -7
l-12 -14l-17 -17l-10 -8l-10 -8l-14 -6l-9 -4h-11l-10 4l-14 9l-9 8l-12 13l-7 13l-8 14l-15 30l-8 24l-7 26l-17 49l-26 86l-6 15l-7 15l-4 8l-2 1l-4 3h-4l-7 -3l-5 -3l-10 -10l-6 -5l-7 -6l-15 -19l-32 -38l-16 -22l-7 -5l-7 -9l-11 -8l-6 -2l-12 -4l-12 2l-17 2l-13 4
l-13 6l-11 9l-13 9l-26 20l-13 6l-5 4h-4l-7 -2l-6 -4l-13 -10l-15 -12l-15 -12l-19 -16l5 12l2 9l5 10l10 22l8 15l10 16l19 27l19 27l19 26l10 14l11 12l10 11l13 9l13 9l13 7l16 1l8 1l12 -2l11 -3l7 -3l8 -3l5 -7l6 -7l5 -8l4 -6l7 -17l3 -8l3 -13l2 -15l1 -10l1 -3
l2 -5l2 -2l4 -1l5 3l6 5l9 6l8 9l11 13l11 11l11 13l13 11l15 16l10 7l11 4l8 4l9 3l9 3l8 1l10 -1l11 -5l10 -8l11 -16l8 -20l19 -45l34 -99l15 -46l15 -48l6 -21l3 -7l1 -7l5 2l3 2l7 6l5 4l4 5l10 16l5 6l2 10l2 7l-1 10v17l-45 135l-23 69l-5 16l-5 16l-4 10l-6 7l-5 6
l-3 4v6l2 5l4 6l8 11l9 11l8 9l16 13q18 14 29 18z" />
    <glyph glyph-name="uni1962" unicode="&#x1962;" horiz-adv-x="671" 
d="M123 667l17 -4l15 -33l7 -30l9 -35l17 -35l31 -74l28 -76l14 -49l5 -16l9 -13l3 -6l3 -4h2l1 2l5 8l2 6l2 5l3 8l1 7l4 16l3 15l4 16l7 32l4 15l4 14l4 14l4 10l7 23l12 33l20 46l20 24l22 17l14 5h16l19 -4l18 -5l21 -22l21 -41l19 -44l21 -74l24 -101l38 -189l2 -35
l-2 -30l-9 -28l-15 -18l-13 -13l-14 -8l-17 -9l-15 -7l-19 7l-11 37l-12 51l-42 181l-19 76l-20 60l-10 24l-10 28l-7 8l-5 7l-7 4l-4 2l-4 1l-2 -1l-4 -2l-3 -5l-5 -7l-5 -9l-4 -10l-3 -8l-3 -9l-3 -12l-2 -12l-2 -16l-2 -15l-1 -12l-13 -90l-6 -41l-3 -22l-3 -20l-3 -22
l-6 -26l-5 -23l-3 -13l-4 -12l-4 -14l-6 -14l-12 -17l-5 -6l-9 -8l-11 -8l-14 -8l-11 -4h-10l-13 1l-13 9l-12 12l-9 9l-8 10l-6 10l-5 13l-5 14l-6 12l-4 15l-4 16l-8 31l-15 62l-16 62l-8 30l-4 15l-4 12l-3 8l-3 4l-3 5l-3 3l-3 1l-4 -3l-4 -6l-4 -3l-3 -4l-8 -8l-5 -5
l-6 -5l-6 -2h-4l-3 2l-1 5l-1 5l-2 8l2 12l1 9l8 26l18 69l15 57l15 47l16 39l12 24l22 25z" />
    <glyph glyph-name="uni1963" unicode="&#x1963;" horiz-adv-x="289" 
d="M28 1106h12l14 -2l11 -4l12 -6l11 -7l7 -6l6 -8l12 -16l17 -35l24 -72l25 -114l19 -103l9 -149l2 -85l-1 -84l-6 -142l-8 -85l-20 -107l-22 -68l-11 -9l-12 -4l-12 -1l-9 2l-9 5l-7 5l-4 8l1 9l2 11l2 10l1 11l7 55l-1 51v158l-4 112l-4 89l-6 103l-10 105l-17 96l-26 67
l-20 41l-5 7l-4 6l-3 1l-3 1l-5 -2l-10 -8l-9 -5l-8 -5l-12 -5l-15 -5l-30 -7l18 27l11 27l6 20l1 19l2 14l-1 11q9 56 82 73z" />
    <glyph glyph-name="uni1964" unicode="&#x1964;" horiz-adv-x="667" 
d="M299 1089l12 -21l15 -31l18 -34l17 -31l70 -221l69 -230l3 -2q17 2 34 11l32 12l-57 -54l9 -42l27 -121l20 -111l2 -50l-1 -11l-2 -11l-2 -11l-3 -13l-5 -10l-6 -9l-12 -18l-11 -11l-7 -8l-17 -14l-17 -10l-14 -10l-20 -13l-10 -5l-16 -6l-18 -3l-24 -1l-50 5l-53 17
l-41 28l-14 10l-12 10l-9 10l-11 17l-11 17q-4 -22 -9 -34l-3 -12l-3 -6l-5 -6l-10 -4l-23 -8l-17 -7l-7 -3l-8 -1l-6 4l-6 7l-2 5l-1 5l3 5l8 12l7 13l6 16l4 18l2 18l7 36l13 62l14 108l6 62v74l-13 79l-17 59l-35 116l-55 132l-11 20l-11 20l-8 22l6 32l28 41l26 29
l22 27l23 20l16 17l7 10l10 8l19 8l15 6l16 2l12 -1l14 -1l28 -2l23 -11zM112 981l-5 -1l-5 -3l-3 -2l-11 -7l-17 -21l-5 -6l-4 -5l-1 -3l1 -9l2 -7l6 -15l25 -70l39 -93l41 -108l21 -65l20 -64l11 -48l4 -53l2 -45v-57l1 -35l-1 -29l9 13l11 16l15 21l16 24l16 21l17 24
l8 13l4 7l3 3l1 3l20 38l-77 275l-35 90l-61 137l-14 19l-8 10l-12 14q-17 16 -34 18zM338 325l-5 -8l-4 -7l-10 -18l-9 -16l-10 -17l-21 -33l-6 -11l-8 -13l-3 -10l-1 -11l-1 -11l-1 -11l-2 -6l2 -5l2 -8l2 -5l4 -7l5 -7l4 -6l13 -13l11 -10l16 -9l16 -7l12 -3l10 2l7 4
l10 2l12 3l13 9l13 9l15 14l9 20l9 36l-4 16l-7 16l-14 47l-28 63q-16 66 -51 11z" />
    <glyph glyph-name="uni1965" unicode="&#x1965;" horiz-adv-x="647" 
d="M240 1117l11 3l12 1l12 -1l10 -3l30 -21l16 -11l18 -14l11 -21l16 -25l7 -53l34 -109l27 -112l101 -427l32 -224l-5 -56l-22 -39l-27 -12l-28 -15l-22 -8l-19 3l-28 18q-19 7 -30 24l-1 35l-56 365l-54 250l-51 189l-29 65l-15 12l-6 6l-4 1l-3 2l-4 -1l-5 -1l-7 -4
l-8 -4l-12 -8l-10 -10l-6 -8l-1 -2l-4 -5v-6l2 -7l3 -13l5 -26l75 -254l20 -68l17 -80l16 -68l14 -89l11 -81v-57l-18 -54l-22 -49l-19 -22l-10 -10l-7 -8l-20 -8l-19 -6l-12 -5l-11 -5h-6h-8l-4 5l-3 6l-4 8l-3 3v5l2 6l1 7l6 16l21 44l17 58l4 71l-10 106l-18 131l-30 152
l-67 254l-23 69l-10 35l-5 16l-3 9l-1 5v4l7 5l8 3l7 2l9 1l10 -1l9 -4l10 -3l4 -1l5 -3l5 6l5 6l5 6l7 6l14 10l14 9l15 11l12 9l14 14l12 11q55 33 67 39z" />
    <glyph glyph-name="uni1966" unicode="&#x1966;" horiz-adv-x="443" 
d="M167 978l32 -3l48 -16l32 -35l15 -48l49 -269l36 -225l20 -154l2 -100l3 -29l1 -15l-3 -20l-5 -20l-44 -90l-34 -50l-40 -56l-63 -45l-109 -48l94 101l37 62l14 57l7 56l7 31l2 32l-1 30l-6 47l-16 141l-18 103l-25 138l-40 199l-15 49l-8 24l-4 12l-5 11l-7 5l-8 5
l-15 4h-6l-5 -3l-11 -7l-8 -4l-7 -6l-4 -11l-3 -9v-13l9 -99l15 -80l27 -163l17 -102l5 -83l11 -107l13 -72l-3 -34q-26 -35 -47 -42l-47 -9l-18 5l16 23l11 50l2 115l-12 166l-27 200l-24 189l-4 59l19 50l32 36l37 26l35 25z" />
    <glyph glyph-name="uni1967" unicode="&#x1967;" horiz-adv-x="443" 
d="M182 649l15 -1l10 -2l7 -4l7 -7l2 -6l8 -14l21 -67l19 -93l11 -58l85 -383l14 -70l6 -14l4 -5l9 8l47 70l25 25l-14 -28l15 4l-68 -102l10 -31l22 -23l21 -23l67 -33l42 -11l58 -6l104 13l63 27l88 55l74 75l62 85l26 61l-31 -88l-38 -66l-45 -54l-103 -87l-50 -29
l-24 -13l-12 -6l-11 -5l-14 -4l-12 -2l-26 -4l-26 -4l-25 -4h-40l-36 3l-22 2l-23 2l-33 5l-22 10l-14 9l-30 18l-15 9l-15 10l-30 18l-10 -16l-18 -23l-41 -41l-25 -24l-21 -20l-21 -18l-9 -3l-9 -4l-16 -2h-17l-18 5l-18 5l-30 19l-19 18l-19 18l-19 19l-10 9l-10 11
l-7 12l-4 7v5l1 4l4 4l5 4l14 10l15 10l13 8l17 7l10 3h11l12 -2l13 -5l17 -12l18 -16l10 -14l8 -15l18 -27l5 -7l8 -6l5 -2l4 1l11 8l16 12l17 13l15 12l26 23l23 27l-18 21l-23 36l-23 61l-120 492l-17 54l-10 27l-2 8l-8 16l-11 15l-13 11l-8 6l-4 4l-1 5l1 4l3 5l4 7
l5 4l10 6l12 6l47 23l16 7l12 2z" />
    <glyph glyph-name="uni1968" unicode="&#x1968;" horiz-adv-x="340" 
d="M111 621l17 -2l15 -3l8 -7l8 -9l16 -49l11 -52l13 -115l52 -357l9 -60l13 -80l28 -73l28 -37l37 -31l49 -21l57 -6l77 4l66 27l79 55l73 74l59 84l24 55l-11 -35l-31 -76l-31 -48l-101 -112l-81 -55l-46 -17l-54 -10l-59 -1l-41 3l-37 10l-76 43l-37 32l-32 39l-24 37
l-21 56l-13 63l-11 66l-25 130l-48 260l-14 55l-8 26l-4 14l-8 18l-12 12l-9 10l-9 8l-4 8l-3 6v4l2 4l4 3l4 2l11 5l22 11q43 23 68 32z" />
    <glyph glyph-name="uni1969" unicode="&#x1969;" horiz-adv-x="559" 
d="M287 756l74 -172l57 -177l28 -132l54 -299l10 -43l7 -30l3 -13v-23l-4 -24l-4 -16l-5 -14l-11 -24l-9 -19l-27 -39l-24 -26l-12 -14l-12 -11l-16 -9l-15 -6l-33 -8l-19 -3l-22 3l-20 6l-15 6l-15 10l-15 8l-9 5l-8 9l-5 9l-6 17l-15 32l-85 517l-7 75l-45 171l-7 6l-6 7
l-7 7l-6 5l-15 11l-8 5l-4 7l3 8l6 6l11 7l38 12l40 11l26 1h18l17 -3l17 -8l17 -11l22 -38l37 -84l18 -94l2 -47l7 -65l-2 -41l5 -76l6 -77l-4 -109l3 -122l43 -90l7 -7l10 -7l6 -2l10 -1l5 3l8 5l16 12l23 29l13 15l12 22l5 15l4 23l-96 453z" />
    <glyph glyph-name="uni196A" unicode="&#x196a;" horiz-adv-x="510" 
d="M245 987l8 -1l6 -5l15 -9l14 -8l11 -7l6 -9l2 -7l3 -13l7 -27l11 -78l6 -65l84 -685l11 -93l9 -42l3 -21l11 -34l11 -33l15 -20l15 -21l12 -10l11 -8l34 -14l33 -13l76 1l94 22l53 33l69 68l51 91l34 96l-13 -76l-29 -73l-55 -84l-47 -57l-44 -33l-48 -33l-71 -36
l-92 -18l-45 6l-32 8l-33 7l-53 17l-36 26l-34 43l-37 74l-18 83l-17 102l-20 157l-14 91l-76 -7l-27 -18l-60 -44l-12 -10l-8 -3l-6 -3l-8 2l-10 4l-7 6l-2 3v4l1 4l3 3l4 2l3 1l4 1h3l9 12l4 6l5 7l1 4l3 7l4 21l2 36l-17 226l-7 80l-34 270l1 4l1 4l3 6l4 4l4 3l7 4l5 1
l12 4l57 31l31 13l72 15l40 4l7 1h7zM121 906l-36 -7l-8 -5l-5 -2l-3 -5l7 -51l20 -162l9 -73l2 -191l11 -66l5 -9l63 5l18 22l-15 198l-16 120l-20 214l-5 3l-5 2l-7 3l-8 2z" />
    <glyph glyph-name="uni196B" unicode="&#x196b;" horiz-adv-x="505" 
d="M297 918l25 -26l48 -265l30 -153l34 -183l31 -175l15 -65l6 -42l12 -53l16 -54l22 -31l25 -19l25 -20l36 -15l21 -7l21 -4l21 1l21 2l81 15l49 28l79 61l22 36l47 108l4 -10l-15 -43l-34 -96l-51 -73l-68 -59l-79 -42l-60 -14l-31 -7l-28 -4h-35l-70 7l-41 16l-32 26
l-41 29l-33 39l-32 58l-19 57l-21 93l-23 111l-32 166l-36 236l-46 223l-11 21l-6 10l-7 6l-6 1h-3h-6l-7 -4l-6 -3l-3 -5v-5v-33l76 -570l-4 -5l-5 -4l-4 -5l-6 -3h-4l-35 -9l-12 5l-11 3l-9 4l-7 7l-3 6l2 5l2 7l7 11v47l-9 83l-67 473l1 13l-1 8l1 6l6 7l6 7l65 38l53 29
l41 8l23 3l16 3l17 2l9 -1l11 -1l7 -4l9 -4z" />
    <glyph glyph-name="uni196C" unicode="&#x196c;" horiz-adv-x="192" 
d="M368 985l63 -13l53 -23l54 -48l41 -61l8 -29l-2 -26l-13 -26l-12 -26l-52 -88l-52 -83l-18 -24l4 15l4 20l6 30l11 60l4 24l4 23l4 18l3 16l2 13l1 13v11l-1 9l-2 7l-3 7l-6 11l-10 13l-15 18l-43 37l-54 18l-51 -1l-57 -22l-62 -36l-32 -38l-21 -34l-18 -51l-3 -49
l2 -58l-10 -99l12 -309l8 -71l-6 -40l1 -27l-7 -26l-11 -17l-9 -21l-15 -3l-13 6l-15 18l-16 75l-5 84l-19 428l-2 37l8 58l15 52l39 62l49 52l37 30l59 37l70 28l45 14z" />
    <glyph glyph-name="uni196D" unicode="&#x196d;" horiz-adv-x="831" 
d="M641 636l27 -12l12 -24l21 -50l34 -134l19 -132l2 -53l-6 -33l-15 -20l-22 -17l-37 -22l-50 5l-38 9l-14 -7l-4 -40l-10 -41l-17 -55l-38 -79l-40 -59l-70 -76l-133 -95l32 42l73 86l46 75l25 73l17 86l8 50l4 61l-3 50l-11 64l-18 69l-22 65l-23 52l-17 31l-8 4l-2 2
l-5 1l-6 -2l-6 -1l-21 -18l-22 -27l-10 -13l-11 -15l-5 -13l-5 -15l-5 -14l-5 -14l-8 -15l-9 -16l-9 -9l-10 -9l-15 -5l-16 -1l-19 -2l-17 2l-12 4l-21 13l-39 22l-20 11l-10 5l-9 6l-8 4l-8 -1l-6 1l-16 -9l-9 -3l-3 -3l-5 1l-4 3l-3 4l-1 7l21 36l31 56l22 34l24 20l33 8
l34 2l32 -7l12 -8l13 -9l18 -22l10 -12l9 -11l11 -2l8 1l9 3l28 33l16 16l7 8l9 11l7 10l7 11l16 25l11 17l22 9l21 1l21 -7l26 -18l24 -41l25 -49l23 -59l10 -31l4 -25l5 -24l17 -99l19 -27h46l32 18l11 34l2 36l-15 78l-15 79l-23 52l-16 21l-21 13l-2 19v22l11 16l19 11z
" />
    <glyph glyph-name="uni1970" unicode="&#x1970;" horiz-adv-x="922" 
d="M363 607l14 -2l13 -3l8 -8l5 -14l23 -87l25 -158l13 -58l11 -53l12 -35l14 -19l24 6l42 24l52 49l21 20l41 55l10 25l9 6l1 -14l-19 -62l-58 -117l-32 -40l-35 -28l-39 -30l-41 -12l-42 -3l-27 6l-43 25l-33 34l-14 22l-18 48l-12 62l-9 55l-3 118l-5 31l-5 12h-10
l-17 -17l-12 -20l8 -65l1 -29l-5 -45l-10 -46l-38 -83l-40 -58l-48 -51l-60 -39l-9 -3l-7 1l-8 2l-8 5l-3 7l3 5l4 3l12 5l47 54l41 46l35 50l36 69l10 38l5 38l-4 35l-1 18l-3 11l-7 14l-10 7l-22 -10l-23 -10l-28 -4l-26 10l-19 17l-15 36l-4 44l2 35l13 31l13 22l21 14
l18 3l24 -5l24 -14l19 -16l15 -18l13 -23l11 -21l12 1l16 6l53 48l22 16l16 12l19 14zM123 530l-10 -11l-2 -14l12 -7l9 -1l8 12q4 17 -17 21z" />
    <glyph glyph-name="uni1971" unicode="&#x1971;" horiz-adv-x="833" 
d="M175 567l30 5l36 1l46 -4l38 -14l26 -21l18 -27l11 -34l5 -41l-1 -40l-5 -40l-19 -49l-31 -49l-50 -45l-57 -31l16 -29l30 -18l106 -31l46 -4l72 8l35 13l45 29l76 64l-92 -111l-69 -53l-76 -31l-47 -10l-56 -9l-44 2l-47 7l-49 13l-41 24l-31 26l-35 32h-10l-28 -15
l-19 9l7 12l34 31l-28 93l-14 80v46l4 41l11 37l27 42l29 34l39 28l34 20zM239 455l-30 -9l-18 -18q-16 -23 -19 -53l-3 -35l-1 -28l5 -35l9 -28l34 40l24 45l13 38l7 31l-1 22l-2 21z" />
    <glyph glyph-name="uni1972" unicode="&#x1972;" horiz-adv-x="874" 
d="M315 611l31 16l22 -5l15 -15l3 -31l-4 -20l-3 -19l-2 -31l2 -35l2 -33l8 -42l12 -48l22 -76l19 -52l25 -44l27 -18l33 -2l57 32l111 82l-103 -142l-51 -60l-31 -25l-55 -17l-42 3l-29 8l-29 19l-23 37l-13 -10l-13 -10l-70 -47l-51 -18l-30 1l-36 10l-27 23l-25 30
l-26 49l-21 50l-12 58l-4 57v43l6 51l9 45l15 35l20 30l38 35l37 20l28 11l33 4l46 -3l14 1l16 5l14 12zM224 474l-50 -16l-33 -29l-27 -38l-10 -53v-35l6 -45l15 -57l10 -24l11 -24l17 -13l23 -9h30l21 2l36 14l20 22l-18 107l-17 105l-4 64q-4 29 -30 29z" />
    <glyph glyph-name="uni1973" unicode="&#x1973;" horiz-adv-x="833" 
d="M410 627h24l24 -4l31 -21q25 -16 36 -36l17 -26q18 -24 29 -75l10 -60v-47l-7 -71l-12 -57l-15 -52l-19 -34l-20 -35l-30 -27l-35 -23l-36 -21l-31 -18l-39 -15l-37 -3l-42 9l-48 25l-27 27l-21 33l-21 41l-31 83l-34 134l-11 40l-13 23l-12 10h-50l-4 1l-5 4v4l2 6l2 4
l21 16l38 23l27 18l36 21l21 8l27 2l28 -7l34 -22l25 -33l20 -39l70 -267l23 -35l22 -11l27 6l28 19l26 30l-22 35l-29 30l-34 48l-30 58l-11 48l-3 57l1 39l7 42l12 40l22 36l15 10zM449 505l-12 -5l-10 -17l-5 -32l-3 -32l8 -47l9 -34l30 -53l13 -10l15 2l14 25l9 33v34
l-6 31l-6 32l-16 31l-17 25q-9 11 -23 17z" />
    <glyph glyph-name="uni1974" unicode="&#x1974;" horiz-adv-x="779" 
d="M207 569l32 3l28 -8l39 -20l23 -21l20 -26l-5 -16l-28 -11h-32l-32 -9l-27 -12l-22 -16l-20 -27l-16 -27l-22 -38l-8 -43l-15 -60l17 -64l39 -47l84 -13l74 -1h55l55 11l55 33q167 154 -6 -41l-43 -41l-35 -19l-39 -17l-47 -17l-46 -9l-92 -12l-52 4l-32 13l-32 24
l-32 38l-16 25l-11 32l-9 38l-4 35l-2 40v33l5 37l17 52l20 47l26 44l25 33l39 40l32 23z" />
    <glyph glyph-name="uni200A" unicode="&#x200a;" horiz-adv-x="125" 
 />
    <glyph glyph-name="uni200B" unicode="&#x200b;" 
 />
    <glyph glyph-name="uni200C" unicode="&#x200c;" 
d="M18 854v-1053h-36v1053h36z" />
    <glyph glyph-name="uni200D" unicode="&#x200d;" 
d="M18 -199h-36v907l-65 -66l-24 24l84 83l-84 82l24 23l83 -83l83 83l24 -23l-84 -82l84 -83l-24 -24l-65 66v-907z" />
    <glyph glyph-name="uni200E" unicode="&#x200e;" 
d="M210 750l-106 -105l-23 24l66 63h-129v-931h-36v966h165l-66 64l23 23z" />
    <glyph glyph-name="uni200F" unicode="&#x200f;" 
d="M18 -199h-36v931h-129l66 -63l-23 -24l-106 105l106 104l23 -23l-66 -64h165v-966z" />
    <glyph glyph-name="uni2012" unicode="&#x2012;" horiz-adv-x="539" 
d="M495 247h-451v63h451v-63z" />
    <glyph glyph-name="endash" unicode="&#x2013;" horiz-adv-x="556" 
d="M-2 224v70h556v-70h-556z" />
    <glyph glyph-name="emdash" unicode="&#x2014;" horiz-adv-x="1000" 
d="M0 224v70h1000v-70h-1000z" />
    <glyph glyph-name="uni2015" unicode="&#x2015;" horiz-adv-x="1000" 
d="M1000 247h-1000v63h1000v-63z" />
    <glyph glyph-name="quoteleft" unicode="&#x2018;" horiz-adv-x="222" 
d="M62 465v71q0 26 2.5 47t7.5 39t12 34t17 32h59q-22 -32 -34 -64t-12 -64h43v-95h-95z" />
    <glyph glyph-name="quoteright" unicode="&#x2019;" horiz-adv-x="222" 
d="M160 617q0 -26 -2 -47t-7 -39t-12 -34.5t-17 -31.5h-60q22 32 34 64t12 63h-43v96h95v-71z" />
    <glyph glyph-name="quotesinglbase" unicode="&#x201a;" horiz-adv-x="222" 
d="M160 25q0 -26 -2 -47t-7 -39.5t-12 -34.5t-17 -32h-60q22 32 34 64t12 64h-43v95h95v-70z" />
    <glyph glyph-name="quotedblleft" unicode="&#x201c;" horiz-adv-x="333" 
d="M198 465v71q0 26 2.5 47t7 39t11.5 34t17 32h60q-22 -32 -34 -64t-12 -64h43v-95h-95zM36 465v71q0 26 2.5 47t7.5 39t12 34t17 32h59q-22 -32 -34 -64t-12 -64h43v-95h-95z" />
    <glyph glyph-name="quotedblright" unicode="&#x201d;" horiz-adv-x="333" 
d="M296 617q0 -26 -2.5 -47t-7 -39t-12 -34.5t-17.5 -31.5h-59q22 32 34 64t12 64h-43v95h95v-71zM134 617q0 -26 -2 -47t-7 -39t-12 -34.5t-17 -31.5h-60q22 32 34 64t12 64h-43v95h95v-71z" />
    <glyph glyph-name="bullet" unicode="&#x2022;" horiz-adv-x="350" 
d="M53 351q0 51 36.5 87t87.5 36t87.5 -36t36.5 -87q0 -52 -36.5 -88t-87.5 -36t-87.5 36t-36.5 88z" />
    <glyph glyph-name="ellipsis" unicode="&#x2026;" horiz-adv-x="1000" 
d="M448 124h104v-124h-104v124zM781 124h104v-124h-104v124zM115 124h104v-124h-104v124z" />
    <glyph glyph-name="guilsinglleft" unicode="&#x2039;" horiz-adv-x="400" 
d="M306 517v-93l-147 -131l147 -131v-93l-229 204v40z" />
    <glyph glyph-name="guilsinglright" unicode="&#x203a;" horiz-adv-x="333" 
d="M174 259l-129 221h73l148 -218l-148 -227h-73z" />
    <glyph glyph-name="Euro" unicode="&#x20ac;" horiz-adv-x="556" 
d="M337 62q48 0 77.5 24t36.5 69l90 -7q-6 -33 -21.5 -62t-40.5 -50t-61 -33.5t-83 -12.5q-59 0 -102 19t-72.5 53t-46.5 80.5t-24 102.5h-83l20 63h58q0 4 -0.5 15t-0.5 23q0 13 0.5 26t0.5 16h-78l20 62h63q7 60 24.5 106t48 78t72.5 48t98 16q48 0 83.5 -12t61 -33.5
t40.5 -50t22 -61.5l-91 -7q-6 44 -36 68.5t-81 24.5q-33 0 -59 -9.5t-45.5 -31t-31.5 -54.5t-18 -82h218l-19 -62h-202q-1 -8 -1 -19.5v-22.5v-20t1 -18h221l-19 -63h-198q5 -39 15 -73t29 -58.5t47 -38t67 -13.5z" />
    <glyph glyph-name="trademark" unicode="&#x2122;" horiz-adv-x="1000" 
d="M536 729l85 -125l80 125h83v-282h-55v236l-95 -148h-27l-99 148v-236h-56v282h84zM397 729v-46h-99v-236h-56v236h-98v46h253z" />
    <glyph glyph-name="minus" unicode="&#xe7;" horiz-adv-x="333" 
d="M32 215v88h270v-88h-270z" />
    <glyph glyph-name="minus" unicode="&#x2212;" horiz-adv-x="333" 
d="M32 215v88h270v-88h-270z" />
    <glyph glyph-name="dottedcircle" unicode="&#x25cc;" horiz-adv-x="659" 
d="M514 241q-29 0 -29 28q0 30 29 30q30 0 30 -30q0 -28 -30 -28zM270 4q-29 0 -29 31q0 11 9 19.5t20 8.5q29 0 29 -28q0 -31 -29 -31zM270 483q-29 0 -29 28q0 31 29 31t29 -31q0 -28 -29 -28zM439 415q-30 0 -30 30q0 12 9 20.5t21 8.5q29 0 29 -29q0 -30 -29 -30z
M495 341q-31 0 -31 30q0 12 9.5 21t21.5 9q11 0 20.5 -9.5t9.5 -20.5q0 -30 -30 -30zM366 464q-31 0 -31 30q0 13 9.5 22t21.5 9q11 0 19.5 -10t8.5 -21q0 -30 -28 -30zM439 129q29 0 29 -30q0 -29 -29 -29q-12 0 -21 8.5t-9 20.5q0 30 30 30zM495 203q12 0 21 -9t9 -21
q0 -11 -9.5 -20.5t-20.5 -9.5q-12 0 -21.5 9t-9.5 21q0 30 31 30zM366 80q28 0 28 -30q0 -11 -8.5 -21t-19.5 -10q-12 0 -21.5 9t-9.5 22q0 30 31 30zM35 241q-30 0 -30 28q0 30 30 30q29 0 29 -30q0 -28 -29 -28zM110 415q-29 0 -29 30q0 29 29 29q12 0 21 -8.5t9 -20.5
q0 -30 -30 -30zM54 341q-30 0 -30 30q0 11 9.5 20.5t20.5 9.5q12 0 21.5 -9t9.5 -21q0 -30 -31 -30zM183 464q-28 0 -28 30q0 11 8.5 21t19.5 10q12 0 21.5 -9t9.5 -22q0 -30 -31 -30zM110 129q30 0 30 -30q0 -12 -9 -20.5t-21 -8.5q-29 0 -29 29q0 30 29 30zM54 203
q31 0 31 -30q0 -12 -9.5 -21t-21.5 -9q-11 0 -20.5 9.5t-9.5 20.5q0 12 9 21t21 9zM183 80q31 0 31 -30q0 -13 -9.5 -22t-21.5 -9q-11 0 -19.5 10t-8.5 21q0 30 28 30z" />
    <glyph glyph-name="CKT_GA" unicode="&#xaa60;" horiz-adv-x="897" 
d="M546 19q-11 31 -9 60t13.5 54.5t31 45.5t44.5 32.5t53.5 16t58.5 -3.5q-4 27 -16.5 50t-31.5 40t-43.5 27t-52.5 10q-30 0 -56 -11t-45.5 -30t-31 -44.5t-12.5 -54.5v-6q-1 -71 -29.5 -122t-77.5 -82q-10 -6 -19 -6t-16.5 4.5t-12.5 12t-6 16t3 17t13 14.5q17 11 31 25.5
t23.5 32.5t15 40t5.5 49q0 30 -11.5 56.5t-31 46t-46 31t-56.5 11.5t-56.5 -11.5t-46 -31t-31 -46t-11.5 -56.5q0 -28 5.5 -51t15.5 -41.5t24 -32t29 -22.5q10 -5 14.5 -13.5t4 -17t-4.5 -16.5t-11.5 -12.5t-17 -5.5t-18.5 5q-26 14 -46 34.5t-34.5 47t-22 58t-7.5 67.5
q0 30 7.5 57.5t21.5 51t33.5 43t43.5 33.5t51 22t57 8q29 0 55 -7t49 -20t42.5 -31t33.5 -40q14 22 33.5 40t42.5 31t49 20t55 7q44 0 83 -17t68 -46t46 -68t17 -84q0 -44 -17 -83t-46 -68t-68 -46t-83 -17q-20 0 -32 8t-16 19zM733 166q-18 7 -35.5 6.5t-33.5 -6t-29.5 -16
t-23 -24.5t-14 -30.5t-3.5 -33.5q25 0 47 7.5t40.5 21.5t31.5 33t20 42z" />
    <glyph glyph-name="CKT_CA" unicode="&#xaa61;" horiz-adv-x="885" 
d="M591 -3q-26 0 -51 6.5t-47 18t-40.5 27.5t-32.5 36q-14 -25 -32.5 -45t-42.5 -36q-10 -6 -19 -5.5t-16.5 4.5t-12 11.5t-5.5 16t2.5 17t13.5 14.5q32 20 51.5 54t21.5 83v9v10q-2 28 -13.5 52.5t-30.5 43t-44.5 29t-53.5 10.5q-30 0 -56 -11.5t-45.5 -30.5t-30.5 -45
t-11 -56v-3.5v-3.5q1 -7 5 -10t10 -7q18 -8 35 -14.5t31 -16.5t22.5 -26t8.5 -42q0 -31 -14.5 -51.5t-37 -30t-51 -8t-57.5 15.5q-10 4 -15.5 12t-6.5 16t2 15.5t8.5 12.5t14 6t18.5 -5q15 -9 26.5 -11t19.5 -1t13 5t7.5 9t3.5 9t1 6q0 9 -4.5 13.5t-10.5 7.5q-12 6 -24 10
t-23 9.5t-20 12t-16 15.5q-5 6 -8 14q-6 15 -6 38v4v4q1 43 18 80.5t45.5 65.5t66 44t81.5 16q27 0 53 -7t49 -19.5t41.5 -30.5t32.5 -40q15 21 34 38.5t41.5 30t48 19t52.5 6.5q44 0 82 -16.5t67 -45t45.5 -67t16.5 -81.5q0 -44 -16.5 -82t-45.5 -67t-67 -45.5t-82 -16.5z
M591 65q30 0 56 11.5t45 30.5t30.5 45t11.5 56q0 29 -11.5 55t-30.5 45.5t-45 30.5t-56 11q-28 0 -53 -10t-44 -28t-31 -41.5t-14 -51.5v-9v-12q2 -28 14 -52t31 -42t44 -28.5t53 -10.5z" />
    <glyph glyph-name="CKT_CHA" unicode="&#xaa62;" horiz-adv-x="648" 
d="M143 285q6 10 14 14.5t16.5 4.5t16.5 -4t13.5 -11t7 -16t-3.5 -19q-2 -10 -3 -20.5t-1 -22.5q0 -30 11.5 -56.5t31.5 -46t46.5 -31t56.5 -11.5t56.5 11.5t46.5 31t31.5 46t11.5 56.5q0 55 -20.5 92.5t-54.5 59.5q-10 6 -14 15t-3 17.5t6 16t12.5 12t17 4.5t18.5 -6
q25 -16 45 -37.5t34 -48t21.5 -58t7.5 -67.5q0 -44 -17 -83.5t-46.5 -68.5t-69 -46t-83.5 -17q-34 0 -64.5 10t-56 27t-45.5 41t-32 53q-15 -26 -30.5 -53.5t-31.5 -52.5q-3 -13 -13.5 -19.5t-22 -6t-21.5 7.5t-12 21q-1 2 -1.5 6t0.5 7l-2 353q0 11 5 19t13 12.5t17 4.5
t17 -3.5t13.5 -11.5t5.5 -20l-1 -235q20 39 34.5 73t21.5 56z" />
    <glyph glyph-name="CKT_JA" unicode="&#xaa63;" horiz-adv-x="875" 
d="M595 353q-29 0 -54 -10t-44.5 -28t-31.5 -42t-14 -52v-6v-6v-6.5v-6.5q2 -28 14.5 -52t32 -41.5t44 -27.5t53.5 -10q30 0 56 11t46 31t31 46t11 56t-11 56t-31 46t-46 31t-56 11zM297 10q-18 22 -26.5 47t-9 50.5t7.5 49.5t22 44.5t34.5 36.5t46.5 24q-8 20 -21.5 37
t-31 29t-38.5 19t-44 7q-30 0 -56 -11.5t-46 -31t-31 -46t-11 -56.5v-3.5v-3.5q0 -7 4 -10.5t11 -6.5q18 -8 35.5 -15t31.5 -17t23 -26.5t9 -42.5q0 -31 -15 -52t-38 -30.5t-52 -8t-58 15.5q-10 4 -15.5 12t-6.5 16.5t2 16t8.5 12.5t14 5.5t18.5 -4.5q16 -9 27.5 -11.5
t19.5 -1t13 5.5t8 9t4 9t1 6q0 9 -4.5 14t-11.5 8q-12 5 -24 9.5t-23.5 9.5t-20.5 12t-16 16q-5 5 -8 15q-3 7 -5 17t-2 21q0 2 0.5 4t0.5 4q0 29 8.5 55.5t22 50t33 42.5t43 32.5t50.5 21t56 7.5q28 0 54 -7t49 -19.5t42.5 -30.5t33.5 -40q15 22 34 40t42 30.5t49 19.5
t54 7q44 0 83 -17t68 -46t45.5 -68t16.5 -83t-16.5 -83t-45.5 -68t-68 -46t-83 -17q-27 0 -52 6.5t-47 18t-41 28t-33 36.5q-14 -26 -33.5 -47t-43.5 -36q-7 -5 -14 -6t-13.5 0.5t-11.5 5.5t-9 9zM381 205q-19 -8 -33 -22.5t-21.5 -33t-8 -38.5t6.5 -39q25 21 40 51.5
t17 73.5q-1 2 -1 4v4z" />
    <glyph glyph-name="CKT_JHA" unicode="&#xaa64;" horiz-adv-x="893" 
d="M453 216v-6v-3q1 -29 12.5 -55t31.5 -45.5t46.5 -30.5t56.5 -11t57 11.5t47 31.5t31.5 47t11.5 57t-11.5 57t-31.5 47t-47 31.5t-57 11.5t-56.5 -11t-46.5 -30.5t-31.5 -45.5t-12.5 -56zM129 424q10 6 19.5 5t16.5 -6t11.5 -13t5 -16.5t-3.5 -17t-15 -14.5
q-16 -9 -29.5 -23t-23.5 -33t-16 -43t-6 -53q0 -30 11.5 -57t31.5 -47t47 -31.5t57 -11.5q31 0 57.5 11.5t46.5 31.5t31.5 47t11.5 57q0 55 -20.5 93t-54.5 60q-10 7 -14 15.5t-3 17t6 16.5t12.5 12.5t17 4.5t19.5 -6q25 -16 44.5 -37t33.5 -47q15 20 34 37t41.5 29t48 18.5
t53.5 6.5q45 0 84.5 -17.5t69 -47t46.5 -69t17 -84.5t-17 -84.5t-46.5 -69t-69 -46.5t-84.5 -17q-29 0 -55.5 6.5t-49.5 19.5t-42.5 31t-34.5 41q-15 -23 -34.5 -41.5t-43 -31.5t-50 -20t-55.5 -7q-45 0 -84.5 17t-69 46.5t-46.5 69t-17 84.5q0 37 7.5 69.5t22 60t35 49
t46.5 35.5z" />
    <glyph glyph-name="CKT_NYA" unicode="&#xaa65;" horiz-adv-x="1047" 
d="M465 191q1 50 21 93.5t53 76t77.5 51t94.5 18.5q51 0 96 -19t78.5 -52.5t53 -78.5t19.5 -96q0 -34 -8.5 -66t-25 -59t-39 -50t-49.5 -39t-59 -25t-66 -9q-14 0 -24.5 4t-18 10t-11 13.5t-3.5 15.5q0 7 3 14t10.5 12t18 8.5t25.5 3.5q35 0 65.5 13t53 35.5t35.5 53
t13 65.5q0 34 -13 64.5t-35.5 53t-53 35.5t-65.5 13q-34 0 -64 -12.5t-52.5 -34.5t-35.5 -51.5t-15 -62.5q0 -1 0.5 -4t0.5 -5q0 -13 -1 -25v-6v-475q0 -8 3.5 -16t9 -14t13.5 -9t17 -3h40q13 0 22 -6t13.5 -15t4.5 -19.5t-4.5 -19t-13.5 -14.5t-22 -6h-40q-26 0 -48 9.5
t-39 26t-26.5 39t-9.5 47.5v326q-31 -27 -71 -44q-45 -20 -95 -20q-34 0 -66 9t-59 25t-49.5 39t-39 50t-25 59t-8.5 66q0 51 19.5 96t53 78.5t78.5 52.5t96 19q14 0 24.5 -3.5t18 -9.5t11 -14t3.5 -15t-3 -14t-10 -12t-18 -8.5t-26 -3.5q-35 0 -65.5 -13t-53 -35.5
t-35.5 -53t-13 -64.5q0 -35 13 -65.5t35.5 -53t53 -35.5t65.5 -13q34 0 64 12.5t52.5 34t35.5 51t15 63.5v13z" />
    <glyph glyph-name="CKT_TTA" unicode="&#xaa66;" horiz-adv-x="886" 
d="M231 352q-30 0 -56 -11.5t-45.5 -31t-31 -46t-11.5 -55.5q0 -30 11.5 -56.5t31 -46t45.5 -30.5t56 -11t56.5 11t46 30.5t30.5 46t11 56.5q0 29 -11 55.5t-30.5 46t-46 31t-56.5 11.5zM409 325q15 21 34 39t42 30.5t49 19.5t54 7q44 0 83 -16.5t68 -45.5t45.5 -68
t16.5 -83t-16.5 -83t-45.5 -68t-68 -45.5t-83 -16.5q-15 0 -26 5t-17 12.5t-7 16.5t4.5 16.5t16.5 13t29 5.5q30 0 56.5 11t46 30.5t30.5 46t11 56.5q0 29 -11 55.5t-30.5 46t-46 31t-56.5 11.5q-29 0 -54 -10.5t-44.5 -28.5t-31.5 -42.5t-14 -52.5v-10q0 -44 -16.5 -83
t-45.5 -68t-68 -45.5t-83 -16.5t-83 16.5t-68 45.5t-45.5 68t-16.5 83t16.5 83t45.5 68t68 45.5t83 16.5q28 0 54 -7t49 -19.5t42 -30.5t33 -39zM230 151q-11 0 -21 4t-17.5 11.5t-12 17.5t-4.5 22q0 11 4.5 21t12 17.5t17.5 12t21 4.5q12 0 22 -4.5t17.5 -12t11.5 -17.5
t4 -21q0 -12 -4 -22t-11.5 -17.5t-17.5 -11.5t-22 -4z" />
    <glyph glyph-name="CKT_TTHA" unicode="&#xaa67;" horiz-adv-x="884" 
d="M377 198v22q-3 28 -15 52.5t-31 42.5t-44.5 28.5t-54.5 10.5q-30 0 -56 -11.5t-45.5 -31t-31 -46t-11.5 -56.5t11.5 -56.5t31 -46t45.5 -31t56 -11.5q29 0 54.5 10.5t44.5 28.5t31 42.5t15 52.5zM591 423q44 0 83 -17t68 -46t46 -68t17 -83t-17 -83.5t-46 -68.5
t-68 -45.5t-83 -16.5q-28 0 -54.5 6.5t-49 19.5t-42 30.5t-33.5 39.5q-15 -22 -34 -39.5t-42 -30.5t-49.5 -19.5t-54.5 -6.5q-44 0 -83 16.5t-68 45.5t-46 68.5t-17 83.5t17 83t46 68t68 46t83 17q28 0 54.5 -7t49.5 -19.5t42 -30.5t34 -40q14 22 33.5 40t42 30.5t49 19.5
t54.5 7zM591 354q-29 0 -54 -10.5t-45 -28.5t-31.5 -42.5t-14.5 -52.5q1 -11 0 -22q3 -28 14.5 -52.5t31.5 -42.5t45 -28.5t54 -10.5q30 0 56.5 11.5t46 31t31 46t11.5 56.5t-11.5 56.5t-31 46t-46 31t-56.5 11.5zM231 152q-11 0 -21 4t-17.5 11.5t-12 17.5t-4.5 22
q0 11 4.5 21t12 17.5t17.5 12t21 4.5q12 0 22 -4.5t17.5 -12t12 -17.5t4.5 -21q0 -12 -4.5 -22t-12 -17.5t-17.5 -11.5t-22 -4z" />
    <glyph glyph-name="CKT_DDA" unicode="&#xaa68;" horiz-adv-x="896" 
d="M414 329q15 22 34 40t42.5 30.5t49.5 19.5t55 7q44 0 83.5 -17t69 -46t46 -68.5t16.5 -84.5q0 -44 -16.5 -83.5t-46 -69t-69 -46t-83.5 -16.5q-16 0 -27 5t-17 13t-7 17v0q-8 30 -5 58.5t15 53t31.5 44t44 31.5t52.5 15.5t58 -4.5q-3 21 -11 39q-11 27 -31 46.5t-46.5 31
t-56.5 11.5q-29 0 -54.5 -10.5t-45 -29t-32 -43t-14.5 -53.5v-10q0 -44 -16.5 -83.5t-46 -69t-69 -46t-83.5 -16.5q-45 0 -84.5 16.5t-68.5 46t-46 69t-17 83.5q0 45 17 84.5t46 68.5t68.5 46t84.5 17q28 0 54.5 -7t49.5 -19.5t42.5 -30.5t33.5 -40zM234 356
q-30 0 -57 -11.5t-46.5 -31t-31 -46.5t-11.5 -57t11.5 -56.5t31 -46.5t46.5 -31.5t57 -11.5t56.5 11.5t46.5 31.5t31.5 46.5t11.5 56.5t-11.5 57t-31.5 46.5t-46.5 31t-56.5 11.5zM233 153q-12 0 -22 4t-17.5 11.5t-12 18t-4.5 21.5q0 12 4.5 22t12 17.5t17.5 12t22 4.5
q11 0 21.5 -4.5t18 -12t12 -17.5t4.5 -22q0 -11 -4.5 -21.5t-12 -18t-18 -11.5t-21.5 -4zM652 76q26 11 46 31t31 46q3 9 6 17q-18 6 -35.5 6t-34 -5.5t-30 -16.5t-23 -24.5t-14 -30.5t-2.5 -35q29 0 56 12z" />
    <glyph glyph-name="CKT_DDHA" unicode="&#xaa69;" horiz-adv-x="884" 
d="M591 423q44 0 83 -17t68 -46t46 -68t17 -83t-17 -83.5t-46 -68.5t-68 -45.5t-83 -16.5q-28 0 -54.5 6.5t-49 19.5t-42 30.5t-33.5 39.5q-15 -22 -34 -39.5t-42 -30.5t-49.5 -19.5t-54.5 -6.5q-44 0 -83 16.5t-68 45.5t-46 68.5t-17 83.5t17 83t46 68t68 46t83 17
q28 0 54.5 -7t49.5 -19.5t42 -30.5t34 -40q14 22 33.5 40t42 30.5t49 19.5t54.5 7zM377 198v22q-3 28 -15 52.5t-31 42.5t-44.5 28.5t-54.5 10.5q-30 0 -56 -11.5t-45.5 -31t-31 -46t-11.5 -56.5t11.5 -56.5t31 -46t45.5 -31t56 -11.5q29 0 54.5 10.5t44.5 28.5t31 42.5
t15 52.5zM591 354q-29 0 -54 -10.5t-45 -28.5t-32 -43q-2 -4 -4 -9q27 3 52 -2.5t46.5 -18t38 -31t27 -41.5t14 -48.5t-2.5 -52.5l16 6q27 12 46.5 31.5t31 46t11.5 56.5t-11.5 56.5t-31 46t-46 31t-56.5 11.5zM446 203v-5q3 -28 14.5 -52.5t31.5 -42.5t45 -29q16 -6 33 -9
q8 20 7.5 39.5t-7.5 37t-19.5 31.5t-29 23t-35.5 11.5t-40 -4.5zM231 152q-11 0 -21 4t-17.5 11.5t-12 17.5t-4.5 22q0 11 4.5 21t12 17.5t17.5 12t21 4.5q12 0 22 -4.5t17.5 -12t12 -17.5t4.5 -21q0 -12 -4.5 -22t-12 -17.5t-17.5 -11.5t-22 -4z" />
    <glyph glyph-name="CKT_DHA" unicode="&#xaa6a;" horiz-adv-x="886" 
d="M588 421q44 0 83 -16.5t68 -45.5t45.5 -68t16.5 -83t-16.5 -83t-45.5 -68t-68 -45.5t-83 -16.5q-28 0 -54 6.5t-48.5 19.5t-42 30.5t-33.5 39.5q-15 -22 -34 -39.5t-42 -30.5t-49 -19.5t-54 -6.5q-44 0 -83 16.5t-67.5 45.5t-45.5 68t-17 83t17 83t45.5 68t67.5 45.5
t83 16.5q28 0 54 -7t49 -19.5t42 -30.5t34 -39q14 21 33.5 39t42 30.5t48.5 19.5t54 7zM375 197v22q-2 28 -14 52t-31.5 42t-44.5 28.5t-54 10.5q-30 0 -56 -11.5t-45.5 -31t-31 -46t-11.5 -55.5q0 -30 11.5 -56.5t31 -46t45.5 -30.5t56 -11q29 0 54 10t44.5 28t31.5 42.5
t14 52.5zM588 352q-29 0 -54 -10.5t-44.5 -28.5t-31.5 -42q-2 -5 -4 -9q27 3 51.5 -2.5t46 -18t38 -31t27 -41t14 -48t-2.5 -52.5q8 2 16 6q27 11 46.5 30.5t30.5 46t11 56.5q0 29 -11 55.5t-30.5 46t-46 31t-56.5 11.5zM444 202v-5q2 -28 14 -52.5t31.5 -42.5t44.5 -28
q16 -7 34 -9q7 20 7 39.5t-7 37t-20 31t-29 22.5t-35.5 11.5t-39.5 -4.5z" />
    <glyph glyph-name="CKT_NA" unicode="&#xaa6b;" horiz-adv-x="617" 
d="M434 0q-11 -6 -20 -5.5t-16.5 5.5t-11.5 13t-4.5 17t3.5 17t15 14q15 9 28.5 23t24 33t16 42.5t5.5 52.5q0 30 -11.5 56.5t-31 46.5t-46.5 31.5t-57 11.5q-22 0 -42 -6t-37 -17t-30.5 -26.5t-22.5 -34.5q27 -8 49 -24.5t37 -38.5t22.5 -48.5t6 -53.5t-13 -53.5
t-33.5 -49.5v0q-8 -8 -20 -11t-25 6q-25 16 -44.5 37.5t-33.5 48t-21.5 58t-7.5 67.5q0 10 1 21q-24 10 -43.5 27.5t-32.5 39.5t-18.5 47.5t-2.5 51.5q4 12 14 16t19.5 1t16.5 -11.5t6 -19.5q0 -15 3.5 -29t10.5 -26.5t17 -22.5t23 -17q12 30 32 55.5t46.5 43.5t57.5 28.5
t66 10.5q45 0 84 -17t68.5 -46.5t46.5 -68.5t17 -84q0 -36 -8 -68.5t-22 -60t-34.5 -48.5t-45.5 -35zM182 218v-6q0 -49 16 -83.5t44 -57.5q11 21 11.5 44t-8 43.5t-25 36.5t-38.5 23z" />
    <glyph glyph-name="CKT_SA" unicode="&#xaa6c;" horiz-adv-x="1050" 
d="M524 211q0 4 1 12t2 18.5t3 21.5t3 22t2 20t1 15q0 11 -7.5 19t-18 12.5t-23.5 5t-23.5 -4t-18 -13.5t-7.5 -23q0 -8 3 -23t6.5 -31t6.5 -30.5t3 -20.5q0 -46 -17.5 -85.5t-47 -69t-69.5 -46.5t-85 -17t-84.5 17t-69.5 46.5t-47 69t-17 85.5q0 36 8 69t22.5 60.5t35 49
t45.5 35.5q11 6 20.5 5.5t16.5 -6t11.5 -13t5 -16.5t-4 -17.5t-14.5 -14.5q-16 -9 -29.5 -23t-24 -33.5t-16 -43.5t-5.5 -52q0 -31 11.5 -58t31.5 -47t47 -31.5t57 -11.5q31 0 58 11.5t46.5 31.5t31.5 47t12 58q0 3 -3 16t-7 29t-7 32t-3 28q0 28 10.5 49t27.5 34.5
t38.5 20.5t44.5 7t44.5 -7t38.5 -20.5t27 -33.5t10 -46q0 -9 -2 -25t-4 -33.5t-4 -33.5t-2 -24q2 -30 14 -55.5t32 -44.5t46 -30t56 -11t57 11.5t47 31.5t31.5 47t11.5 58q0 27 -5.5 50.5t-15 42.5t-23.5 34t-32 26q-10 7 -13.5 15.5t-2.5 17.5t6 16.5t12.5 12t17 4.5
t18.5 -6q26 -16 46 -38t34 -48.5t21.5 -58.5t7.5 -68q0 -46 -17 -85.5t-47 -69t-69.5 -46.5t-84.5 -17q-46 0 -85.5 17t-69 46.5t-47 69t-17.5 85.5z" />
    <glyph glyph-name="CKT_HA" unicode="&#xaa6d;" horiz-adv-x="910" 
d="M301 329q-12 0 -21 -9t-9 -22q0 -12 9 -21t21 -9q13 0 22 9t9 21q0 13 -9 22t-22 9zM399 346q6 6 14.5 12.5t20.5 15.5q27 19 57 29.5t61 13t61.5 -3t59 -18.5t53 -33t43.5 -47q28 -41 38 -87.5t2 -92t-33 -86t-66 -69.5q-24 -17 -50.5 -27t-53.5 -14t-54 -1.5t-53 10.5
q-13 4 -19.5 12.5t-8 18t1.5 19t10 16t17 9.5t22 0q36 -12 73 -7t70 28q28 19 44.5 46.5t22 58.5t-1 62.5t-25.5 58.5q-19 28 -46.5 44.5t-58.5 22t-62.5 -1t-59.5 -25.5q-10 -8 -19 -15t-17 -14t-15.5 -13t-16.5 -12v-526q0 -8 -1 -14q-1 -5 -1.5 -9.5t-1.5 -7.5
q-6 -31 -22.5 -57.5t-40 -46t-53 -30.5t-62.5 -11q-38 0 -71 14.5t-58 39t-39 58t-14 70.5q0 15 2.5 30t6.5 28q4 12 12.5 18.5t18 8t19 -1.5t16.5 -10t10 -17t-2 -22q-5 -16 -5 -34q0 -22 8 -40.5t22.5 -32.5t33.5 -22.5t40 -8.5t39.5 8t32.5 21t22.5 31t9.5 39v463
q-15 -5 -31 -5q-22 0 -42 8.5t-34.5 23.5t-23 35t-8.5 42q0 23 8.5 43t23 34.5t34.5 23t42 8.5q16 0 31 -4.5t27.5 -12.5t22.5 -19t17 -25z" />
    <glyph glyph-name="CKT_LLA" unicode="&#xaa6e;" horiz-adv-x="893" 
d="M450 217v-12q1 -29 12.5 -55t31 -45t46 -30t55.5 -11q31 0 57.5 11.5t46 31.5t31 46.5t11.5 56.5t-11.5 57t-31 46.5t-46 31t-57.5 11.5q-13 0 -22.5 3t-15.5 7.5t-9 10.5t-3 12q0 7 3.5 13.5t10 12t15.5 8.5t21 3q45 0 84.5 -17t68.5 -46t46 -68.5t17 -84.5
q0 -29 -7.5 -57t-21.5 -52t-34 -43.5t-43.5 -33.5t-51.5 -22t-58 -8q-44 0 -83 17t-68.5 45.5t-47 67.5t-17.5 83q0 2 0.5 4.5t0.5 3.5q-1 29 -13 55t-31.5 45t-46 30t-55.5 11q-30 0 -57 -11.5t-46.5 -31t-31.5 -46.5q-7 -17 -10 -35q29 8 57.5 5t53.5 -15t44.5 -32.5
t31.5 -45.5t15 -54t-7 -60q0 -6 -3 -12q-3 -7 -9.5 -12.5t-16 -8.5t-21.5 -3q-30 0 -57.5 8t-51.5 22t-44 33.5t-34 43.5t-21.5 52t-7.5 57q0 45 17 84.5t46 68.5t68.5 46t84.5 17q44 0 82.5 -16.5t68 -44.5t46.5 -66.5t19 -81.5zM92 173q3 -10 7 -20q12 -26 31.5 -46
t46.5 -31.5t57 -11.5q2 19 -2.5 37t-14.5 32.5t-23.5 25.5t-30 16.5t-35 5.5t-36.5 -8z" />
    <glyph glyph-name="CKT_FA" unicode="&#xaa6f;" horiz-adv-x="671" 
d="M365 418q44 0 83 -16.5t67.5 -45.5t45.5 -67.5t17 -82.5t-17 -82.5t-45.5 -67t-67.5 -45.5t-83 -17t-82.5 17t-67.5 45.5t-45.5 67t-16.5 82.5q0 27 6.5 52t17.5 47l-59 25l2 -302q-1 -11 -6 -18.5t-13 -11t-17 -3.5t-16.5 4t-12.5 12t-5 19v355q1 12 7 20t15 11
t19.5 1.5t20.5 -6.5q26 -10 55 -23t55 -25q28 26 64.5 40.5t78.5 14.5zM365 350q-29 0 -55.5 -11.5t-46 -31t-30.5 -45.5t-11 -56q0 -29 11 -55.5t30.5 -46t46 -30.5t55.5 -11q30 0 56 11t45.5 30.5t31 46t11.5 55.5q0 30 -11.5 56t-31 45.5t-45.5 31t-56 11.5z" />
    <glyph glyph-name="redupli" unicode="&#xaa70;" horiz-adv-x="474" 
d="M341 529q-85 38 -148 38t-150 -39q-3 4 -39 63q98 53 183 53q88 0 190 -53zM342 672q-99 32 -150 32q-57 0 -149 -32q-7 12 -19 31l-20 30q95 50 183 50q92 0 190 -50z" />
    <glyph glyph-name="CKT_XA" unicode="&#xaa71;" horiz-adv-x="901" 
d="M93 239q29 -4 54.5 -18.5t44.5 -36t29.5 -49t10.5 -57.5q0 -19 -5 -39t-16 -39q-7 -2 -16 -3q-7 -1 -16 -1.5t-18 -0.5t-17.5 1t-13.5 4q-26 15 -46 35.5t-34.5 47t-22 58t-7.5 67.5q0 30 7.5 57.5t21.5 51t33.5 43t43.5 33.5t51 22t57 8q29 0 55 -7t49.5 -20t42.5 -31
t34 -40q14 22 33.5 40t42.5 31t49 20t55 7q44 0 83 -17t68 -46t46 -68t17 -84q0 -44 -17 -83t-46 -68t-68 -46t-83 -17q-12 0 -21.5 3t-16 8.5t-9.5 12t-3 12.5q0 7 2.5 13t9 10.5t16 7t22.5 2.5q30 0 56.5 11.5t46 31t31 46t11.5 56.5t-11.5 56.5t-31 46.5t-46 31t-56.5 11
q-31 0 -57.5 -11.5t-46 -31.5t-31 -46.5t-11.5 -56.5q0 -36 -7.5 -66.5t-21 -56t-33.5 -46t-45 -36.5q-9 -6 -19 -6q-7 0 -13.5 3t-11 8t-7.5 11.5t-3 13.5q0 8 4 15.5t13 13.5q17 11 30.5 25t23.5 32t15.5 40.5t5.5 49.5q0 30 -11.5 56.5t-31.5 46.5t-46.5 31t-56.5 11
q-26 0 -49.5 -8.5t-42 -24t-31.5 -36.5t-18 -45zM172 54q2 7 2.5 12.5t0.5 11.5q0 19 -6.5 36t-17.5 31t-26.5 23.5t-33.5 12.5q2 -22 8.5 -41t16 -33.5t22 -26t26.5 -19.5q4 -3 8 -7z" />
    <glyph glyph-name="CKT_ZA" unicode="&#xaa72;" horiz-adv-x="1113" 
d="M132 77q1 20 0.5 40.5t-4 38t-10.5 29t-18 12.5q-6 -5 -7 -20.5t2.5 -34t12.5 -36.5t24 -29zM812 425q45 0 84.5 -17t69 -46.5t46.5 -69.5t17 -85q0 -30 -7.5 -57.5t-22 -51.5t-34 -44t-44 -34t-52 -22t-57.5 -8q-27 0 -52.5 6.5t-48 18.5t-42 28.5t-34.5 36.5
q-14 -27 -34.5 -49t-47.5 -36q-10 -6 -19.5 -5t-16.5 6t-11.5 13t-5 16.5t4 17t14.5 14.5q16 9 29.5 23t24 33t16 43t5.5 53q0 30 -11.5 57t-31.5 47t-46.5 31.5t-57.5 11.5q-30 0 -57 -11.5t-46.5 -31.5t-31 -47t-11.5 -57q0 -3 -0.5 -6t-0.5 -6q1 -32 -2 -63.5
t-14.5 -58.5t-33.5 -46.5t-60 -27.5q0 -1 -0.5 -3t-0.5 -3q-3 -10 -9.5 -16t-14 -8t-15.5 -0.5t-14.5 6.5t-10.5 11.5t-4 15.5q-24 9 -42.5 27t-31 41t-18.5 48.5t-5.5 50t8.5 45t22 33.5q13 12 27.5 15.5t28.5 1.5t27 -9.5t23 -19.5q13 -14 21.5 -32.5t13.5 -39t7 -42
t1 -43.5q15 12 22 34.5t7 59.5q-1 5 -1.5 13t-0.5 17v16v8q4 42 22.5 78t47.5 63t67 42t80 15q29 0 56 -7t50 -20t42.5 -31.5t34.5 -40.5q15 22 34 40t42.5 31t50 20t55.5 7zM812 355q-30 0 -57 -11.5t-47 -32t-31.5 -47t-11.5 -57.5q0 -30 11.5 -57t31.5 -47t47 -31t57 -11
q31 0 57.5 11t46.5 31t31.5 47t11.5 57q0 31 -11.5 57.5t-31.5 47t-46.5 32t-57.5 11.5z" />
    <glyph glyph-name="CKT_RA" unicode="&#xaa73;" horiz-adv-x="667" 
d="M134 163q-8 21 -20 47.5t-27 55.5l1 -237q0 -12 -5.5 -19.5t-13.5 -11.5t-17 -3.5t-17 4.5t-13 12t-5 20l1 355q-1 7 1 14q3 13 13 20t21.5 7.5t22 -6t13.5 -19.5q19 -30 38 -63t35 -64.5t27.5 -59t17.5 -46.5q2 -4 3 -8t1 -8q9 -19 23 -36t32 -29t39 -18.5t44 -6.5
q30 0 56.5 11.5t46.5 31.5t31.5 46.5t11.5 57.5q0 55 -20.5 92.5t-54.5 60.5q-10 6 -13.5 14.5t-3 17.5t5.5 16.5t12.5 12t17 4.5t19.5 -6q25 -16 45 -37.5t34 -48.5t21.5 -58.5t7.5 -67.5q0 -45 -17.5 -84.5t-46.5 -69t-68.5 -46.5t-84.5 -17q-39 0 -74.5 13t-64 35.5
t-48.5 53.5t-28 68z" />
    <glyph glyph-name="KT_OAY" unicode="&#xaa74;" horiz-adv-x="788" 
d="M297 -295q-9 0 -15 -6.5t-6 -15.5t6 -15t15 -6t15.5 6t6.5 15t-6.5 15.5t-15.5 6.5zM399 53q27 23 43.5 56.5t16.5 71.5q0 49 -14 85t-39 62q-2 -7 -4 -22.5t-3 -36t-1.5 -44.5t-0.5 -48q0 -57 2 -124zM540 -445q-27 9 -147 95q-5 -15 -14.5 -27.5t-22 -22t-27.5 -14.5
t-32 -5q-21 0 -39.5 8t-32 22t-21.5 32.5t-8 39.5q0 20 8 39t21.5 32.5t32 21.5t39.5 8q6 0 11.5 -0.5t11.5 -1.5v154q-14 -1 -28 -1q-51 0 -95.5 19.5t-78 52.5t-53 78t-19.5 96q0 42 9 78.5t25 67.5t39 55.5t52 40.5q12 7 22.5 6t19 -6.5t13.5 -14.5t5.5 -19t-4 -19.5
t-16.5 -16.5q-18 -10 -34 -26t-27.5 -37.5t-18 -48.5t-6.5 -60q0 -35 13 -65t36 -52.5t53.5 -35.5t64.5 -13q7 0 13.5 0.5t14.5 1.5v288v-1q1 31 12.5 58.5t30.5 50.5q9 11 23.5 15t29.5 -6q28 -18 51 -42.5t39 -55t24.5 -66t8.5 -77.5q0 -37 -10.5 -70.5t-29 -62.5
t-44 -51.5t-56.5 -36.5v-226l149 -86q9 -4 15.5 -3t11 5.5t6.5 11.5t2 16v278v2v293q0 33 -11.5 62t-31 52.5t-46 40.5t-55.5 27q-56 18 -88.5 57t-40.5 94q-5 39 4.5 74.5t31 64t53 48t70.5 24.5q34 5 66.5 -2.5t59.5 -25t47.5 -44t30.5 -57.5q32 -22 135 -127t-24.5 -22.5
t-137.5 89t-19.5 13t-18 13.5t-11.5 10q-6 18 -18 33t-27.5 25t-34 14.5t-38.5 2.5q-21 -4 -39 -15t-30.5 -27.5t-18 -36.5t-2.5 -42q2 -14 6 -27t11.5 -23.5t18.5 -19t28 -13.5q46 -16 85 -43.5t66.5 -63t43 -75.5t15.5 -80v-497v-1v-1v-74q0 -26 -10 -48t-26.5 -39
t-38.5 -26.5t-48 -9.5z" />
    <glyph glyph-name="KT_QN" unicode="&#xaa75;" horiz-adv-x="1105" 
d="M785 -13l-1 -208l160 -128v703l-25 38l-59 50l-39 -4l-30 1l-30 9q-52 15 -105 100l-11 32l-5 39q0 104 107 170l37 13l39 4l20 -1q12 -1 22 -6l45 -17q51 -20 77 -90l-14 -13l-36 -23q-11 37 -44 62t-72 25q-49 0 -83.5 -35.5t-34.5 -85.5q0 -26 1 -28q0 -7 12 -30
q4 -16 40 -42l15 -10l16 -6l36 -7q20 0 32 6q63 -12 101 -48q19 -18 58 -76v-760q-8 -48 -60 -48q-17 0 -37 6l-138 91q-38 -80 -112 -80q-50 0 -85.5 36t-35.5 86t35.5 86t85.5 36q15 0 43 -9l2 124q-33 -8 -70 -8q-21 0 -40 2l-18 77q27 -8 58 -8q70 0 117 47.5t47 117.5
q0 71 -46.5 118t-117.5 47q-69 0 -121 -48t-51 -117q3 -100 -60 -167q-29 -31 -74 -51l-35 64q27 13 56 41q43 41 43 115q0 72 -44.5 116.5t-116.5 44.5q-73 0 -116 -40q-39 -36 -46 -74q-5 -21 -5 -36q0 -25 11 -34q15 4 32 4q44 0 76 -32t32 -77t-31.5 -77t-76.5 -32
q-52 0 -91 55l59 34q19 -17 31 -17q37 0 37 36q0 38 -37 38q-9 0 -25.5 -3t-23.5 -3q-37 -1 -55 39q-12 28 -12 58q0 101 68.5 167.5t169.5 66.5t169 -66q22 -23 35 -45q38 65 105 92q47 19 97 19q104 0 169 -66t65 -170q0 -121 -91 -190zM715 -286q0 19 -13.5 32t-32.5 13
t-31.5 -13t-12.5 -32t12.5 -32t31.5 -13t32.5 13t13.5 32z" />
    <glyph glyph-name="KT_HM" unicode="&#xaa76;" horiz-adv-x="1140" 
d="M481 361q79 68 174 68q105 0 171.5 -67t66.5 -173q0 -124 -92 -195l-2 -211l164 -131v716l-26 39l-61 52l-39 -4l-31 1l-30 8q-53 16 -107 102l-12 33l-5 40q0 106 110 173l37 13l40 4h21q12 -1 22 -7l46 -17q51 -20 78 -92l-14 -13l-36 -24q-12 38 -46 63.5t-73 25.5
q-50 0 -85.5 -36t-35.5 -87q0 -26 2 -28q0 -8 12 -31q4 -17 41 -43l15 -11l17 -6l37 -7q20 0 31 6q64 -11 104 -48q19 -18 59 -77v-775q-9 -49 -62 -49q-17 0 -37 6l-140 93q-40 -81 -115 -81q-51 0 -87 36.5t-36 87.5t36 87.5t87 36.5q15 0 44 -9l2 127q-33 -9 -71 -9
q-21 0 -41 2l-18 79q27 -9 59 -9q71 0 119 48.5t48 120.5t-47.5 120t-119.5 48t-122 -48q-53 -51 -53 -120l2 -533q0 -31 -21.5 -52.5t-52.5 -21.5h-330q-75 9 -76 74l-1 96q0 44 20 74q42 59 115 52q49 0 106 -11l-10 -40q-4 -13 -11 -35q-36 5 -90 9q-46 -6 -55 -44v-48
q0 -53 55 -53h278v520q0 73 -51 122.5t-124 49.5q-32 0 -68 -10l-32 69q50 17 100 17q108 0 179 -71q5 -3 31 -42q15 21 37 50zM729 -284q0 20 -14 33t-33 13t-32 -13t-13 -33q0 -19 13 -32t32 -13t33 13t14 32z" />
    <glyph glyph-name="AT_EXCLAMATION" unicode="&#xaa77;" horiz-adv-x="654" 
d="M491 -389q-9 -3 -17 -3q-19 0 -32 26l-117 251q-65 -119 -74 -236l117 5l5 -74h-214q4 48 9 96q7 60 18 95q36 105 106 209q46 70 73 96q43 41 43 118q0 72 -45 117.5t-119 45.5q-75 0 -118 -41q-40 -36 -48 -75q-4 -22 -4 -37q0 -25 10 -35q16 5 33 5q46 0 78.5 -32.5
t32.5 -79.5t-32 -79t-79 -32q-52 0 -92 56l59 34q21 -16 32 -16q38 0 38 36q0 38 -38 38q-8 0 -25 -2.5t-24 -2.5q-38 -2 -57 40q-12 28 -12 60q0 102 70 170t174 68q106 0 170.5 -67t67.5 -174q4 -102 -61 -171q-23 -24 -54 -68l5 1l122 -261l66 31l31 -66zM1079 504
q-107 117 -293 216q-74 39 -197 63q-110 23 -207 25q-291 7 -291 -148q0 -136 128 -152q43 -6 72.5 22t25.5 73q4 1 9 1q18 0 33.5 -18.5t15.5 -37.5q0 -5 -3 -13q-30 -87 -158 -87q-90 0 -145.5 60t-55.5 152q0 128 119 185q88 43 231 43q232 0 371 -75q248 -134 341 -295
q4 -7 4 -14z" />
    <glyph glyph-name="AT_ONE" unicode="&#xaa78;" horiz-adv-x="762" 
d="M349 -2q-4 42 -28 63q-30 26 -66 26q-40 -2 -63.5 -26t-27.5 -63h-65q4 64 48.5 107t107.5 43q66 0 110 -44v-1q-1 2 -9 10q21 173 80 308q42 96 98 136q28 20 60 20q54 0 113 -66l-49 -32q-31 32 -59 32q-58 0 -110 -116q-33 -72 -55 -165q-26 -115 -26 -232h-59zM0 117
q39 4 63.5 27.5t25.5 62.5q0 40 -25 66q-23 24 -63 29v60q67 -4 108.5 -46t41.5 -109q0 -64 -43 -107.5t-108 -47.5v65zM164 415q6 -62 54 -82q17 -7 37 -7q40 -1 65 23.5t29 65.5h60q-4 -68 -45.5 -109t-108.5 -41q-64 0 -108 42.5t-48 107.5h65z" />
    <glyph glyph-name="AT_TWO" unicode="&#xaa79;" horiz-adv-x="599" 
d="M251 -351l117 5l5 -74h-214q14 116 40 196q36 106 99 208q44 70 67 92q44 42 44 118q0 73 -45.5 118.5t-119.5 45.5q-75 0 -118 -41q-40 -37 -48 -76q-4 -21 -4 -37q0 -24 11 -34q15 4 32 4q46 0 78.5 -32.5t32.5 -78.5q0 -47 -32 -79.5t-79 -32.5q-53 0 -93 56l61 35
q20 -17 31 -17q38 0 38 37q0 38 -38 38q-9 0 -25.5 -2.5t-23.5 -2.5q-38 -2 -57 40q-12 28 -12 59q0 103 70 171t174 68q107 0 171 -67t68 -174q3 -103 -62 -171q-22 -24 -54 -69l6 2q-113 -205 -120 -305z" />
    <glyph glyph-name="CAT_RA" unicode="&#xaa7a;" horiz-adv-x="1005" 
d="M304 -101q-87 0 -149.5 63t-62.5 150q0 89 62 151t150 62t150.5 -62.5t62.5 -150.5q0 -62 40 -102t102 -40q59 0 100.5 42t41.5 100t-42 100t-100 42q-29 0 -50 -8l7 76l43 2q84 5 149 -62q64 -65 64 -150q0 -87 -63 -150t-150 -63q-79 0 -142 57v-304q0 -12 1 -36t1 -36
h-519v1014h478l-1 84h71l-4 -169l-485 -4l5 -854l382 1v460q0 58 -42 100t-100 42q-59 0 -100.5 -41t-41.5 -101q0 -61 40.5 -101.5t101.5 -40.5l5 -3z" />
    <glyph glyph-name="PAO_TONE" unicode="&#xaa7b;" horiz-adv-x="329" 
d="M145 9q49 6 73 30q30 30 30 74q0 45 -29 75t-74 30q-44 0 -76 -30q-41 -38 -41 -75q0 -2 -1 -15.5t-1 -24.5q0 -169 222 -290q4 -2 7 -2q7 0 7 9q0 20 -27 45q-40 37 -72 82q-36 49 -36 74q0 16 18 18zM145 146q31 0 31 -33t-31 -33q-35 0 -35 33t35 33z" />
    <glyph glyph-name="ta.sub.dot" horiz-adv-x="2" 
d="M-13 -254q0 -86 -63.5 -148.5t-149.5 -62.5q-46 0 -80 23q-39 26 -39 69q0 38 40 38q12 0 35 -26t47 -26q53 0 92 40t39 93q0 57 -41 95t-97 38q-54 0 -96 -35t-42 -87v-23q0 -3 -1 -8v-8q-9 -80 -71.5 -131.5t-143.5 -51.5q-94 0 -155.5 59.5t-61.5 151.5
q0 91 62.5 151.5t154.5 60.5q112 0 177 -90q64 90 177 90q93 0 155 -60t62 -152zM-447 -265v22q0 52 -42 87t-95 35q-56 0 -97.5 -38t-41.5 -95q0 -56 41.5 -94.5t97.5 -38.5q53 0 95 35t42 87z" />
    <glyph glyph-name="tha.sub.dot" horiz-adv-x="3" 
d="M-221 -460q-108 0 -174 86q-64 -86 -171 -86q-92 0 -151 57t-59 149q0 93 58.5 149t151.5 56q107 0 171 -85q66 85 174 85q94 0 153 -56t59 -149t-59 -149.5t-153 -56.5zM-221 -125q-59 0 -96 -35t-37 -94q0 -57 38 -92.5t95 -35.5q56 0 93.5 36t37.5 92t-37.5 92.5
t-93.5 36.5zM-566 -125q-56 0 -92.5 -36.5t-36.5 -92.5t36.5 -92t92.5 -36q58 0 95 35.5t37 92.5t-37 93t-95 36z" />
    <glyph glyph-name="da.sub.dot" horiz-adv-x="2" 
d="M-97 -347q-14 -122 -188 -122q-129 0 -191 112q-5 10 -5 21q0 37 41 37q22 0 33 -20q39 -72 122 -72q98 0 110 48q0 49 -80 47q-42 -1 -42 38t39 40q24 1 38 2q46 7 43 43q-25 48 -108 48q-33 0 -67 -15q-41 -17 -44 -45q12 -14 12 -27q0 -35 -44 -35q-52 0 -47 69
q3 27 20 52q55 79 170 79q59 0 110 -25q57 -29 74 -80l1 -9q2 -8 2 -23q0 -45 -30 -75q36 -35 31 -88z" />
    <glyph glyph-name="dha.sub.dot" horiz-adv-x="2" 
d="M-108 -256q0 -93 -62.5 -153t-154.5 -60q-90 0 -153 61t-63 152q0 90 62 150.5t154 60.5q94 0 155.5 -59.5t61.5 -151.5zM-186 -256q0 56 -41 94t-98 38q-56 0 -97 -38t-41 -94q0 -32 15 -60q10 42 45.5 69.5t77.5 27.5q45 0 80 -27t44 -70q15 28 15 60zM-277 -344
q0 45 -48 45q-47 0 -47 -45q0 -47 47 -47q20 0 34 13.5t14 33.5zM-269 -388q-14 -3 -16 -3t-15 3q3 0 7 -1h15q5 1 9 1z" />
    <glyph glyph-name="M_HA_UU_ND" horiz-adv-x="2" 
d="M231 -329q-1 -4 -8 -11q-129 -146 -272 -147q-31 -4 -56 -4q-164 0 -164 148l1 318q82 -22 81 -92l-3 -241q0 -9 1 -13q5 -38 84 -41q236 -9 336 83zM-288 -492q-114 13 -114 135l2 327q79 -22 79 -101l-1 -227q0 -114 34 -134zM-442 -343q0 -148 -165 -148q-26 0 -56 4
q-154 3 -276 150q-3 4 -4 8q100 -92 336 -83q78 3 84 41l-1 254q0 69 80 92z" />
    <glyph glyph-name="pa.sub.dot" horiz-adv-x="2" 
d="M-108 -258q0 -91 -62.5 -151t-154.5 -60q-93 0 -154.5 59.5t-61.5 151.5q0 124 86 182q13 9 23 9q40 0 40 -41q0 -19 -18 -32q-53 -37 -53 -118q0 -56 41 -94.5t97 -38.5q57 0 98 38.5t41 94.5q0 96 -51 114q-18 7 -39 -6.5t-28 -15.5q-16 0 -28.5 12.5t-12.5 28.5
q0 14 11 26q33 36 84 36q82 0 122 -91q20 -46 20 -104z" />
    <glyph glyph-name="pha.sub.dot" horiz-adv-x="2" 
d="M-98 -258q0 -91 -62.5 -151t-154.5 -60q-93 0 -154.5 59.5t-61.5 151.5q0 124 86 182q13 9 23 9q40 0 40 -41q0 -19 -18 -32q-53 -37 -53 -118q0 -56 41 -94.5t97 -38.5q53 0 93 35t45 87q-32 -20 -65 -20q-46 0 -79.5 32.5t-33.5 79.5q0 46 35 80t81 34q77 0 117 -83
q24 -51 24 -112zM-206 -177q0 35 -36 35q-10 0 -20 -7l-8 -8q-7 -12 -7 -20q0 -33 35 -33q36 0 36 33z" />
    <glyph glyph-name="ba.sub.dot" horiz-adv-x="2" 
d="M-88 -244q0 -91 -62.5 -151.5t-154.5 -60.5q-93 0 -154.5 60t-61.5 152q0 119 100 178q9 12 30 12q18 0 30.5 -15t8.5 -32q10 -36 47 -36q43 0 48 38q-1 5 2 17q5 28 38 28q18 0 29 -12q100 -61 100 -178zM-166 -244q0 45 -31 85q-40 -57 -108 -57q-67 0 -107 57
q-31 -36 -31 -85q0 -57 41 -95t97 -38q57 0 98 38t41 95z" />
    <glyph glyph-name="bha.sub.dot" horiz-adv-x="2" 
d="M-42 -258q0 -86 -62 -148.5t-149 -62.5q-93 0 -118 80q-3 8 -3 13q0 37 42 37q12 0 35 -26t46 -26q53 0 92 40t39 93q0 56 -41 94.5t-97 38.5t-97 -38.5t-41 -94.5q0 -91 -62.5 -151t-153.5 -60q-130 0 -192 112q-6 10 -6 20q0 38 41 38q22 0 33 -20q39 -72 124 -72
q56 0 96.5 38.5t40.5 94.5q0 58 -40 95.5t-97 37.5q-35 0 -67 -15q-40 -17 -45 -47q9 -10 9 -23q0 -15 -12.5 -28t-27.5 -13q-22 0 -35 19.5t-13 42.5q0 35 19 63q55 79 172 79q112 0 176 -89q65 89 178 89q93 0 154.5 -59.5t61.5 -151.5z" />
    <glyph glyph-name="ma.sub.dot" horiz-adv-x="2" 
d="M-99 -258q0 -92 -62 -151.5t-154 -59.5t-155 59.5t-63 151.5q0 124 87 182q12 9 23 9q40 0 40 -41q0 -19 -18 -32q-52 -36 -52 -118q0 -30 12 -56q11 44 45.5 72t79.5 28q46 0 80 -27.5t45 -72.5q14 26 14 56q0 96 -51 114q-18 7 -39.5 -6.5t-27.5 -15.5
q-15 0 -27.5 12.5t-12.5 27.5t11 27q33 36 84 36q82 0 120 -91q21 -48 21 -104zM-267 -342q0 21 -14 35.5t-35 14.5t-35 -14.5t-14 -35.5q0 -20 14 -34.5t35 -14.5t35 14.5t14 34.5z" />
    <glyph glyph-name="ya.sub.dot" 
d="M-17 -254q0 -90 -62 -150.5t-154 -60.5q-113 0 -179 91q-66 -91 -178 -91q-93 0 -155 59.5t-62 151.5q0 124 86 183q13 8 24 8q39 0 39 -41q0 -19 -17 -32q-54 -36 -54 -118q0 -56 41.5 -94.5t97.5 -38.5t97.5 38.5t41.5 94.5q0 97 -52 114q-17 7 -38.5 -7t-27.5 -15
q-17 0 -29.5 12.5t-12.5 28.5q0 14 11 27q33 35 84 35q125 0 143 -181q1 -2 1 -14q0 -56 41.5 -94.5t97.5 -38.5t96.5 38.5t40.5 94.5q0 55 -38.5 94t-93.5 39q-22 0 -44.5 -25.5t-35.5 -25.5q-41 0 -41 38q0 42 40 68q35 24 80 24q88 0 150 -62t62 -150z" />
    <glyph glyph-name="na.sub.dot" horiz-adv-x="2" 
d="M-25 -428q-32 -74 -117 -74q-73 0 -102 36q-10 0 -101 -3q-88 -3 -124 77q-9 10 -9 45q0 48 33.5 80.5t81.5 32.5q47 0 77.5 -32.5t36.5 -80.5q3 -18 19 -40q58 6 58 36q0 39 -77 89l-115 75q-4 2 -13 9q-28 29 -28 68q0 91 98 92q7 0 15 -1q79 -15 86 -87q4 -42 -40 -42
q-15 0 -34 24t-28 28q-14 -3 -17 -7q-4 -14 1 -24q72 -42 140 -94q85 -66 89 -104q3 -25 3 -31q0 -50 -57 -86q14 -10 45 -10q58 0 79 24zM-312 -388q-4 8 -18 53q-4 23 -33 23q-36 0 -36 -35q0 -33 36 -33z" />
    <glyph glyph-name="kinzi" horiz-adv-x="2" 
d="M178 638q-84 100 -241 161q-124 46 -175 40q-30 0 -54 -17.5t-24 -46.5q0 -27 25 -45t53 -18q55 0 102 -34q16 -12 16 -30q0 -43 -40 -43q-10 0 -21 8q-27 20 -57 20t-54 -17.5t-24 -46.5q0 -48 60 -64q21 -6 43 -6q48 0 66 43q29 0 29 -43q0 -27 -21 -41
q-37 -24 -96 -24q-63 0 -111 37t-48 98q0 62 48 104q-48 43 -48 102q0 62 49 101t110 32q173 -19 310 -144q85 -76 103 -126z" />
    <glyph glyph-name="ra.med.lowershort1.wide" horiz-adv-x="134" 
d="M1251 590q-218 251 -482 251h-651q-40 0 -40 -41v-1150q0 -41 40 -41h466q-26 -78 -91 -78h-375q-50 0 -84 34t-34 85v1150q0 49 34.5 84t83.5 35h678q152 0 299 -126q116 -100 156 -203z" />
    <glyph glyph-name="M_RA15_ND" horiz-adv-x="166" 
d="M119 806q-34 0 -34 -61v-1097q0 -55 34 -55h11l-1 -81h-10q-90 0 -90 133l-1 1107q0 134 91 133l530 -4l-3 -74z" />
    <glyph glyph-name="aa.alt.asat" horiz-adv-x="429" 
d="M441 849q-44 13 -96 13q-172 0 -261 -135l-6 -8v-683q0 -40 -38 -40q-40 0 -40 40v695q0 10 10.5 27.5t10.5 27.5q0 18 -30 36q-16 8 -47 14l-36 5q-226 -10 -226 -148q0 -136 128 -152q34 -5 63 11.5t29 50.5q0 21 -15 47q5 2 10 2q26 0 48 -19t22 -44q0 -10 -4 -21
q-34 -88 -158 -88q-90 0 -145.5 60.5t-55.5 152.5q0 123 113 181q85 44 221 47q104 1 155 -69q79 69 169 69q87 0 179 -72z" />
    <glyph glyph-name="ya.wa.med" horiz-adv-x="169" 
d="M79 -376q0 -49 -33.5 -83.5t-82.5 -34.5h-51q-49 0 -77 12q-18 8 -53 37l36 49q27 -19 94 -19h51q38 0 38 39v756q0 40 39 40t39 -40v-756zM-30 -263q0 -109 -74 -179.5t-183 -70.5q-108 0 -182 70.5t-74 179.5q0 107 74.5 178t181.5 71q109 0 183 -70.5t74 -178.5z
M-110 -263q0 72 -52 121.5t-125 49.5q-72 0 -124.5 -49.5t-52.5 -121.5q0 -73 52.5 -122.5t124.5 -49.5q73 0 125 49.5t52 122.5z" />
    <glyph glyph-name="ya.ha.med" horiz-adv-x="146" 
d="M79 -379q0 -49 -33.5 -84t-83.5 -35h-52q-107 0 -173 56t-66 162q0 86 44.5 161t121.5 107q23 10 38 6q-111 -106 -111 -238q0 -73 36 -121q40 -55 110 -55h52q38 0 38 41v763q0 40 40 40q39 0 39 -40v-763zM-327 -293q-103 -207 -248 -134q-95 48 -111 134q-2 23 0 52
q33 -76 88 -104q66 -33 113 7q26 32 55 64l28 66q35 77 145 56z" />
    <glyph glyph-name="ya.wa.ha.med" horiz-adv-x="200" 
d="M79 -376q0 -49 -34 -83.5t-83 -34.5h-51q-48 0 -77 12q-17 8 -52 37l36 49q27 -19 93 -19h51q39 0 39 39v756q0 40 38 40q40 0 40 -40v-756zM-34 -253q0 -110 -75 -181.5t-185 -71.5q-86 0 -155.5 50t-93.5 133l-54 -55q-132 -132 -368 -132q-121 0 -192 31q24 -2 66 -2
q285 0 455 177l85 88q15 95 87.5 155.5t169.5 60.5q110 0 185 -71.5t75 -181.5zM-115 -253q0 74 -53 124t-126 50q-74 0 -127 -50t-53 -124t53 -123.5t127 -49.5q73 0 126 49.5t53 123.5z" />
    <glyph glyph-name="wa.ha.med" horiz-adv-x="2" 
d="M-27 -250q0 -108 -74 -178.5t-182 -70.5q-85 0 -154 49t-92 131l-54 -54q-130 -131 -364 -131q-119 0 -189 31q24 -2 65 -2q281 0 450 174l84 87q15 95 86 154.5t168 59.5q108 0 182 -70.5t74 -179.5zM-107 -250q0 73 -52 122.5t-124 49.5q-74 0 -126 -49.5t-52 -122.5
q0 -72 52 -121.5t126 -49.5q72 0 124 49.5t52 121.5z" />
    <glyph glyph-name="M_HA_UU" horiz-adv-x="3" 
d="M257 -321l-8 -12q-136 -158 -328 -158q-165 0 -165 155l2 333q82 -23 81 -96l-3 -252q0 -10 1 -14q7 -41 99 -45q216 -9 321 89zM-573 -410q92 4 99 45q1 4 1 14l-3 252q-1 73 81 96l2 -333q0 -155 -165 -155q-192 0 -328 158l-8 12q105 -98 321 -89zM-243 -492
q-113 16 -113 144v348q79 -23 79 -108l-1 -241q-1 -122 35 -143z" />
    <glyph glyph-name="ha.med.alt" 
d="M-200 -117q1 -194 -123 -194q-80 0 -121 59q-9 16 -18 39q49 -45 96 -45q56 0 74 48q7 34 15 69l-3 60q-2 71 79 97z" />
    <glyph glyph-name="ha.med.u.sig.dot" horiz-adv-x="3" 
d="M247 -321l-8 -12q-136 -158 -328 -158q-165 0 -165 155l2 333q82 -23 81 -96l-3 -252q0 -10 1 -14q7 -41 99 -45q216 -9 321 89zM-503 -410q92 4 99 45q1 4 1 14l-3 252q-1 73 81 96l2 -333q0 -155 -165 -155q-192 0 -328 158l-8 12q105 -98 321 -89z" />
    <glyph glyph-name="aukmyit.alt1" horiz-adv-x="50" 
d="M-66 -294q-44 0 -74 30.5t-30 74.5q0 45 29.5 75t74.5 30t76 -30t31 -75q0 -44 -31.5 -74.5t-75.5 -30.5zM-66 -156q-32 0 -32 -33t32 -33q34 0 34 33t-34 33z" />
    <glyph glyph-name="kinzi.i.vow" horiz-adv-x="2" 
d="M-78 673q0 -108 -75 -179t-182 -71q-108 0 -182 70.5t-74 179.5q0 54 23 105q-114 63 -178 63q-12 0 -20 -2q-30 0 -54 -17.5t-24 -46.5q0 -27 25 -45t53 -18q55 0 102 -34q16 -12 16 -30q0 -43 -40 -43q-10 0 -21 8q-27 20 -57 20t-54 -17.5t-24 -46.5q0 -48 61 -64
q20 -6 42 -6q48 0 66 43q29 0 29 -43q0 -27 -21 -41q-37 -24 -96 -24q-63 0 -111 37t-48 98q0 62 48 104q-48 43 -48 102q0 56 39.5 96t96.5 40q59 0 125 -34q62 -32 104 -78q76 123 222 123q109 0 183 -70.5t74 -178.5zM-158 673q0 72 -52 121.5t-125 49.5
q-75 0 -126.5 -48t-51.5 -123q0 -76 51.5 -124t126.5 -48q73 0 125 49t52 123z" />
    <glyph glyph-name="kinzi.ii.vow" horiz-adv-x="2" 
d="M76 466q-54 60 -147 110q-12 7 -32 13q-26 -76 -93.5 -121t-148.5 -45q-108 0 -182 70.5t-74 179.5q0 58 24 105q-131 71 -199 61q-30 0 -54 -17.5t-24 -46.5q0 -27 25 -45t53 -18q55 0 102 -34q16 -12 16 -30q0 -43 -40 -43q-10 0 -21 8q-27 20 -57 20t-54 -17.5
t-24 -46.5q0 -48 61 -64q20 -6 42 -6q48 0 66 43q29 0 29 -43q0 -27 -21 -41q-37 -24 -96 -24q-63 0 -111 37t-48 98q0 62 48 104q-48 43 -48 102q0 56 39.5 96t96.5 40q59 0 125 -34q62 -32 104 -78q76 123 222 123q109 0 183 -70.5t74 -178.5q0 -23 -6 -52
q124 -67 169 -148q1 -1 1 -7zM-168 673q0 72 -52 121.5t-125 49.5t-125 -49.5t-52 -121.5q0 -65 44 -113q10 100 184 100q65 0 125 -14q1 7 1 27zM-183 603q-12 2 -86 3q-140 5 -140 -83q0 -2 -2 -4v-6q30 -12 66 -12q114 0 162 102z" />
    <glyph glyph-name="ha.med.u.sig.dot" horiz-adv-x="3" 
d="M257 -321l-8 -12q-136 -158 -328 -158q-165 0 -165 155l2 333q82 -23 81 -96l-3 -252q0 -10 1 -14q7 -41 99 -45q216 -9 321 89zM-483 -410q92 4 99 45q1 4 1 14l-3 252q-1 73 81 96l2 -333q0 -155 -165 -155q-192 0 -328 158l-8 12q105 -98 321 -89z" />
    <glyph glyph-name="i.vow.anusvara" horiz-adv-x="2" 
d="M158 826q0 -38 -27 -65t-66 -27t-66 26t-27 66q0 38 27.5 65.5t65.5 27.5q39 0 66 -27.5t27 -65.5zM87 826q0 22 -22 22t-22 -22q0 -20 22 -20t22 20zM-28 673q0 -108 -74.5 -179t-182.5 -71t-182 70.5t-74 179.5t73.5 179t182.5 70t183 -70.5t74 -178.5zM-107 673
q0 72 -52.5 121.5t-125.5 49.5q-75 0 -126.5 -48t-51.5 -123q0 -76 51.5 -124t126.5 -48q73 0 125.5 49t52.5 123z" />
    <glyph glyph-name="kinzi.mon.ii.vow" 
d="M-204 666q0 -35 -22.5 -56.5t-56.5 -21.5q-33 0 -55.5 22.5t-22.5 55.5q0 35 22.5 57.5t57.5 22.5q34 0 55.5 -22.5t21.5 -57.5zM-253 672q0 35 -33 35q-35 0 -35 -35q0 -34 34 -34t34 34zM-167 666q0 53 -32 87.5t-85 34.5q-54 0 -87.5 -34t-33.5 -88q0 -51 33.5 -84.5
t84.5 -33.5q53 0 86.5 32.5t33.5 85.5zM-29 673q0 -108 -74.5 -179t-182.5 -71t-182 70.5t-74 179.5t73.5 179t182.5 70t183 -70.5t74 -178.5zM-108 673q0 72 -52 121.5t-126 49.5q-75 0 -126.5 -48t-51.5 -123q0 -76 51.5 -124t126.5 -48q74 0 126 49t52 123zM-427 712
q-105 74 -146 87q-124 46 -175 40q-30 0 -54 -17.5t-24 -46.5q0 -27 25 -45t53 -18q55 0 102 -34q16 -12 16 -30q0 -43 -40 -43q-10 0 -21 8q-27 20 -57 20t-54 -17.5t-24 -46.5q0 -48 60 -64q21 -6 43 -6q48 0 66 43q29 0 29 -43q0 -27 -21 -41q-37 -24 -96 -24
q-63 0 -111 37t-48 98q0 62 48 104q-48 43 -48 102q0 62 49 101t110 32q173 -19 230 -88q11 -34 88 -108z" />
    <glyph glyph-name="asat.asat.lig" 
d="M-366 478q-77 1 -144 39q-78 46 -78 118q0 54 54 119v6q-10 -16 -8 -16l13 11q60 52 150 52q82 0 147 -38q76 -44 91 -115l178 -192l-232 140l-24 25q-24 36 -59 65q-39 32 -93 34q-22 1 -60 -10q-26 -7 -44.5 -26.5t-18.5 -45.5q0 -16 9.5 -35t22.5 -26q43 -23 98 -24z
M-525 815q-27 -17 -297 -281q146 240 268 333q95 55 221 55q104 0 173 -41v1q124 -79 135 -233l-84 -9q-1 198 -267 212q-85 4 -149 -37z" />
    <glyph glyph-name="aa.alt.asat" horiz-adv-x="355" 
d="M441 849q-44 13 -96 13q-172 0 -261 -135l-6 -8v-683q0 -40 -38 -40q-40 0 -40 40v695q0 10 10.5 27.5t10.5 27.5q0 18 -30 36q-16 8 -47 14l-36 5q-226 -10 -226 -148q0 -136 128 -152q34 -5 63 11.5t29 50.5q0 21 -15 47q5 2 10 2q26 0 48 -19t22 -44q0 -10 -4 -21
q-34 -88 -158 -88q-90 0 -145.5 60.5t-55.5 152.5q0 123 113 181q85 44 221 47q104 1 155 -69q79 69 169 69q87 0 179 -72z" />
    <glyph glyph-name="ra.med.uppershort.wide" horiz-adv-x="134" 
d="M932 -350q0 -49 -34.5 -84t-83.5 -35h-686q-50 0 -84 34t-34 85v1150q0 49 34.5 84t83.5 35h287q78 0 146 -41q55 -33 55 -49q-83 12 -192 12h-296q-40 0 -40 -41v-1150q0 -41 40 -41h686q40 0 40 41v341q0 39 40 39q38 0 38 -39v-341z" />
    <glyph glyph-name="nnya.sub.dot" horiz-adv-x="3" 
d="M-271 -257q-21 10 -35 19q-48 -35 -116 -35q-40 0 -77 13v-84q15 0 44 -1h45h275v62q52 0 83.5 -12.5t31.5 -46.5v-23q-6 -46 -61 -54h-436q-67 0 -67 55v21q0 9 1 26v25v21q0 8 1 23v22v52l37 12l46 17v-25l9 -11q31 -20 68 -20q31 0 55 14q28 17 28 46q0 30 -28 46
q-23 13 -55 13q-31 0 -66 -19q-9 -6 -24 -28q-17 4 -82 23q18 28 23 34q15 20 28 28q50 36 121 36q115 0 155 -79q13 -25 13 -54q0 -19 -6 -35l5 -5q31 -20 68 -20q31 0 55 14q28 17 28 46t-28 45q-24 14 -55 14h-22l-23 70q28 4 45 4q49 0 89 -18q46 -21 66 -61
q12 -25 12 -54q0 -91 -101 -123q-31 -9 -66 -9q-40 0 -84 16z" />
    <glyph glyph-name="nya.sub.dot" horiz-adv-x="3" 
d="M-502 -416q-67 0 -67 55v21q0 8 1 25v25v22q1 32 1 45v52l37 12l46 17v-25l9 -11q31 -20 68 -20q31 0 55 14q28 17 28 46q0 30 -28 46q-23 13 -55 13q-31 0 -66 -19q-9 -6 -24 -28q-17 4 -82 23q18 28 23 34q15 20 28 28q50 36 121 36q115 0 155 -79q13 -25 13 -54
q0 -44 -29 -76.5t-73 -46.5q-31 -9 -66 -9q-40 0 -77 13v-84q15 0 44 -1h45h275v106q52 -44 58.5 -68.5t35.5 -31.5l-9 -35q-2 -54 -31 -45h-436z" />
    <glyph glyph-name="jha.sub.dot" horiz-adv-x="175" 
d="M-276 -489q-101 0 -171.5 70.5t-70.5 171.5q0 102 69.5 171.5t172.5 69.5q102 0 171.5 -69.5t69.5 -171.5q0 -45 -12 -85l61 -38v778h89v-834q10 -52 -46 -52q-16 0 -29 3l-134 57q-68 -71 -170 -71zM-276 -98q-9 0 -49 -11q31 -63 31 -134t-31 -141q21 -13 49 -13
q64 0 106.5 42.5t42.5 107.5q0 66 -41.5 107.5t-107.5 41.5zM-384 -141q-40 -35 -40 -106q0 -74 40 -112q31 45 32 98q2 68 -32 120z" />
    <glyph glyph-name="ja.sub.dot" horiz-adv-x="2" 
d="M-28 -417q1 -40 -39 -40q-37 0 -40 38q-1 31 -19 48q-1 0 -6 -1h-4q-27 -19 -63 -19q-46 0 -80.5 33t-34.5 79q0 47 33.5 79.5t80.5 32.5q-38 46 -105 46q-56 0 -97 -38t-41 -95q0 -47 29.5 -83t75.5 -45q30 -7 30 -38q0 -21 -14 -33t-35 -6q-74 18 -119 74t-45 131
q0 91 62 151.5t154 60.5q94 0 155.5 -60t61.5 -152q3 -20 3 -25q0 -17 -2 -22q57 -43 59 -116zM-167 -265q-11 19 -32 19q-36 0 -36 -33t36 -33q14 0 25 9q0 4 2 8q5 14 5 30z" />
    <glyph glyph-name="cha.sub.dot" horiz-adv-x="2" 
d="M-8 -258q0 -91 -62.5 -151t-154.5 -60q-112 0 -177 89q-64 -89 -176 -89q-45 0 -84 17q-37 9 -61 39.5t-24 68.5q0 48 33.5 80t81.5 32q47 0 80.5 -32.5t33.5 -79.5q0 -15 -5 -36q82 33 82 108v28q-7 52 -46.5 85.5t-90.5 33.5q-34 0 -64 -17q-23 -12 -75 -69
q-28 -30 -77 -30q-23 0 -52 8q0 2 31 25t35 28q38 59 68 83q65 50 134 50q112 0 176 -89q65 89 177 89q94 0 155.5 -59.5t61.5 -151.5zM-86 -258q0 56 -41 94.5t-98 38.5q-53 0 -91.5 -33.5t-45.5 -85.5v-28q7 -52 46 -85.5t91 -33.5q57 0 98 38.5t41 94.5zM-596 -344
q0 33 -36 33t-36 -33q0 -20 31 -33q41 0 41 33z" />
    <glyph glyph-name="tta.sub.dot" horiz-adv-x="3" 
d="M-118 -213q-37 -24 -57 -36q-32 -19 -60 -28l-10 -3h93v-107h70v-84h-169v104q-34 -9 -68 -9q-72 0 -143 37l46 65q-66 23 -95 62q-18 26 -18 54q0 58 67 98q61 36 145 36q112 0 165 -55q10 -9 18 -25l-80 -35q-37 36 -105 36q-37 0 -66 -10q-44 -14 -44 -45
q0 -28 44 -42q31 -11 63 -11q70 0 109 40zM-319 -298q-50 0 -77 36l-3 4q34 -64 77 -64q40 0 71 48v8q-26 -32 -68 -32z" />
    <glyph glyph-name="shan.ca.sub" 
d="M-612 -453q-40 -11 -73 -11q-90 0 -147.5 59t-57.5 149q0 91 57.5 149t147.5 58q96 0 150 -58l12 -13l9 10q54 60 147 60q89 0 149.5 -60t60.5 -149q0 -88 -60 -149t-148 -61q-85 0 -146 62.5t-61 147.5q0 28 6 54q-11 25 -26 40q-37 36 -93 36q-55 0 -91 -36t-36 -91
t36 -91.5t91 -36.5q20 0 46 6zM-365 -133q-56 0 -90 -35t-33 -91t35.5 -89t90.5 -33q54 0 88 34.5t34 87.5q0 56 -34.5 91t-90.5 35z" />
    <glyph glyph-name="lla.ha.med" horiz-adv-x="577" 
d="M136 -250h109v95h75v-135q-1 2 -1 19q-1 -42 -61 -57h-61q-40 1 -61 1v77zM435 237q-68 117 -167 117q-75 0 -123 -48t-48 -120t48 -120t123 -48h13q4 -2 9 -2l8 2q29 12 94 32q98 3 98 -79q0 -18 -7 -38q-44 -87 -223 -95q-82 -4 -163 30v-156q0 -49 48 -49h233
q17 0 38 4q7 3 7 13q-11 16 -66 16l13 71h24q102 0 102 -89v-2q0 -85 -97 -85h-291q-37 0 -63 30.5t-22 66.5v194q0 71 44 71q51 0 51 -15q70 -26 142 -26v0q121 0 151 48q1 6 1 9q0 7 -12 7q-8 0 -28 -10l-28 -13q-17 -8 -30 -9h-46q-109 0 -177.5 68t-68.5 174
q0 105 68.5 172.5t177.5 67.5q143 0 230 -155z" />
    <glyph glyph-name="shan.ka.sub" 
d="M-513 -247q-1 89 58.5 146.5t148.5 57.5t145.5 -57.5t56.5 -146.5q0 -156 -130 -211l-37 71q89 35 89 140q0 54 -35 89.5t-89 35.5q-55 0 -91.5 -35t-36.5 -90v6h1q44 0 74.5 -31t30.5 -75t-30.5 -75t-74.5 -31q-40 0 -218 83l156 13q48 -14 63 -14q26 0 26 25
q0 26 -30 26q-3 1 -12 0q-30 -4 -52 22q-13 17 -13 51z" />
    <glyph glyph-name="pa.ssa.sub.dot" horiz-adv-x="6" 
d="M-317 -459q-89 0 -147.5 59.5t-58.5 149.5q0 130 125 191l48 -61q-93 -61 -93 -130q0 -55 35.5 -92.5t90.5 -37.5t92 37t37 93q0 69 -96 130l52 61l23 -12q99 -54 99 -179q0 -89 -60 -149t-147 -60zM-371 -257q0 23 17 40t41 17t41 -17t17 -40t-17 -39.5t-41 -16.5
t-41 16.5t-17 39.5z" />
    <glyph glyph-name="ga.sha.sub.dot" horiz-adv-x="3" 
d="M-313 -65q-89 0 -147.5 -58.5t-58.5 -147.5q0 -127 125 -187l48 60q-93 60 -93 127q0 55 35.5 91.5t90.5 36.5t92 -36t37 -92q0 -67 -96 -127l52 -60l23 12q99 53 99 175q0 88 -60 147t-147 59zM-367 -272q0 23 17 39.5t41 16.5t41 -16.5t17 -39.5q0 -22 -17 -38.5
t-41 -16.5t-41 16.5t-17 38.5z" />
    <glyph glyph-name="sgaw.eu.asat.dot" horiz-adv-x="415" 
d="M71 423h138v-420h-78v364h-60v56zM1009 504q-107 117 -293 216q-74 39 -197 63q-110 23 -207 25q-291 7 -291 -148q0 -136 128 -152q43 -6 72.5 22t25.5 73q4 1 9 1q18 0 33.5 -18.5t15.5 -37.5q0 -5 -3 -13q-30 -87 -158 -87q-90 0 -145.5 60t-55.5 152q0 128 119 185
q88 43 231 43q232 0 371 -75q248 -134 341 -295q4 -7 4 -14z" />
    <glyph glyph-name="kinzi.dot" horiz-adv-x="6" 
d="M168 638q-84 100 -241 161q-124 46 -175 40q-30 0 -54 -17.5t-24 -46.5q0 -27 25 -45t53 -18q55 0 102 -34q16 -12 16 -30q0 -43 -40 -43q-10 0 -21 8q-27 20 -57 20t-54 -17.5t-24 -46.5q0 -48 60 -64q21 -6 43 -6q48 0 66 43q29 0 29 -43q0 -27 -21 -41
q-37 -24 -96 -24q-63 0 -111 37t-48 98q0 62 48 104q-48 43 -48 102q0 62 49 101t110 32q173 -19 310 -144q85 -76 103 -126z" />
    <glyph glyph-name="kinzi.i.vow.dot" horiz-adv-x="2" 
d="M-28 673q0 -108 -75 -179t-182 -71q-108 0 -182 70.5t-74 179.5q0 54 23 105q-114 63 -178 63q-12 0 -20 -2q-30 0 -54 -17.5t-24 -46.5q0 -27 25 -45t53 -18q55 0 102 -34q16 -12 16 -30q0 -43 -40 -43q-10 0 -21 8q-27 20 -57 20t-54 -17.5t-24 -46.5q0 -48 61 -64
q20 -6 42 -6q48 0 66 43q29 0 29 -43q0 -27 -21 -41q-37 -24 -96 -24q-63 0 -111 37t-48 98q0 62 48 104q-48 43 -48 102q0 56 39.5 96t96.5 40q59 0 125 -34q62 -32 104 -78q76 123 222 123q109 0 183 -70.5t74 -178.5zM-108 673q0 72 -52 121.5t-125 49.5
q-75 0 -126.5 -48t-51.5 -123q0 -76 51.5 -124t126.5 -48q73 0 125 49t52 123z" />
    <glyph glyph-name="kinzi.ii.vow.dot" horiz-adv-x="2" 
d="M136 466q-54 60 -147 110q-12 7 -32 13q-26 -76 -93.5 -121t-148.5 -45q-108 0 -182 70.5t-74 179.5q0 58 24 105q-131 71 -199 61q-30 0 -54 -17.5t-24 -46.5q0 -27 25 -45t53 -18q55 0 102 -34q16 -12 16 -30q0 -43 -40 -43q-10 0 -21 8q-27 20 -57 20t-54 -17.5
t-24 -46.5q0 -48 61 -64q20 -6 42 -6q48 0 66 43q29 0 29 -43q0 -27 -21 -41q-37 -24 -96 -24q-63 0 -111 37t-48 98q0 62 48 104q-48 43 -48 102q0 56 39.5 96t96.5 40q59 0 125 -34q62 -32 104 -78q76 123 222 123q109 0 183 -70.5t74 -178.5q0 -23 -6 -52
q124 -67 169 -148q1 -1 1 -7zM-108 673q0 72 -52 121.5t-125 49.5t-125 -49.5t-52 -121.5q0 -65 44 -113q10 100 184 100q65 0 125 -14q1 7 1 27zM-123 603q-12 2 -86 3q-140 5 -140 -83q0 -2 -2 -4v-6q30 -12 66 -12q114 0 162 102z" />
    </font>
</defs>
</svg>
